<?xml version="1.0" encoding="utf-8"?>
<!-- Generator: Adobe Illustrator 15.0.0, SVG Export Plug-In . SVG Version: 6.00 Build 0)  -->
<!DOCTYPE svg PUBLIC "-//W3C//DTD SVG 1.1//EN" "http://www.w3.org/Graphics/SVG/1.1/DTD/svg11.dtd">
<svg version="1.1" id="Ebene_1" xmlns="http://www.w3.org/2000/svg" xmlns:xlink="http://www.w3.org/1999/xlink" x="0px" y="0px"
	 width="484.527px" height="484.583px" viewBox="0 0 484.527 484.583" enable-background="new 0 0 484.527 484.583"
	 xml:space="preserve">
<g>
	<g>
		<g>
			<defs>
				<rect id="SVGID_1_" y="0.02" width="482.05" height="484.525"/>
			</defs>
			<clipPath id="SVGID_2_">
				<use xlink:href="#SVGID_1_"  overflow="visible"/>
			</clipPath>
			<polygon clip-path="url(#SVGID_2_)" fill="#58585A" points="467.433,455.545 435.921,413.728 446.962,405.424 478.447,447.223 
							"/>
		</g>
		<g>
			<defs>
				<rect id="SVGID_3_" y="0.02" width="482.05" height="484.525"/>
			</defs>
			<clipPath id="SVGID_4_">
				<use xlink:href="#SVGID_3_"  overflow="visible"/>
			</clipPath>
			<path clip-path="url(#SVGID_4_)" fill="#58585A" d="M498.742,431.956l-31.514-41.801l12.42-9.365
				c8.928-6.722,15.863-7.205,23.182,2.515c7.279,9.663,6.266,15.269-3.846,22.901l-1.898,1.424l12.297,16.301L498.742,431.956z
				 M491.21,399.838c3.537-2.682,4.635-4.506,1.117-9.162c-2.98-3.965-4.617-4.096-8.742-0.977L491.21,399.838z"/>
		</g>
	</g>
	<rect x="0.01" y="0.01" width="484.517" height="484.526"/>
	<polygon fill="#58585A" points="0,99.171 7.848,93.259 0,82.842 	"/>
	<g>
		<g>
			<defs>
				<rect id="SVGID_5_" y="0.02" width="482.05" height="484.525"/>
			</defs>
			<clipPath id="SVGID_6_">
				<use xlink:href="#SVGID_5_"  overflow="visible"/>
			</clipPath>
			<path clip-path="url(#SVGID_6_)" fill="#58585A" d="M28.125,77.982L-3.37,36.168l12.4-9.342c8.928-6.73,15.873-7.215,23.19,2.509
				c7.28,9.654,6.265,15.272-3.845,22.887l-1.909,1.438l12.289,16.292L28.125,77.982z M20.593,45.864
				c3.547-2.676,4.646-4.51,1.136-9.161c-2.998-3.957-4.627-4.091-8.77-0.973L20.593,45.864z"/>
		</g>
		<g>
			<defs>
				<rect id="SVGID_7_" y="0.02" width="482.05" height="484.525"/>
			</defs>
			<clipPath id="SVGID_8_">
				<use xlink:href="#SVGID_7_"  overflow="visible"/>
			</clipPath>
			<polygon clip-path="url(#SVGID_8_)" fill="#58585A" points="57.394,55.914 25.89,14.124 49.797,-3.895 56.286,4.735 
				43.42,14.426 48.764,21.529 59.396,13.514 66.164,22.474 55.522,30.499 61.667,38.64 75.194,28.451 81.953,37.411 			"/>
		</g>
		<g>
			<defs>
				<rect id="SVGID_9_" y="0.02" width="482.05" height="484.525"/>
			</defs>
			<clipPath id="SVGID_10_">
				<use xlink:href="#SVGID_9_"  overflow="visible"/>
			</clipPath>
			<path clip-path="url(#SVGID_10_)" fill="#58585A" d="M87.994,15.147c1.89,2.509,3.817,2.611,5.53,1.327
				c1.704-1.29,2.141-3.174,0.26-5.684l-3.119-4.129L87.9,8.733l-5.875-7.802L95.814-9.458l17.502,23.232l-5.642,4.25l-3.249-1.01
				c-0.801,3.71-2.598,6.521-5.875,9.002c-10.976,8.244-16.934,4.706-29.344-11.763c-11.888-15.78-12.465-24.466-1.825-32.491
				c5.893-4.45,12.885-6.247,18.731-2.439c1.825,1.192,3.612,3.124,6.154,6.507l-11.04,8.306l-1.834-2.438
				c-1.89-2.5-3.817-2.593-5.521-1.308c-1.722,1.29-2.15,3.166-0.27,5.665L87.994,15.147z"/>
		</g>
		<g>
			<defs>
				<rect id="SVGID_11_" y="0.02" width="482.05" height="484.525"/>
			</defs>
			<clipPath id="SVGID_12_">
				<use xlink:href="#SVGID_11_"  overflow="visible"/>
			</clipPath>
			<polygon clip-path="url(#SVGID_12_)" fill="#58585A" points="119.74,8.938 88.236,-32.862 99.268,-41.166 130.772,0.629 			"/>
		</g>
		<g>
			<defs>
				<rect id="SVGID_13_" y="0.02" width="482.05" height="484.525"/>
			</defs>
			<clipPath id="SVGID_14_">
				<use xlink:href="#SVGID_13_"  overflow="visible"/>
			</clipPath>
			<path clip-path="url(#SVGID_14_)" fill="#58585A" d="M9.235,180.793l-31.503-41.814l12.41-9.342
				c8.928-6.74,15.873-7.215,23.199,2.509c7.28,9.654,6.256,15.272-3.854,22.888l-1.909,1.438l12.289,16.292L9.235,180.793z
				 M1.704,148.675c3.547-2.681,4.645-4.511,1.136-9.161c-2.989-3.957-4.627-4.092-8.761-0.973L1.704,148.675z"/>
		</g>
	</g>
	<polygon fill="#58585A" points="38.504,158.725 7.001,116.92 30.899,98.915 37.388,107.531 24.531,117.227 29.884,124.339 
		40.516,116.319 47.274,125.284 36.643,133.309 42.778,141.451 56.295,131.261 63.054,140.222 	"/>
	<g>
		<g>
			<defs>
				<rect id="SVGID_15_" y="0.02" width="482.05" height="485.111"/>
			</defs>
			<clipPath id="SVGID_16_">
				<use xlink:href="#SVGID_15_"  overflow="visible"/>
			</clipPath>
			<path clip-path="url(#SVGID_16_)" fill="#58585A" d="M69.114,117.958c1.89,2.495,3.808,2.611,5.53,1.322
				c1.694-1.285,2.132-3.184,0.251-5.679l-3.128-4.129l-2.755,2.067l-5.865-7.797l13.778-10.39l17.502,23.232l-5.642,4.25
				l-3.249-1.01c-0.801,3.701-2.598,6.512-5.875,8.998c-10.966,8.248-16.925,4.71-29.344-11.763
				c-11.888-15.775-12.465-24.461-1.825-32.486c5.902-4.455,12.885-6.247,18.74-2.444c1.815,1.191,3.603,3.128,6.145,6.512
				l-11.032,8.304l-1.843-2.439c-1.89-2.5-3.808-2.602-5.521-1.317c-1.704,1.285-2.141,3.175-0.261,5.674L69.114,117.958z"/>
		</g>
		<g>
			<defs>
				<rect id="SVGID_17_" y="0.02" width="482.05" height="485.111"/>
			</defs>
			<clipPath id="SVGID_18_">
				<use xlink:href="#SVGID_17_"  overflow="visible"/>
			</clipPath>
			<polygon clip-path="url(#SVGID_18_)" fill="#58585A" points="100.851,111.748 69.347,69.935 80.379,61.635 111.874,103.435 			
				"/>
		</g>
		<g>
			<defs>
				<rect id="SVGID_19_" y="0.02" width="482.05" height="485.111"/>
			</defs>
			<clipPath id="SVGID_20_">
				<use xlink:href="#SVGID_19_"  overflow="visible"/>
			</clipPath>
			<path clip-path="url(#SVGID_20_)" fill="#58585A" d="M132.14,88.163l-31.494-41.81l12.41-9.342
				c8.937-6.73,15.873-7.215,23.209,2.518c7.271,9.654,6.247,15.268-3.864,22.888l-1.908,1.429l12.289,16.292L132.14,88.163z
				 M124.618,56.049c3.547-2.672,4.636-4.511,1.126-9.161c-2.979-3.957-4.608-4.092-8.751-0.973L124.618,56.049z"/>
		</g>
	</g>
	<g>
		<g>
			<defs>
				<rect id="SVGID_21_" y="0.02" width="482.05" height="484.525"/>
			</defs>
			<clipPath id="SVGID_22_">
				<use xlink:href="#SVGID_21_"  overflow="visible"/>
			</clipPath>
			<polygon clip-path="url(#SVGID_22_)" fill="#58585A" points="161.419,66.108 129.916,24.304 153.813,6.29 160.311,14.915 
				147.436,24.611 152.798,31.714 163.43,23.703 170.188,32.664 159.548,40.684 165.692,48.825 179.209,38.636 185.968,47.605 			
				"/>
		</g>
		<g>
			<defs>
				<rect id="SVGID_23_" y="0.02" width="482.05" height="484.525"/>
			</defs>
			<clipPath id="SVGID_24_">
				<use xlink:href="#SVGID_23_"  overflow="visible"/>
			</clipPath>
			<path clip-path="url(#SVGID_24_)" fill="#58585A" d="M192.029,25.332c1.89,2.504,3.808,2.611,5.521,1.322
				c1.704-1.285,2.141-3.175,0.261-5.679l-3.119-4.128l-2.756,2.076l-5.874-7.796l13.787-10.39l17.493,23.232l-5.651,4.25
				l-3.24-1.02c-0.8,3.71-2.597,6.521-5.883,8.998c-10.958,8.258-16.916,4.711-29.325-11.753
				C161.354,8.659,160.759-0.026,171.4-8.042c5.912-4.464,12.894-6.247,18.74-2.444c1.834,1.182,3.603,3.128,6.153,6.503
				L185.261,4.33l-1.843-2.453c-1.88-2.495-3.808-2.593-5.521-1.304c-1.704,1.275-2.141,3.166-0.251,5.66L192.029,25.332z"/>
		</g>
		<g>
			<defs>
				<rect id="SVGID_25_" y="0.02" width="482.05" height="484.525"/>
			</defs>
			<clipPath id="SVGID_26_">
				<use xlink:href="#SVGID_25_"  overflow="visible"/>
			</clipPath>
			<polygon clip-path="url(#SVGID_26_)" fill="#58585A" points="223.765,19.123 192.262,-22.691 203.303,-30.991 234.788,10.809 			
				"/>
		</g>
		<g>
			<defs>
				<rect id="SVGID_27_" y="0.02" width="482.05" height="484.525"/>
			</defs>
			<clipPath id="SVGID_28_">
				<use xlink:href="#SVGID_27_"  overflow="visible"/>
			</clipPath>
			<path clip-path="url(#SVGID_28_)" fill="#58585A" d="M-9.654,283.599l-31.494-41.814l12.4-9.342
				c8.928-6.74,15.873-7.22,23.199,2.504c7.28,9.663,6.256,15.268-3.854,22.893l-1.909,1.441l12.298,16.293L-9.654,283.599z
				 M-17.185,251.48c3.547-2.683,4.646-4.506,1.136-9.161c-2.989-3.966-4.627-4.092-8.76-0.973L-17.185,251.48z"/>
		</g>
		<g>
			<defs>
				<rect id="SVGID_29_" y="0.02" width="482.05" height="484.525"/>
			</defs>
			<clipPath id="SVGID_30_">
				<use xlink:href="#SVGID_29_"  overflow="visible"/>
			</clipPath>
			<polygon clip-path="url(#SVGID_30_)" fill="#58585A" points="19.616,261.536 -11.888,219.726 12.01,201.716 18.499,210.337 
				5.642,220.033 10.995,227.141 21.626,219.116 28.385,228.085 17.744,236.115 23.898,244.247 37.416,234.053 44.174,243.027 			
				"/>
		</g>
	</g>
	<g>
		<g>
			<defs>
				<rect id="SVGID_31_" y="0.02" width="482.05" height="485.111"/>
			</defs>
			<clipPath id="SVGID_32_">
				<use xlink:href="#SVGID_31_"  overflow="visible"/>
			</clipPath>
			<path clip-path="url(#SVGID_32_)" fill="#58585A" d="M50.226,220.759c1.89,2.5,3.808,2.602,5.521,1.317
				c1.704-1.29,2.141-3.175,0.261-5.674l-3.128-4.124l-2.755,2.066l-5.865-7.796l13.778-10.395l17.502,23.232l-5.642,4.254
				l-3.24-1.02c-0.81,3.705-2.606,6.531-5.884,8.998c-10.966,8.258-16.925,4.72-29.344-11.753
				c-11.888-15.78-12.465-24.47-1.834-32.491c5.912-4.44,12.894-6.242,18.75-2.439c1.815,1.182,3.603,3.137,6.145,6.512
				l-11.032,8.304l-1.844-2.443c-1.89-2.504-3.817-2.602-5.521-1.313c-1.713,1.285-2.141,3.166-0.26,5.67L50.226,220.759z"/>
		</g>
		<g>
			<defs>
				<rect id="SVGID_33_" y="0.02" width="482.05" height="485.111"/>
			</defs>
			<clipPath id="SVGID_34_">
				<use xlink:href="#SVGID_33_"  overflow="visible"/>
			</clipPath>
			<polygon clip-path="url(#SVGID_34_)" fill="#58585A" points="81.971,214.554 50.467,172.749 61.49,164.436 92.994,206.24 			"/>
		</g>
		<g>
			<defs>
				<rect id="SVGID_35_" y="0.02" width="482.05" height="485.111"/>
			</defs>
			<clipPath id="SVGID_36_">
				<use xlink:href="#SVGID_35_"  overflow="visible"/>
			</clipPath>
			<path clip-path="url(#SVGID_36_)" fill="#58585A" d="M113.26,190.973l-31.494-41.809l12.4-9.342
				c8.937-6.74,15.873-7.22,23.209,2.504c7.271,9.659,6.247,15.272-3.854,22.888l-1.908,1.443l12.289,16.292L113.26,190.973z
				 M105.729,158.854c3.547-2.676,4.646-4.496,1.136-9.16c-2.979-3.966-4.618-4.087-8.76-0.973L105.729,158.854z"/>
		</g>
		<g>
			<defs>
				<rect id="SVGID_37_" y="0.02" width="482.05" height="485.111"/>
			</defs>
			<clipPath id="SVGID_38_">
				<use xlink:href="#SVGID_37_"  overflow="visible"/>
			</clipPath>
			<polygon clip-path="url(#SVGID_38_)" fill="#58585A" points="142.539,168.904 111.026,127.104 134.933,109.095 141.431,117.716 
				128.556,127.407 133.918,134.52 144.55,126.495 151.309,135.464 140.668,143.489 146.812,151.621 160.33,141.432 
				167.088,150.402 			"/>
		</g>
		<g>
			<defs>
				<rect id="SVGID_39_" y="0.02" width="482.05" height="485.111"/>
			</defs>
			<clipPath id="SVGID_40_">
				<use xlink:href="#SVGID_39_"  overflow="visible"/>
			</clipPath>
			<path clip-path="url(#SVGID_40_)" fill="#58585A" d="M173.14,128.138c1.89,2.5,3.817,2.602,5.53,1.317
				c1.694-1.29,2.141-3.174,0.261-5.674l-3.119-4.124l-2.765,2.067l-5.874-7.797l13.787-10.394l17.502,23.232l-5.632,4.254
				l-3.249-1.02c-0.819,3.706-2.607,6.531-5.884,8.998c-10.976,8.257-16.934,4.72-29.344-11.753
				c-11.888-15.78-12.475-24.47-1.834-32.49c5.902-4.45,12.894-6.242,18.74-2.439c1.825,1.183,3.603,3.128,6.153,6.512
				l-11.041,8.304l-1.834-2.444c-1.89-2.504-3.808-2.602-5.53-1.313c-1.704,1.285-2.141,3.165-0.251,5.669L173.14,128.138z"/>
		</g>
		<g>
			<defs>
				<rect id="SVGID_41_" y="0.02" width="482.05" height="485.111"/>
			</defs>
			<clipPath id="SVGID_42_">
				<use xlink:href="#SVGID_41_"  overflow="visible"/>
			</clipPath>
			<polygon clip-path="url(#SVGID_42_)" fill="#58585A" points="204.876,121.933 173.373,80.119 184.414,71.815 215.908,113.62 			
				"/>
		</g>
		<g>
			<defs>
				<rect id="SVGID_43_" y="0.02" width="482.05" height="485.111"/>
			</defs>
			<clipPath id="SVGID_44_">
				<use xlink:href="#SVGID_43_"  overflow="visible"/>
			</clipPath>
			<path clip-path="url(#SVGID_44_)" fill="#58585A" d="M236.175,98.347l-31.494-41.814l12.41-9.342
				c8.928-6.73,15.873-7.215,23.19,2.519c7.28,9.659,6.265,15.263-3.863,22.878l-1.89,1.443l12.289,16.292L236.175,98.347z
				 M228.643,66.229c3.557-2.667,4.627-4.506,1.136-9.161c-2.989-3.957-4.618-4.087-8.751-0.973L228.643,66.229z"/>
		</g>
	</g>
	<g>
		<g>
			<defs>
				<rect id="SVGID_45_" y="0.02" width="482.05" height="484.525"/>
			</defs>
			<clipPath id="SVGID_46_">
				<use xlink:href="#SVGID_45_"  overflow="visible"/>
			</clipPath>
			<polygon clip-path="url(#SVGID_46_)" fill="#58585A" points="265.455,76.288 233.94,34.488 257.847,16.47 264.335,25.1 
				251.47,34.791 256.824,41.894 267.455,33.878 274.212,42.848 263.574,50.864 269.736,58.996 283.244,48.815 290.001,57.785 			
				"/>
		</g>
		<g>
			<defs>
				<rect id="SVGID_47_" y="0.02" width="482.05" height="484.525"/>
			</defs>
			<clipPath id="SVGID_48_">
				<use xlink:href="#SVGID_47_"  overflow="visible"/>
			</clipPath>
			<path clip-path="url(#SVGID_48_)" fill="#58585A" d="M296.054,35.512c1.898,2.509,3.809,2.602,5.512,1.327
				c1.723-1.29,2.158-3.175,0.27-5.684l-3.127-4.129l-2.748,2.081l-5.883-7.811l13.797-10.389l17.502,23.241l-5.65,4.254
				l-3.24-1.033c-0.811,3.719-2.598,6.531-5.883,9.002c-10.967,8.253-16.925,4.715-29.335-11.758
				c-11.888-15.775-12.476-24.461-1.834-32.486c5.894-4.455,12.885-6.247,18.731-2.439c1.834,1.191,3.603,3.133,6.152,6.507
				l-11.041,8.313l-1.824-2.448c-1.898-2.509-3.826-2.593-5.529-1.308c-1.705,1.28-2.143,3.165-0.252,5.665L296.054,35.512z"/>
		</g>
		<g>
			<defs>
				<rect id="SVGID_49_" y="0.02" width="482.05" height="484.525"/>
			</defs>
			<clipPath id="SVGID_50_">
				<use xlink:href="#SVGID_49_"  overflow="visible"/>
			</clipPath>
			<polygon clip-path="url(#SVGID_50_)" fill="#58585A" points="327.798,29.303 296.278,-12.506 307.32,-20.811 338.832,20.994 			
				"/>
		</g>
		<g>
			<defs>
				<rect id="SVGID_51_" y="0.02" width="482.05" height="484.525"/>
			</defs>
			<clipPath id="SVGID_52_">
				<use xlink:href="#SVGID_51_"  overflow="visible"/>
			</clipPath>
			<path clip-path="url(#SVGID_52_)" fill="#58585A" d="M359.097,5.722l-31.502-41.805l12.408-9.352
				c8.939-6.731,15.863-7.215,23.209,2.518c7.262,9.654,6.238,15.263-3.863,22.878l-1.918,1.438L369.74-2.3L359.097,5.722z
				 M351.568-26.396c3.537-2.667,4.635-4.51,1.135-9.161c-2.988-3.957-4.627-4.091-8.76-0.973L351.568-26.396z"/>
		</g>
		<g>
			<defs>
				<rect id="SVGID_53_" y="0.02" width="482.05" height="484.525"/>
			</defs>
			<clipPath id="SVGID_54_">
				<use xlink:href="#SVGID_53_"  overflow="visible"/>
			</clipPath>
			<polygon clip-path="url(#SVGID_54_)" fill="#58585A" points="0.727,364.331 -30.768,322.532 -6.87,304.526 -0.381,313.146 
				-13.247,322.838 -7.895,329.952 2.737,321.936 9.496,330.891 -1.136,338.924 5.009,347.062 18.526,336.868 25.285,345.833 			"/>
		</g>
	</g>
	<g>
		<g>
			<defs>
				<rect id="SVGID_55_" y="0.02" width="482.05" height="485.111"/>
			</defs>
			<clipPath id="SVGID_56_">
				<use xlink:href="#SVGID_55_"  overflow="visible"/>
			</clipPath>
			<path clip-path="url(#SVGID_56_)" fill="#58585A" d="M31.346,323.573c1.89,2.495,3.798,2.607,5.521,1.322
				c1.694-1.284,2.141-3.184,0.242-5.68L34,315.083l-2.765,2.066l-5.865-7.792l13.788-10.399l17.493,23.237l-5.642,4.255
				l-3.24-1.016c-0.81,3.705-2.597,6.518-5.884,9.002c-10.957,8.238-16.916,4.711-29.334-11.758
				c-11.897-15.789-12.475-24.465-1.834-32.49c5.902-4.449,12.885-6.247,18.74-2.439c1.834,1.192,3.603,3.119,6.145,6.508
				l-11.032,8.295l-1.834-2.438c-1.899-2.496-3.817-2.598-5.53-1.314c-1.704,1.295-2.132,3.176-0.26,5.671L31.346,323.573z"/>
		</g>
		<g>
			<defs>
				<rect id="SVGID_57_" y="0.02" width="482.05" height="485.111"/>
			</defs>
			<clipPath id="SVGID_58_">
				<use xlink:href="#SVGID_57_"  overflow="visible"/>
			</clipPath>
			<polygon clip-path="url(#SVGID_58_)" fill="#58585A" points="63.073,317.354 31.578,275.555 42.62,267.25 74.104,309.051 			"/>
		</g>
		<g>
			<defs>
				<rect id="SVGID_59_" y="0.02" width="482.05" height="485.111"/>
			</defs>
			<clipPath id="SVGID_60_">
				<use xlink:href="#SVGID_59_"  overflow="visible"/>
			</clipPath>
			<path clip-path="url(#SVGID_60_)" fill="#58585A" d="M94.372,293.784l-31.485-41.818l12.4-9.348
				c8.928-6.735,15.873-7.21,23.2,2.514c7.28,9.654,6.265,15.268-3.854,22.883l-1.908,1.443l12.289,16.291L94.372,293.784z
				 M86.858,261.665c3.538-2.682,4.627-4.506,1.117-9.16c-2.979-3.967-4.618-4.096-8.76-0.978L86.858,261.665z"/>
		</g>
		<g>
			<defs>
				<rect id="SVGID_61_" y="0.02" width="482.05" height="485.111"/>
			</defs>
			<clipPath id="SVGID_62_">
				<use xlink:href="#SVGID_61_"  overflow="visible"/>
			</clipPath>
			<polygon clip-path="url(#SVGID_62_)" fill="#58585A" points="123.65,271.709 92.146,229.91 116.053,211.901 122.542,220.517 
				109.667,230.212 115.029,237.325 125.661,229.31 132.419,238.27 121.779,246.295 127.923,254.44 141.44,244.247 148.208,253.211 
							"/>
		</g>
		<g>
			<defs>
				<rect id="SVGID_63_" y="0.02" width="482.05" height="485.111"/>
			</defs>
			<clipPath id="SVGID_64_">
				<use xlink:href="#SVGID_63_"  overflow="visible"/>
			</clipPath>
			<path clip-path="url(#SVGID_64_)" fill="#58585A" d="M154.26,230.943c1.89,2.5,3.817,2.611,5.521,1.327
				c1.704-1.29,2.141-3.184,0.261-5.684l-3.119-4.129l-2.765,2.072l-5.874-7.802l13.797-10.389l17.502,23.232l-5.642,4.25
				l-3.258-1.01c-0.81,3.71-2.598,6.512-5.875,9.002c-10.967,8.243-16.925,4.706-29.334-11.768
				c-11.897-15.775-12.484-24.461-1.843-32.486c5.912-4.455,12.894-6.247,18.74-2.439c1.834,1.192,3.603,3.124,6.153,6.507
				l-11.041,8.304l-1.834-2.439c-1.89-2.5-3.808-2.602-5.521-1.317c-1.713,1.29-2.141,3.174-0.261,5.674L154.26,230.943z"/>
		</g>
		<g>
			<defs>
				
					<rect id="SVGID_65_" x="-60.262" y="35.07" transform="matrix(-0.6018 -0.7987 0.7987 -0.6018 67.8182 589.088)" width="482.07" height="485.132"/>
			</defs>
			<clipPath id="SVGID_66_">
				<use xlink:href="#SVGID_65_"  overflow="visible"/>
			</clipPath>
			
				<rect x="149.588" y="192.781" transform="matrix(-0.6018 -0.7987 0.7987 -0.6018 122.0395 460.2271)" clip-path="url(#SVGID_66_)" fill="#58585A" width="52.338" height="13.815"/>
		</g>
		<g>
			<defs>
				<rect id="SVGID_67_" y="0.02" width="482.05" height="485.111"/>
			</defs>
			<clipPath id="SVGID_68_">
				<use xlink:href="#SVGID_67_"  overflow="visible"/>
			</clipPath>
			<path clip-path="url(#SVGID_68_)" fill="#58585A" d="M217.295,201.157l-31.494-41.814l12.41-9.342
				c8.918-6.731,15.873-7.215,23.19,2.518c7.28,9.654,6.256,15.272-3.845,22.888l-1.909,1.429l12.279,16.292L217.295,201.157z
				 M209.773,169.04c3.538-2.672,4.636-4.501,1.126-9.161c-2.989-3.957-4.627-4.092-8.76-0.973L209.773,169.04z"/>
		</g>
		<g>
			<defs>
				<rect id="SVGID_69_" y="0.02" width="482.05" height="485.111"/>
			</defs>
			<clipPath id="SVGID_70_">
				<use xlink:href="#SVGID_69_"  overflow="visible"/>
			</clipPath>
			<polygon clip-path="url(#SVGID_70_)" fill="#58585A" points="246.564,179.099 215.061,137.298 238.958,119.28 245.447,127.905 
				232.581,137.601 237.934,144.704 248.576,136.698 255.326,145.658 244.693,153.674 250.828,161.815 264.355,151.626 
				271.115,160.596 			"/>
		</g>
		<g>
			<defs>
				<rect id="SVGID_71_" y="0.02" width="482.05" height="485.111"/>
			</defs>
			<clipPath id="SVGID_72_">
				<use xlink:href="#SVGID_71_"  overflow="visible"/>
			</clipPath>
			<path clip-path="url(#SVGID_72_)" fill="#58585A" d="M277.166,138.322c1.898,2.504,3.826,2.611,5.529,1.322
				c1.703-1.285,2.141-3.17,0.251-5.679l-3.108-4.129l-2.766,2.081l-5.884-7.801l13.797-10.39l17.503,23.232l-5.65,4.25l-3.24-1.02
				c-0.811,3.71-2.598,6.512-5.885,9.002c-10.967,8.253-16.924,4.706-29.334-11.758c-11.889-15.785-12.476-24.47-1.834-32.486
				c5.894-4.464,12.885-6.247,18.76-2.439c1.806,1.177,3.593,3.123,6.125,6.498l-11.041,8.313l-1.824-2.449
				c-1.898-2.5-3.809-2.593-5.529-1.308c-1.703,1.28-2.142,3.166-0.252,5.665L277.166,138.322z"/>
		</g>
		<g>
			<defs>
				<rect id="SVGID_73_" y="0.02" width="482.05" height="485.111"/>
			</defs>
			<clipPath id="SVGID_74_">
				<use xlink:href="#SVGID_73_"  overflow="visible"/>
			</clipPath>
			<polygon clip-path="url(#SVGID_74_)" fill="#58585A" points="308.912,132.113 277.417,90.299 288.429,82 319.953,123.799 			"/>
		</g>
		<g>
			<defs>
				<rect id="SVGID_75_" y="0.02" width="482.05" height="485.111"/>
			</defs>
			<clipPath id="SVGID_76_">
				<use xlink:href="#SVGID_75_"  overflow="visible"/>
			</clipPath>
			<path clip-path="url(#SVGID_76_)" fill="#58585A" d="M340.208,108.527l-31.512-41.81l12.418-9.342
				c8.938-6.731,15.883-7.215,23.209,2.518c7.279,9.654,6.236,15.268-3.863,22.888l-1.9,1.429l12.289,16.292L340.208,108.527z
				 M332.677,76.414c3.537-2.672,4.637-4.511,1.137-9.161c-2.988-3.957-4.627-4.092-8.762-0.973L332.677,76.414z"/>
		</g>
		<g>
			<defs>
				<rect id="SVGID_77_" y="0.02" width="482.05" height="485.111"/>
			</defs>
			<clipPath id="SVGID_78_">
				<use xlink:href="#SVGID_77_"  overflow="visible"/>
			</clipPath>
			<polygon clip-path="url(#SVGID_78_)" fill="#58585A" points="369.478,86.473 337.974,44.668 361.882,26.654 368.38,35.279 
				355.503,44.976 360.869,52.079 371.5,44.068 378.257,53.028 367.617,61.048 373.751,69.189 387.279,58.996 394.039,67.97 			"/>
		</g>
	</g>
	<g>
		<g>
			<defs>
				<rect id="SVGID_79_" y="0.02" width="482.05" height="484.525"/>
			</defs>
			<clipPath id="SVGID_80_">
				<use xlink:href="#SVGID_79_"  overflow="visible"/>
			</clipPath>
			<path clip-path="url(#SVGID_80_)" fill="#58585A" d="M400.097,45.697c1.871,2.504,3.809,2.611,5.512,1.322
				c1.693-1.285,2.15-3.175,0.271-5.679l-3.129-4.128l-2.766,2.076l-5.865-7.797L407.9,21.102l17.502,23.232l-5.633,4.25l-3.25-1.02
				c-0.811,3.71-2.605,6.521-5.875,8.998c-10.965,8.258-16.924,4.711-29.334-11.753c-11.906-15.784-12.482-24.47-1.844-32.485
				c5.902-4.464,12.896-6.247,18.732-2.444c1.842,1.182,3.602,3.128,6.162,6.502l-11.041,8.313l-1.834-2.448
				c-1.898-2.5-3.816-2.593-5.529-1.308c-1.705,1.275-2.133,3.166-0.262,5.66L400.097,45.697z"/>
		</g>
		<g>
			<defs>
				<rect id="SVGID_81_" y="0.02" width="482.05" height="484.525"/>
			</defs>
			<clipPath id="SVGID_82_">
				<use xlink:href="#SVGID_81_"  overflow="visible"/>
			</clipPath>
			<polygon clip-path="url(#SVGID_82_)" fill="#58585A" points="431.816,39.487 400.322,-2.317 411.363,-10.626 442.857,31.174 			
				"/>
		</g>
		<g>
			<defs>
				<rect id="SVGID_83_" y="0.02" width="482.05" height="484.525"/>
			</defs>
			<clipPath id="SVGID_84_">
				<use xlink:href="#SVGID_83_"  overflow="visible"/>
			</clipPath>
			<path clip-path="url(#SVGID_84_)" fill="#58585A" d="M463.125,15.901l-31.494-41.8l12.4-9.352
				c8.928-6.721,15.881-7.219,23.197,2.514c7.281,9.659,6.268,15.272-3.861,22.892l-1.881,1.438l12.277,16.292L463.125,15.901z
				 M455.591-16.216c3.557-2.667,4.654-4.487,1.137-9.151c-2.979-3.966-4.617-4.096-8.762-0.968L455.591-16.216z"/>
		</g>
		<g>
			<defs>
				<rect id="SVGID_85_" y="0.02" width="482.05" height="484.525"/>
			</defs>
			<clipPath id="SVGID_86_">
				<use xlink:href="#SVGID_85_"  overflow="visible"/>
			</clipPath>
			<polygon clip-path="url(#SVGID_86_)" fill="#58585A" points="-18.153,467.147 -49.657,425.346 -25.759,407.34 -19.271,415.952 
				-32.136,425.643 -26.774,432.756 -16.152,424.75 -9.393,433.706 -20.025,441.731 -13.88,449.868 -0.363,439.682 6.396,448.639 
							"/>
		</g>
		<g>
			<defs>
				<rect id="SVGID_87_" y="0.02" width="482.05" height="484.525"/>
			</defs>
			<clipPath id="SVGID_88_">
				<use xlink:href="#SVGID_87_"  overflow="visible"/>
			</clipPath>
			<path clip-path="url(#SVGID_88_)" fill="#58585A" d="M12.457,426.379c1.88,2.494,3.798,2.598,5.521,1.313
				c1.694-1.283,2.141-3.174,0.251-5.668l-3.119-4.125l-2.765,2.066l-5.865-7.803l13.778-10.389L37.76,425.01l-5.632,4.244
				l-3.249-1.006c-0.81,3.697-2.606,6.518-5.884,8.984c-10.957,8.258-16.915,4.721-29.334-11.758
				c-11.898-15.771-12.475-24.467-1.834-32.48c5.902-4.459,12.894-6.248,18.74-2.449c1.834,1.191,3.603,3.129,6.145,6.518
				L5.68,405.368l-1.834-2.438c-1.899-2.495-3.817-2.606-5.53-1.322c-1.704,1.285-2.132,3.185-0.251,5.679L12.457,426.379z"/>
		</g>
	</g>
	<g>
		<g>
			<defs>
				<rect id="SVGID_89_" y="0.02" width="482.05" height="485.111"/>
			</defs>
			<clipPath id="SVGID_90_">
				<use xlink:href="#SVGID_89_"  overflow="visible"/>
			</clipPath>
			<polygon clip-path="url(#SVGID_90_)" fill="#58585A" points="44.193,420.17 12.689,378.36 23.73,370.057 55.225,411.856 			"/>
		</g>
		<g>
			<defs>
				<rect id="SVGID_91_" y="0.02" width="482.05" height="485.111"/>
			</defs>
			<clipPath id="SVGID_92_">
				<use xlink:href="#SVGID_91_"  overflow="visible"/>
			</clipPath>
			<path clip-path="url(#SVGID_92_)" fill="#58585A" d="M75.482,396.588l-31.504-41.81l12.419-9.347
				c8.928-6.74,15.873-7.215,23.2,2.514c7.28,9.645,6.256,15.268-3.854,22.883l-1.908,1.435l12.289,16.292L75.482,396.588z
				 M67.96,364.471c3.547-2.682,4.636-4.516,1.126-9.161c-2.979-3.966-4.617-4.087-8.76-0.978L67.96,364.471z"/>
		</g>
		<g>
			<defs>
				<rect id="SVGID_93_" y="0.02" width="482.05" height="485.111"/>
			</defs>
			<clipPath id="SVGID_94_">
				<use xlink:href="#SVGID_93_"  overflow="visible"/>
			</clipPath>
			<polygon clip-path="url(#SVGID_94_)" fill="#58585A" points="104.77,374.516 73.257,332.715 97.155,314.711 103.653,323.333 
				90.778,333.022 96.14,340.135 106.781,332.12 113.53,341.075 102.899,349.101 109.034,357.247 122.551,347.053 129.31,356.018 
							"/>
		</g>
		<g>
			<defs>
				<rect id="SVGID_95_" y="0.02" width="482.05" height="485.111"/>
			</defs>
			<clipPath id="SVGID_96_">
				<use xlink:href="#SVGID_95_"  overflow="visible"/>
			</clipPath>
			<path clip-path="url(#SVGID_96_)" fill="#58585A" d="M135.371,333.758c1.89,2.494,3.808,2.598,5.521,1.304
				c1.694-1.284,2.142-3.165,0.261-5.66l-3.119-4.134l-2.765,2.066l-5.874-7.801l13.797-10.391l17.502,23.236l-5.642,4.246
				l-3.258-1.016c-0.81,3.714-2.598,6.525-5.875,9.002c-10.967,8.248-16.925,4.711-29.334-11.758
				c-11.897-15.779-12.484-24.475-1.843-32.48c5.912-4.459,12.903-6.256,18.74-2.449c1.834,1.184,3.603,3.129,6.153,6.509
				l-11.041,8.304l-1.834-2.439c-1.89-2.494-3.808-2.596-5.53-1.313c-1.704,1.294-2.132,3.176-0.251,5.67L135.371,333.758z"/>
		</g>
		<g>
			<defs>
				<rect id="SVGID_97_" y="0.02" width="482.05" height="485.111"/>
			</defs>
			<clipPath id="SVGID_98_">
				<use xlink:href="#SVGID_97_"  overflow="visible"/>
			</clipPath>
			<polygon clip-path="url(#SVGID_98_)" fill="#58585A" points="167.107,327.54 135.604,285.73 146.645,277.436 178.148,319.235 			
				"/>
		</g>
		<g>
			<defs>
				<rect id="SVGID_99_" y="0.02" width="482.05" height="485.111"/>
			</defs>
			<clipPath id="SVGID_100_">
				<use xlink:href="#SVGID_99_"  overflow="visible"/>
			</clipPath>
			<path clip-path="url(#SVGID_100_)" fill="#58585A" d="M198.415,303.958l-31.494-41.799l12.4-9.355
				c8.928-6.74,15.873-7.217,23.19,2.513c7.29,9.654,6.266,15.269-3.845,22.884l-1.899,1.442l12.279,16.292L198.415,303.958z
				 M190.884,271.85c3.547-2.682,4.646-4.516,1.126-9.16c-2.988-3.966-4.618-4.098-8.76-0.979L190.884,271.85z"/>
		</g>
		<g>
			<defs>
				<rect id="SVGID_101_" y="0.02" width="482.05" height="485.111"/>
			</defs>
			<clipPath id="SVGID_102_">
				<use xlink:href="#SVGID_101_"  overflow="visible"/>
			</clipPath>
			<polygon clip-path="url(#SVGID_102_)" fill="#58585A" points="227.675,281.895 196.181,240.09 220.079,222.085 226.567,230.701 
				213.702,240.397 219.055,247.515 229.677,239.49 236.436,248.445 225.804,256.479 231.958,264.625 245.464,254.422 
				252.244,263.396 			"/>
		</g>
		<g>
			<defs>
				<rect id="SVGID_103_" y="0.02" width="482.05" height="485.111"/>
			</defs>
			<clipPath id="SVGID_104_">
				<use xlink:href="#SVGID_103_"  overflow="visible"/>
			</clipPath>
			<path clip-path="url(#SVGID_104_)" fill="#58585A" d="M258.285,241.124c1.881,2.5,3.817,2.611,5.521,1.317
				c1.703-1.285,2.143-3.175,0.271-5.67l-3.129-4.128l-2.766,2.066l-5.855-7.797l13.771-10.389l17.502,23.232l-5.634,4.25
				l-3.258-1.014c-0.811,3.704-2.598,6.516-5.883,8.992c-10.968,8.258-16.926,4.721-29.335-11.754
				c-11.888-15.775-12.465-24.47-1.834-32.49c5.921-4.45,12.903-6.242,18.759-2.439c1.807,1.182,3.594,3.128,6.125,6.512
				l-11.014,8.304l-1.854-2.443c-1.879-2.495-3.807-2.602-5.51-1.313c-1.724,1.285-2.151,3.175-0.271,5.669L258.285,241.124z"/>
		</g>
		<g>
			<defs>
				<rect id="SVGID_105_" y="0.02" width="482.05" height="485.111"/>
			</defs>
			<clipPath id="SVGID_106_">
				<use xlink:href="#SVGID_105_"  overflow="visible"/>
			</clipPath>
			<polygon clip-path="url(#SVGID_106_)" fill="#58585A" points="290.021,234.918 258.527,193.104 269.541,184.8 301.052,226.605 
							"/>
		</g>
		<g>
			<defs>
				<rect id="SVGID_107_" y="0.02" width="482.05" height="485.111"/>
			</defs>
			<clipPath id="SVGID_108_">
				<use xlink:href="#SVGID_107_"  overflow="visible"/>
			</clipPath>
			<path clip-path="url(#SVGID_108_)" fill="#58585A" d="M321.32,211.337l-31.503-41.8l12.409-9.356
				c8.938-6.726,15.883-7.215,23.209,2.519c7.279,9.659,6.236,15.263-3.863,22.878l-1.891,1.443l12.279,16.292L321.32,211.337z
				 M313.789,179.219c3.539-2.667,4.646-4.506,1.137-9.161c-2.988-3.957-4.627-4.087-8.76-0.973L313.789,179.219z"/>
		</g>
		<g>
			<defs>
				<rect id="SVGID_109_" y="0.02" width="482.05" height="485.111"/>
			</defs>
			<clipPath id="SVGID_110_">
				<use xlink:href="#SVGID_109_"  overflow="visible"/>
			</clipPath>
			<polygon clip-path="url(#SVGID_110_)" fill="#58585A" points="350.589,189.283 319.085,147.479 343.001,129.46 349.492,138.09 
				336.617,147.786 341.978,154.884 352.611,146.878 359.369,155.838 348.726,163.858 354.863,172 368.388,161.806 375.148,170.775 
							"/>
		</g>
		<g>
			<defs>
				<rect id="SVGID_111_" y="0.02" width="482.05" height="485.111"/>
			</defs>
			<clipPath id="SVGID_112_">
				<use xlink:href="#SVGID_111_"  overflow="visible"/>
			</clipPath>
			<path clip-path="url(#SVGID_112_)" fill="#58585A" d="M381.208,148.502c1.881,2.509,3.807,2.602,5.512,1.327
				c1.693-1.285,2.15-3.175,0.27-5.684l-3.127-4.124l-2.766,2.076l-5.865-7.806l13.777-10.394l17.502,23.241l-5.633,4.254
				l-3.248-1.029c-0.811,3.715-2.605,6.521-5.875,8.998c-10.967,8.257-16.924,4.72-29.334-11.753
				c-11.906-15.78-12.482-24.461-1.844-32.491c5.902-4.45,12.895-6.242,18.74-2.439c1.834,1.192,3.594,3.137,6.152,6.512
				l-11.041,8.313l-1.834-2.453c-1.889-2.495-3.814-2.593-5.529-1.303c-1.703,1.275-2.133,3.165-0.26,5.66L381.208,148.502z"/>
		</g>
		<g>
			<defs>
				<rect id="SVGID_113_" y="0.02" width="482.05" height="485.111"/>
			</defs>
			<clipPath id="SVGID_114_">
				<use xlink:href="#SVGID_113_"  overflow="visible"/>
			</clipPath>
			<polygon clip-path="url(#SVGID_114_)" fill="#58585A" points="412.945,142.298 381.431,100.484 392.472,92.18 423.958,133.984 
							"/>
		</g>
	</g>
	<g>
		<g>
			<defs>
				<rect id="SVGID_115_" y="0.02" width="482.05" height="484.525"/>
			</defs>
			<clipPath id="SVGID_116_">
				<use xlink:href="#SVGID_115_"  overflow="visible"/>
			</clipPath>
			<path clip-path="url(#SVGID_116_)" fill="#58585A" d="M444.236,118.712l-31.504-41.814l12.428-9.342
				c8.908-6.731,15.863-7.215,23.182,2.519c7.279,9.659,6.266,15.263-3.846,22.878l-1.908,1.438l12.289,16.301L444.236,118.712z
				 M436.72,86.594c3.539-2.667,4.627-4.51,1.117-9.161c-2.979-3.957-4.617-4.091-8.76-0.973L436.72,86.594z"/>
		</g>
		<g>
			<defs>
				<rect id="SVGID_117_" y="0.02" width="482.05" height="484.525"/>
			</defs>
			<clipPath id="SVGID_118_">
				<use xlink:href="#SVGID_117_"  overflow="visible"/>
			</clipPath>
			<polygon clip-path="url(#SVGID_118_)" fill="#58585A" points="473.513,96.653 442.019,54.853 465.908,36.834 472.396,45.464 
				459.531,55.16 464.882,62.259 475.513,54.252 482.273,63.213 471.632,71.229 477.794,79.37 491.302,69.18 498.062,78.15 			"/>
		</g>
		<g>
			<defs>
				<rect id="SVGID_119_" y="0.02" width="482.05" height="484.525"/>
			</defs>
			<clipPath id="SVGID_120_">
				<use xlink:href="#SVGID_119_"  overflow="visible"/>
			</clipPath>
			<path clip-path="url(#SVGID_120_)" fill="#58585A" d="M504.115,55.877c1.896,2.509,3.826,2.602,5.527,1.327
				c1.705-1.29,2.143-3.175,0.252-5.684l-3.107-4.129l-2.768,2.081l-5.883-7.811l13.797-10.39l17.502,23.242l-5.65,4.254
				l-3.238-1.02c-0.811,3.705-2.598,6.517-5.885,8.998c-10.967,8.244-16.924,4.706-29.334-11.762
				c-11.889-15.78-12.477-24.466-1.844-32.491c5.902-4.45,12.912-6.242,18.76-2.439c1.814,1.191,3.602,3.137,6.135,6.507
				l-11.041,8.313l-1.826-2.448c-1.896-2.5-3.807-2.593-5.527-1.308c-1.713,1.28-2.143,3.165-0.252,5.665L504.115,55.877z"/>
		</g>
		<g>
			<defs>
				<rect id="SVGID_121_" y="0.02" width="482.05" height="484.525"/>
			</defs>
			<clipPath id="SVGID_122_">
				<use xlink:href="#SVGID_121_"  overflow="visible"/>
			</clipPath>
			<polygon clip-path="url(#SVGID_122_)" fill="#58585A" points="25.304,522.985 -6.2,481.184 4.841,472.862 36.326,514.663 			"/>
		</g>
		<g>
			<defs>
				<rect id="SVGID_123_" y="0.02" width="482.05" height="484.525"/>
			</defs>
			<clipPath id="SVGID_124_">
				<use xlink:href="#SVGID_123_"  overflow="visible"/>
			</clipPath>
			<path clip-path="url(#SVGID_124_)" fill="#58585A" d="M56.603,499.395l-31.504-41.801l12.419-9.348
				c8.928-6.738,15.864-7.223,23.2,2.496c7.271,9.664,6.256,15.275-3.863,22.9l-1.909,1.436l12.289,16.291L56.603,499.395z
				 M49.08,467.276c3.547-2.682,4.636-4.506,1.136-9.16c-2.988-3.947-4.626-4.088-8.77-0.969L49.08,467.276z"/>
		</g>
	</g>
	<g>
		<g>
			<defs>
				<rect id="SVGID_125_" y="0.02" width="482.05" height="485.111"/>
			</defs>
			<clipPath id="SVGID_126_">
				<use xlink:href="#SVGID_125_"  overflow="visible"/>
			</clipPath>
			<polygon clip-path="url(#SVGID_126_)" fill="#58585A" points="85.881,477.331 54.368,435.53 78.275,417.517 84.764,426.147 
				71.907,435.846 77.26,442.942 87.892,434.926 94.651,443.891 84.01,451.915 90.154,460.051 103.671,449.868 110.43,458.823 			
				"/>
		</g>
		<g>
			<defs>
				<rect id="SVGID_127_" y="0.02" width="482.05" height="485.111"/>
			</defs>
			<clipPath id="SVGID_128_">
				<use xlink:href="#SVGID_127_"  overflow="visible"/>
			</clipPath>
			<path clip-path="url(#SVGID_128_)" fill="#58585A" d="M116.481,436.555c1.899,2.514,3.817,2.615,5.521,1.33
				c1.704-1.283,2.142-3.174,0.27-5.688l-3.128-4.113l-2.755,2.066l-5.875-7.803l13.788-10.389l17.502,23.227l-5.642,4.256
				l-3.258-1.006c-0.801,3.705-2.588,6.518-5.865,8.992c-10.976,8.248-16.934,4.711-29.344-11.768
				c-11.888-15.771-12.475-24.455-1.843-32.49c5.912-4.449,12.903-6.236,18.75-2.438c1.825,1.19,3.612,3.128,6.154,6.517
				l-11.042,8.306l-1.834-2.438c-1.89-2.496-3.817-2.599-5.521-1.305c-1.722,1.285-2.15,3.165-0.261,5.66L116.481,436.555z"/>
		</g>
		<g>
			<defs>
				<rect id="SVGID_129_" y="0.02" width="482.05" height="485.111"/>
			</defs>
			<clipPath id="SVGID_130_">
				<use xlink:href="#SVGID_129_"  overflow="visible"/>
			</clipPath>
			<polygon clip-path="url(#SVGID_130_)" fill="#58585A" points="148.227,430.354 116.714,388.555 127.755,380.231 159.259,422.042 
							"/>
		</g>
		<g>
			<defs>
				<rect id="SVGID_131_" y="0.02" width="482.05" height="485.111"/>
			</defs>
			<clipPath id="SVGID_132_">
				<use xlink:href="#SVGID_131_"  overflow="visible"/>
			</clipPath>
			<path clip-path="url(#SVGID_132_)" fill="#58585A" d="M179.526,406.764l-31.494-41.801l12.4-9.346
				c8.928-6.73,15.873-7.226,23.199,2.504c7.28,9.653,6.256,15.276-3.854,22.893l-1.899,1.434l12.279,16.293L179.526,406.764z
				 M171.995,374.646c3.547-2.671,4.646-4.505,1.136-9.16c-2.988-3.946-4.627-4.077-8.76-0.968L171.995,374.646z"/>
		</g>
		<g>
			<defs>
				<rect id="SVGID_133_" y="0.02" width="482.05" height="485.111"/>
			</defs>
			<clipPath id="SVGID_134_">
				<use xlink:href="#SVGID_133_"  overflow="visible"/>
			</clipPath>
			<polygon clip-path="url(#SVGID_134_)" fill="#58585A" points="208.795,384.7 177.292,342.909 201.189,324.896 207.678,333.517 
				194.822,343.217 200.175,350.311 210.806,342.305 217.565,351.26 206.934,359.286 213.068,367.422 226.586,357.237 
				233.335,366.193 			"/>
		</g>
		<g>
			<defs>
				<rect id="SVGID_135_" y="0.02" width="482.05" height="485.111"/>
			</defs>
			<clipPath id="SVGID_136_">
				<use xlink:href="#SVGID_135_"  overflow="visible"/>
			</clipPath>
			<path clip-path="url(#SVGID_136_)" fill="#58585A" d="M239.396,343.934c1.89,2.504,3.816,2.615,5.521,1.331
				c1.703-1.294,2.142-3.185,0.27-5.688l-3.127-4.123l-2.765,2.065l-5.855-7.802l13.769-10.391l17.502,23.237l-5.631,4.245
				l-3.26-1.006c-0.791,3.705-2.598,6.517-5.865,8.992c-10.976,8.248-16.934,4.711-29.353-11.758
				c-11.879-15.779-12.457-24.465-1.815-32.49c5.902-4.449,12.884-6.246,18.73-2.438c1.815,1.19,3.603,3.119,6.154,6.509
				l-11.032,8.303l-1.853-2.438c-1.881-2.493-3.798-2.588-5.511-1.304c-1.704,1.285-2.142,3.166-0.261,5.66L239.396,343.934z"/>
		</g>
		<g>
			<defs>
				<rect id="SVGID_137_" y="0.02" width="482.05" height="485.111"/>
			</defs>
			<clipPath id="SVGID_138_">
				<use xlink:href="#SVGID_137_"  overflow="visible"/>
			</clipPath>
			<polygon clip-path="url(#SVGID_138_)" fill="#58585A" points="271.132,337.725 239.638,295.924 250.669,287.62 282.173,329.42 
							"/>
		</g>
		<g>
			<defs>
				<rect id="SVGID_139_" y="0.02" width="482.05" height="485.111"/>
			</defs>
			<clipPath id="SVGID_140_">
				<use xlink:href="#SVGID_139_"  overflow="visible"/>
			</clipPath>
			<path clip-path="url(#SVGID_140_)" fill="#58585A" d="M302.431,314.143l-31.485-41.809l12.392-9.348
				c8.938-6.722,15.883-7.215,23.209,2.514c7.279,9.664,6.256,15.276-3.863,22.893l-1.898,1.434l12.289,16.293L302.431,314.143z
				 M294.9,282.025c3.557-2.672,4.637-4.506,1.137-9.161c-2.988-3.955-4.609-4.087-8.762-0.979L294.9,282.025z"/>
		</g>
		<g>
			<defs>
				<rect id="SVGID_141_" y="0.02" width="482.05" height="485.111"/>
			</defs>
			<clipPath id="SVGID_142_">
				<use xlink:href="#SVGID_141_"  overflow="visible"/>
			</clipPath>
			<polygon clip-path="url(#SVGID_142_)" fill="#58585A" points="331.701,292.088 300.197,250.29 324.113,232.275 330.601,240.905 
				317.736,250.586 323.089,257.689 333.72,249.684 340.478,258.648 329.837,266.655 335.972,274.801 349.5,264.606 
				356.259,273.581 			"/>
		</g>
		<g>
			<defs>
				<rect id="SVGID_143_" y="0.02" width="482.05" height="485.111"/>
			</defs>
			<clipPath id="SVGID_144_">
				<use xlink:href="#SVGID_143_"  overflow="visible"/>
			</clipPath>
			<path clip-path="url(#SVGID_144_)" fill="#58585A" d="M362.32,251.313c1.898,2.514,3.809,2.607,5.512,1.322
				c1.713-1.285,2.15-3.176,0.27-5.68l-3.127-4.133l-2.748,2.086l-5.883-7.808l13.797-10.389l17.492,23.232l-5.641,4.256
				l-3.25-1.025c-0.811,3.705-2.605,6.518-5.873,9.002c-10.967,8.259-16.926,4.701-29.336-11.758
				c-11.889-15.784-12.484-24.469-1.842-32.485c5.9-4.464,12.893-6.247,18.738-2.439c1.834,1.178,3.594,3.124,6.154,6.498
				l-11.041,8.313l-1.834-2.439c-1.9-2.509-3.818-2.602-5.531-1.317c-1.703,1.29-2.131,3.165-0.242,5.674L362.32,251.313z"/>
		</g>
		<g>
			<defs>
				<rect id="SVGID_145_" y="0.02" width="482.05" height="485.111"/>
			</defs>
			<clipPath id="SVGID_146_">
				<use xlink:href="#SVGID_145_"  overflow="visible"/>
			</clipPath>
			<polygon clip-path="url(#SVGID_146_)" fill="#58585A" points="394.056,245.094 362.542,203.299 373.583,194.995 405.08,236.785 
							"/>
		</g>
		<g>
			<defs>
				<rect id="SVGID_147_" y="0.02" width="482.05" height="485.111"/>
			</defs>
			<clipPath id="SVGID_148_">
				<use xlink:href="#SVGID_147_"  overflow="visible"/>
			</clipPath>
			<path clip-path="url(#SVGID_148_)" fill="#58585A" d="M425.345,221.522l-31.484-41.805l12.408-9.351
				c8.93-6.722,15.863-7.215,23.199,2.518c7.271,9.659,6.248,15.272-3.854,22.888l-1.918,1.419l12.289,16.306L425.345,221.522z
				 M417.833,189.404c3.537-2.667,4.635-4.506,1.117-9.161c-2.98-3.957-4.617-4.087-8.742-0.973L417.833,189.404z"/>
		</g>
	</g>
	<g>
		<g>
			<defs>
				<rect id="SVGID_149_" y="0.02" width="482.05" height="484.525"/>
			</defs>
			<clipPath id="SVGID_150_">
				<use xlink:href="#SVGID_149_"  overflow="visible"/>
			</clipPath>
			<polygon clip-path="url(#SVGID_150_)" fill="#58585A" points="454.625,199.458 423.128,157.668 447.017,139.658 453.505,148.279 
				440.66,157.961 446.011,165.064 456.634,157.058 463.384,166.019 452.761,174.034 458.908,182.185 472.416,171.995 
				479.173,180.965 			"/>
		</g>
		<g>
			<defs>
				<rect id="SVGID_151_" y="0.02" width="482.05" height="484.525"/>
			</defs>
			<clipPath id="SVGID_152_">
				<use xlink:href="#SVGID_151_"  overflow="visible"/>
			</clipPath>
			<path clip-path="url(#SVGID_152_)" fill="#58585A" d="M485.224,158.687c1.898,2.514,3.826,2.611,5.529,1.322
				c1.703-1.285,2.141-3.17,0.271-5.679l-3.129-4.128l-2.766,2.076l-5.865-7.796l13.779-10.39l17.502,23.232l-5.65,4.25l-3.24-1.021
				c-0.791,3.71-2.598,6.521-5.865,9.002c-10.984,8.253-16.943,4.706-29.352-11.758c-11.891-15.784-12.477-24.47-1.834-32.485
				c5.91-4.464,12.9-6.247,18.758-2.444c1.807,1.182,3.594,3.128,6.125,6.502l-11.021,8.313l-1.844-2.439
				c-1.881-2.509-3.807-2.602-5.512-1.317c-1.703,1.29-2.158,3.166-0.27,5.674L485.224,158.687z"/>
		</g>
		<g>
			<defs>
				<rect id="SVGID_153_" y="0.02" width="482.05" height="484.525"/>
			</defs>
			<clipPath id="SVGID_154_">
				<use xlink:href="#SVGID_153_"  overflow="visible"/>
			</clipPath>
			<path clip-path="url(#SVGID_154_)" fill="#58585A" d="M160.627,509.579l-31.494-41.818l12.41-9.338
				c8.918-6.729,15.873-7.215,23.19,2.523c7.29,9.652,6.256,15.268-3.845,22.883l-1.908,1.434l12.289,16.291L160.627,509.579z
				 M153.096,477.461c3.547-2.662,4.646-4.506,1.136-9.162c-2.988-3.955-4.627-4.096-8.76-0.967L153.096,477.461z"/>
		</g>
		<g>
			<defs>
				<rect id="SVGID_155_" y="0.02" width="482.05" height="484.525"/>
			</defs>
			<clipPath id="SVGID_156_">
				<use xlink:href="#SVGID_155_"  overflow="visible"/>
			</clipPath>
			<polygon clip-path="url(#SVGID_156_)" fill="#58585A" points="189.897,487.516 158.393,445.715 182.3,427.711 188.798,436.331 
				175.923,446.022 181.286,453.135 191.908,445.12 198.667,454.075 188.035,462.1 194.17,470.237 207.697,460.051 214.456,469.018 
							"/>
		</g>
	</g>
	<g>
		<g>
			<defs>
				<rect id="SVGID_157_" y="0.02" width="482.05" height="485.111"/>
			</defs>
			<clipPath id="SVGID_158_">
				<use xlink:href="#SVGID_157_"  overflow="visible"/>
			</clipPath>
			<path clip-path="url(#SVGID_158_)" fill="#58585A" d="M220.516,446.739c1.89,2.514,3.798,2.617,5.521,1.332
				c1.694-1.295,2.132-3.174,0.251-5.689l-3.119-4.115l-2.765,2.066l-5.865-7.801l13.778-10.391l17.502,23.236l-5.633,4.256
				l-3.258-1.016c-0.81,3.705-2.588,6.498-5.883,8.994c-10.958,8.248-16.916,4.709-29.344-11.76
				c-11.879-15.779-12.457-24.475-1.815-32.48c5.902-4.469,12.894-6.246,18.74-2.438c1.834,1.173,3.603,3.118,6.144,6.498
				l-11.032,8.306l-1.834-2.439c-1.899-2.504-3.817-2.598-5.53-1.313c-1.704,1.293-2.132,3.164-0.261,5.668L220.516,446.739z"/>
		</g>
		<g>
			<defs>
				<rect id="SVGID_159_" y="0.02" width="482.05" height="485.111"/>
			</defs>
			<clipPath id="SVGID_160_">
				<use xlink:href="#SVGID_159_"  overflow="visible"/>
			</clipPath>
			<polygon clip-path="url(#SVGID_160_)" fill="#58585A" points="252.244,440.54 220.749,398.739 231.771,390.417 263.275,432.225 
							"/>
		</g>
		<g>
			<defs>
				<rect id="SVGID_161_" y="0.02" width="482.05" height="485.111"/>
			</defs>
			<clipPath id="SVGID_162_">
				<use xlink:href="#SVGID_161_"  overflow="visible"/>
			</clipPath>
			<path clip-path="url(#SVGID_162_)" fill="#58585A" d="M283.542,416.948l-31.504-41.809l12.41-9.338
				c8.938-6.74,15.883-7.225,23.209,2.514c7.279,9.654,6.246,15.268-3.863,22.883l-1.908,1.443l12.298,16.292L283.542,416.948z
				 M276.009,384.831c3.539-2.662,4.638-4.506,1.137-9.16c-2.988-3.947-4.627-4.088-8.76-0.959L276.009,384.831z"/>
		</g>
		<g>
			<defs>
				<rect id="SVGID_163_" y="0.02" width="482.05" height="485.111"/>
			</defs>
			<clipPath id="SVGID_164_">
				<use xlink:href="#SVGID_163_"  overflow="visible"/>
			</clipPath>
			<polygon clip-path="url(#SVGID_164_)" fill="#58585A" points="312.81,394.895 281.307,353.084 305.224,335.081 311.712,343.702 
				298.847,353.401 304.201,360.514 314.832,352.489 321.589,361.454 310.951,369.47 317.083,377.625 330.621,367.422 
				337.378,376.396 			"/>
		</g>
		<g>
			<defs>
				<rect id="SVGID_165_" y="0.02" width="482.05" height="485.111"/>
			</defs>
			<clipPath id="SVGID_166_">
				<use xlink:href="#SVGID_165_"  overflow="visible"/>
			</clipPath>
			<path clip-path="url(#SVGID_166_)" fill="#58585A" d="M343.429,354.118c1.881,2.506,3.809,2.616,5.514,1.322
				c1.693-1.285,2.148-3.175,0.26-5.679l-3.119-4.124l-2.764,2.074l-5.865-7.801l13.777-10.39l17.502,23.228l-5.633,4.254
				l-3.25-1.015c-0.809,3.705-2.605,6.517-5.873,8.993c-10.967,8.258-16.926,4.721-29.334-11.748
				c-11.906-15.789-12.484-24.477-1.844-32.49c5.902-4.469,12.895-6.246,18.73-2.438c1.844,1.173,3.604,3.128,6.162,6.507
				l-11.041,8.305l-1.834-2.447c-1.891-2.496-3.816-2.59-5.521-1.305c-1.713,1.284-2.141,3.166-0.27,5.66L343.429,354.118z"/>
		</g>
		<g>
			<defs>
				<rect id="SVGID_167_" y="0.02" width="482.05" height="485.111"/>
			</defs>
			<clipPath id="SVGID_168_">
				<use xlink:href="#SVGID_167_"  overflow="visible"/>
			</clipPath>
			<polygon clip-path="url(#SVGID_168_)" fill="#58585A" points="375.158,347.918 343.654,306.109 354.695,297.805 386.179,339.596 
							"/>
		</g>
		<g>
			<defs>
				<rect id="SVGID_169_" y="0.02" width="482.05" height="485.111"/>
			</defs>
			<clipPath id="SVGID_170_">
				<use xlink:href="#SVGID_169_"  overflow="visible"/>
			</clipPath>
			<path clip-path="url(#SVGID_170_)" fill="#58585A" d="M406.457,324.318l-31.484-41.8l12.391-9.348
				c8.93-6.721,15.883-7.225,23.199,2.515c7.289,9.663,6.266,15.269-3.863,22.901l-1.891,1.434l12.289,16.292L406.457,324.318z
				 M398.943,292.209c3.539-2.672,4.646-4.496,1.117-9.16c-2.979-3.957-4.617-4.088-8.76-0.959L398.943,292.209z"/>
		</g>
	</g>
	<g>
		<g>
			<defs>
				<rect id="SVGID_171_" y="0.02" width="482.05" height="484.525"/>
			</defs>
			<clipPath id="SVGID_172_">
				<use xlink:href="#SVGID_171_"  overflow="visible"/>
			</clipPath>
			<polygon clip-path="url(#SVGID_172_)" fill="#58585A" points="435.736,302.273 404.222,260.463 428.128,242.459 434.619,251.088 
				421.751,260.771 427.105,267.883 437.746,259.859 444.496,268.833 433.865,276.84 440,284.995 453.525,274.792 460.285,283.766 
							"/>
		</g>
		<g>
			<defs>
				<rect id="SVGID_173_" y="0.02" width="482.05" height="484.525"/>
			</defs>
			<clipPath id="SVGID_174_">
				<use xlink:href="#SVGID_173_"  overflow="visible"/>
			</clipPath>
			<path clip-path="url(#SVGID_174_)" fill="#58585A" d="M466.335,261.497c1.898,2.514,3.807,2.607,5.51,1.322
				c1.725-1.283,2.16-3.165,0.271-5.679l-3.127-4.124l-2.746,2.076l-5.885-7.803l13.797-10.384l17.502,23.222l-5.65,4.256
				l-3.24-1.016c-0.811,3.715-2.598,6.525-5.883,8.983c-10.967,8.267-16.926,4.729-29.336-11.749
				c-11.887-15.789-12.475-24.47-1.842-32.481c5.902-4.459,12.893-6.242,18.768-2.439c1.807,1.173,3.594,3.119,6.125,6.502
				l-11.041,8.313l-1.824-2.453c-1.898-2.504-3.826-2.602-5.529-1.313c-1.713,1.285-2.141,3.166-0.252,5.669L466.335,261.497z"/>
		</g>
		<g>
			<defs>
				<rect id="SVGID_175_" y="0.02" width="482.05" height="484.525"/>
			</defs>
			<clipPath id="SVGID_176_">
				<use xlink:href="#SVGID_175_"  overflow="visible"/>
			</clipPath>
			<polygon clip-path="url(#SVGID_176_)" fill="#58585A" points="498.082,255.297 466.585,213.479 477.599,205.179 509.113,246.975 
							"/>
		</g>
		<g>
			<defs>
				<rect id="SVGID_177_" y="0.02" width="482.05" height="484.525"/>
			</defs>
			<clipPath id="SVGID_178_">
				<use xlink:href="#SVGID_177_"  overflow="visible"/>
			</clipPath>
			<path clip-path="url(#SVGID_178_)" fill="#58585A" d="M264.662,519.764l-31.521-41.801l12.428-9.355
				c8.928-6.73,15.873-7.215,23.2,2.514c7.278,9.654,6.265,15.277-3.864,22.883l-1.898,1.443l12.289,16.291L264.662,519.764z
				 M257.13,487.647c3.537-2.674,4.627-4.508,1.127-9.16c-2.988-3.957-4.627-4.098-8.762-0.971L257.13,487.647z"/>
		</g>
		<g>
			<defs>
				<rect id="SVGID_179_" y="0.02" width="482.05" height="484.525"/>
			</defs>
			<clipPath id="SVGID_180_">
				<use xlink:href="#SVGID_179_"  overflow="visible"/>
			</clipPath>
			<polygon clip-path="url(#SVGID_180_)" fill="#58585A" points="293.921,497.7 262.417,455.901 286.333,437.897 292.824,446.516 
				279.958,456.208 285.311,463.311 295.942,455.286 302.701,464.26 292.06,472.286 298.205,480.42 311.732,470.227 318.49,479.202 
							"/>
		</g>
	</g>
	<g>
		<g>
			<defs>
				<rect id="SVGID_181_" y="0.02" width="482.05" height="485.111"/>
			</defs>
			<clipPath id="SVGID_182_">
				<use xlink:href="#SVGID_181_"  overflow="visible"/>
			</clipPath>
			<path clip-path="url(#SVGID_182_)" fill="#58585A" d="M324.542,456.924c1.879,2.514,3.807,2.615,5.51,1.322
				c1.713-1.285,2.15-3.166,0.271-5.68l-3.127-4.115l-2.748,2.066l-5.883-7.801l13.777-10.391l17.502,23.236l-5.633,4.244
				l-3.24-1.014c-0.816,3.715-2.613,6.508-5.883,9.002c-10.967,8.248-16.924,4.711-29.334-11.758
				c-11.889-15.789-12.484-24.477-1.844-32.49c5.902-4.459,12.895-6.246,18.73-2.448c1.844,1.19,3.604,3.138,6.162,6.517
				l-11.041,8.305l-1.834-2.449c-1.891-2.494-3.816-2.596-5.52-1.303c-1.713,1.285-2.143,3.166-0.271,5.66L324.542,456.924z"/>
		</g>
		<g>
			<defs>
				<rect id="SVGID_183_" y="0.02" width="482.05" height="485.111"/>
			</defs>
			<clipPath id="SVGID_184_">
				<use xlink:href="#SVGID_183_"  overflow="visible"/>
			</clipPath>
			<polygon clip-path="url(#SVGID_184_)" fill="#58585A" points="356.259,450.723 324.763,408.915 335.806,400.61 367.3,442.401 			
				"/>
		</g>
		<g>
			<defs>
				<rect id="SVGID_185_" y="0.02" width="482.05" height="485.111"/>
			</defs>
			<clipPath id="SVGID_186_">
				<use xlink:href="#SVGID_185_"  overflow="visible"/>
			</clipPath>
			<path clip-path="url(#SVGID_186_)" fill="#58585A" d="M387.568,427.133l-31.484-41.801l12.391-9.354
				c8.928-6.713,15.881-7.215,23.199,2.522c7.289,9.662,6.266,15.268-3.836,22.883l-1.918,1.434l12.289,16.303L387.568,427.133z
				 M380.054,395.016c3.537-2.663,4.637-4.497,1.117-9.161c-2.979-3.956-4.617-4.087-8.762-0.968L380.054,395.016z"/>
		</g>
		<g>
			<defs>
				<rect id="SVGID_187_" y="0.02" width="482.05" height="485.111"/>
			</defs>
			<clipPath id="SVGID_188_">
				<use xlink:href="#SVGID_187_"  overflow="visible"/>
			</clipPath>
			<polygon clip-path="url(#SVGID_188_)" fill="#58585A" points="416.845,405.088 385.333,363.27 409.24,345.265 415.728,353.895 
				402.863,363.586 408.224,370.68 418.847,362.674 425.607,371.648 414.964,379.654 421.128,387.792 434.636,377.606 
				441.394,386.571 			"/>
		</g>
	</g>
	<g>
		<g>
			<defs>
				<rect id="SVGID_189_" y="0.02" width="482.05" height="484.525"/>
			</defs>
			<clipPath id="SVGID_190_">
				<use xlink:href="#SVGID_189_"  overflow="visible"/>
			</clipPath>
			<path clip-path="url(#SVGID_190_)" fill="#58585A" d="M447.457,364.293c1.881,2.522,3.816,2.617,5.529,1.332
				c1.693-1.285,2.133-3.166,0.232-5.688l-3.102-4.114l-2.766,2.086l-5.873-7.812l13.787-10.397l17.502,23.235l-5.65,4.265
				l-3.24-1.025c-0.809,3.707-2.598,6.519-5.883,8.994c-10.957,8.258-16.916,4.711-29.334-11.748
				c-11.891-15.789-12.477-24.477-1.834-32.491c5.9-4.468,12.883-6.246,18.748-2.438c1.814,1.174,3.604,3.129,6.137,6.508
				l-11.033,8.313l-1.834-2.457c-1.898-2.495-3.826-2.598-5.529-1.305c-1.703,1.285-2.133,3.166-0.252,5.66L447.457,364.293z"/>
		</g>
		<g>
			<defs>
				<rect id="SVGID_191_" y="0.02" width="482.05" height="484.525"/>
			</defs>
			<clipPath id="SVGID_192_">
				<use xlink:href="#SVGID_191_"  overflow="visible"/>
			</clipPath>
			<polygon clip-path="url(#SVGID_192_)" fill="#58585A" points="479.193,358.094 447.679,316.293 458.71,307.989 490.224,349.79 
							"/>
		</g>
		<g>
			<defs>
				<rect id="SVGID_193_" y="0.02" width="482.05" height="484.525"/>
			</defs>
			<clipPath id="SVGID_194_">
				<use xlink:href="#SVGID_193_"  overflow="visible"/>
			</clipPath>
			<path clip-path="url(#SVGID_194_)" fill="#58585A" d="M510.492,334.502l-31.504-41.799l12.41-9.348
				c8.936-6.723,15.881-7.225,23.209,2.514c7.26,9.664,6.264,15.269-3.865,22.883l-1.898,1.435l12.289,16.302L510.492,334.502z
				 M502.958,302.385c3.537-2.662,4.637-4.496,1.137-9.16c-2.988-3.947-4.627-4.087-8.762-0.959L502.958,302.385z"/>
		</g>
		<g>
			<defs>
				<rect id="SVGID_195_" y="0.02" width="482.05" height="484.525"/>
			</defs>
			<clipPath id="SVGID_196_">
				<use xlink:href="#SVGID_195_"  overflow="visible"/>
			</clipPath>
			<path clip-path="url(#SVGID_196_)" fill="#58585A" d="M375.808,524.577l-31.492-41.811l12.398-9.346
				c8.938-6.723,15.883-7.215,23.209,2.512c7.279,9.664,6.266,15.27-3.863,22.895l-1.898,1.434l12.289,16.301L375.808,524.577z
				 M368.287,492.459c3.547-2.672,4.627-4.498,1.127-9.152c-2.988-3.965-4.627-4.096-8.76-0.986L368.287,492.459z"/>
		</g>
		<g>
			<defs>
				<rect id="SVGID_197_" y="0.02" width="482.05" height="484.525"/>
			</defs>
			<clipPath id="SVGID_198_">
				<use xlink:href="#SVGID_197_"  overflow="visible"/>
			</clipPath>
			<polygon clip-path="url(#SVGID_198_)" fill="#58585A" points="405.097,502.522 373.576,460.704 397.492,442.708 403.98,451.329 
				391.115,461.022 396.466,468.133 407.097,460.118 413.857,469.083 403.216,477.098 409.351,485.245 422.878,475.04 
				429.636,484.006 			"/>
		</g>
	</g>
	<g>
		<g>
			<defs>
				<rect id="SVGID_199_" y="0.02" width="482.05" height="485.111"/>
			</defs>
			<clipPath id="SVGID_200_">
				<use xlink:href="#SVGID_199_"  overflow="visible"/>
			</clipPath>
			<path clip-path="url(#SVGID_200_)" fill="#58585A" d="M435.699,461.747c1.879,2.504,3.807,2.605,5.51,1.322
				c1.705-1.285,2.15-3.176,0.271-5.68l-3.129-4.135l-2.766,2.086l-5.863-7.801l13.795-10.391l17.504,23.219l-5.65,4.264
				l-3.25-1.023c-0.811,3.705-2.605,6.535-5.873,9.002c-10.967,8.258-16.926,4.721-29.336-11.758
				c-11.906-15.789-12.484-24.467-1.842-32.49c5.9-4.449,12.893-6.236,18.729-2.439c1.844,1.191,3.604,3.119,6.164,6.518
				l-11.041,8.305l-1.834-2.439c-1.891-2.514-3.818-2.615-5.531-1.33c-1.703,1.293-2.131,3.176-0.26,5.688L435.699,461.747z"/>
		</g>
	</g>
	<g>
		<g>
			<defs>
				<rect id="SVGID_201_" y="0.02" width="482.05" height="485.111"/>
			</defs>
			<clipPath id="SVGID_202_">
				<use xlink:href="#SVGID_201_"  overflow="visible"/>
			</clipPath>
			<path clip-path="url(#SVGID_202_)" fill="#FFFFFF" d="M361.027,152.161c0,65.302-52.916,118.218-118.214,118.218
				c-65.288,0-118.213-52.917-118.213-118.218c0-65.292,52.925-118.208,118.213-118.208
				C308.111,33.953,361.027,86.869,361.027,152.161"/>
		</g>
		<g>
			<defs>
				<rect id="SVGID_203_" y="0.02" width="482.05" height="485.111"/>
			</defs>
			<clipPath id="SVGID_204_">
				<use xlink:href="#SVGID_203_"  overflow="visible"/>
			</clipPath>
			<path clip-path="url(#SVGID_204_)" fill="none" stroke="#000000" stroke-width="0.981" d="M267.707,62.854
				c-0.037,0.191-0.074,0.382-0.094,0.572 M267.511,63.981c0.019-0.135,0.056-0.266,0.074-0.4 M224.575,229.78
				c-4.636,14.532-8.928,27.193-12.494,36.494 M240.28,177.241c5.343-18.913,10.529-38.276,14.989-56.234 M269.354,39.385
				c0.493,3.664-0.13,14.644-1.647,23.47 M255.269,121.007c5.381-21.743,9.719-41.418,11.953-55.569
				c0.027-0.112,0.056-0.247,0.064-0.363 M267.511,63.981c-0.084,0.373-0.141,0.735-0.225,1.094 M267.613,63.427
				c-0.009,0.047-0.02,0.107-0.027,0.154 M240.28,177.241c-5.269,18.573-10.688,36.693-15.705,52.539 M264.895,64.283
				c0.801,0.261,1.601,0.508,2.394,0.792 M159.557,81.301c10.79-9.151,22.51-15.375,34.688-19.103 M329.187,103.351
				c9.348,9.268,17.018,19.322,22.344,29.563 M159.557,81.301c-10.259,8.695-19.671,20.021-27.817,34.445 M351.531,132.914
				c4.617,8.867,7.445,17.837,8.164,26.56 M269.365,65.792c-0.681-0.237-1.369-0.484-2.076-0.717 M329.187,103.351
				c-15.52-15.394-35.712-28.59-57.664-36.777 M271.523,66.574c-0.734-0.256-1.434-0.526-2.158-0.782 M263.228,63.744
				c-22.557-6.95-46.547-8.439-68.983-1.545 M263.228,63.744c0.559,0.172,1.117,0.363,1.667,0.54 M268.432,64.535
				c-0.231-0.326-0.466-0.642-0.718-0.963 M268.432,64.535c0.298,0.428,0.644,0.838,0.933,1.257 M273.227,266.348
				c3.752-10.65,7.047-21.941,9.821-33.565 M283.048,232.782c4.311-18,7.279-36.829,8.574-55.462 M267.326,63.045
				c0.092,0.116,0.194,0.261,0.287,0.381 M291.623,177.32c1.295-18.563,0.932-36.894-1.563-54.005 M233.875,35.801
				c14.606,5.474,24.53,15.398,33.449,27.245 M267.714,63.571c-0.036-0.037-0.073-0.098-0.103-0.145 M290.058,123.315
				c-3.174-21.957-9.803-41.842-20.693-57.524 M171.678,203.354c-3.901,13.681-6.479,26.481-7.55,37.424 M305.353,53.191
				c-13.796-1.108-25.313,3.603-37.646,9.664 M266.162,63.627c-0.42,0.219-0.848,0.428-1.267,0.656 M306.964,54.904
				c0.131,0,0.271,0.009,0.393,0.019 M264.895,64.283c-16.003,8.546-30.601,22.176-43.411,38.533 M221.484,102.816
				c-11.544,14.723-21.664,31.643-30.051,49.029 M171.678,203.354c4.71-16.482,11.385-34.217,19.755-51.51 M267.707,62.854
				c-0.121,0.07-0.261,0.125-0.381,0.191 M266.58,63.417c0.242-0.111,0.484-0.256,0.746-0.372 M266.58,63.417
				c-0.14,0.075-0.27,0.135-0.418,0.209 M328.218,215.825c-1.387,7.634-3.25,15.375-5.707,23.181 M194.905,46.144
				c-0.624,0.038-1.238,0.079-1.871,0.135 M271.523,66.574c-1.023-0.685-2.038-1.383-3.091-2.039 M328.218,215.825
				c3.5-19.536,3.604-38.337,0.811-55.885 M314.498,115.393c-10.371-20.058-25.146-36.777-42.975-48.819 M329.029,159.939
				c-2.578-16.055-7.551-31.047-14.531-44.546 M266.869,63.608c0.215,0.126,0.42,0.237,0.644,0.373 M268.432,64.535
				c-0.315-0.181-0.623-0.363-0.921-0.554 M266.58,63.417c0.104,0.065,0.205,0.126,0.289,0.191 M194.905,46.144
				c26.328-1.792,50.868,4.641,71.675,17.274 M195.185,45.296c14.421-6.293,30.321-9.821,47.069-9.821
				c23.917,0,46.148,7.159,64.71,19.429 M354.369,188.664c-6.162,19.466-17.27,36.74-31.855,50.341 M132.448,110.971
				c-5.027,13.085-7.802,27.272-7.802,42.117c0,64.948,52.655,117.598,117.608,117.598c31.029,0,59.248-12.02,80.257-31.68
				 M359.695,159.474c0.111-2.118,0.176-4.236,0.176-6.386c0-10.934-1.535-21.51-4.318-31.573 M132.448,110.971
				c6.796-17.725,17.744-33.365,31.671-45.771 M335.888,81.939c8.883,11.679,15.613,25.075,19.662,39.575 M354.369,188.664
				c2.961-9.277,4.768-19.075,5.326-29.19 M306.964,54.904c11.105,7.322,20.891,16.482,28.924,27.035 M195.185,45.296
				c-0.726,0.321-1.434,0.647-2.15,0.982 M193.034,46.279c-10.576,4.869-20.304,11.278-28.916,18.921 M328.218,215.825
				c-12.783,8.435-28.234,14.276-45.17,16.958 M328.218,215.825c10.947-7.257,19.932-16.408,26.15-27.161 M138.694,161.377
				c-7.354-16.347-9.831-33.784-6.247-50.407 M171.678,203.354c-14.663-11.944-26.011-26.467-32.984-41.977 M132.448,110.971
				c0.14-0.688,0.26-1.373,0.428-2.062 M224.575,229.78c0.298,0.064,0.605,0.172,0.912,0.237c19.896,4.92,39.575,5.623,57.562,2.765
				 M224.575,229.78c-20.286-5.148-38.234-14.5-52.897-26.425 M194.905,46.144c-1.48,4.422-1.815,9.715-0.661,16.055
				 M201.776,80.617c-3.854-6.266-6.452-12.536-7.522-18.303c0-0.042,0-0.088-0.009-0.116 M195.185,45.296
				c-0.112,0.275-0.177,0.573-0.279,0.847 M221.484,102.816c9.393,7.722,20.834,14.225,33.785,18.191 M329.187,103.351
				c4.627-5.958,7.158-13.136,6.701-21.412 M290.058,123.315c8.742-1.327,17.203-3.994,24.438-7.922 M329.187,103.351
				c-3.725,4.813-8.809,8.839-14.689,12.042 M221.484,102.816c-8.286-6.796-14.97-14.477-19.708-22.199 M255.269,121.007
				c1.07,0.326,2.122,0.698,3.221,0.982c9.682,2.593,20.825,2.975,31.568,1.327 M329.029,159.939
				c9.83-7.476,17.643-16.664,22.502-27.026 M351.531,132.914c1.666-3.556,3.006-7.243,3.945-11.06
				c0.027-0.112,0.037-0.219,0.074-0.34 M159.557,81.301c0.279-2.183,0.642-4.348,1.164-6.493c0.829-3.333,1.992-6.517,3.398-9.608
				 M240.28,177.241c17.585,4.245,35.265,3.91,51.343,0.079 M240.28,177.241c-0.186-0.047-0.373-0.075-0.549-0.121
				c-18.544-4.566-35.088-13.662-48.298-25.275 M163.411,112.046c5.25,14.472,14.998,28.361,28.022,39.798 M329.029,159.939
				c-10.512,8.006-23.35,14.034-37.406,17.381 M159.557,81.301c-1.257,10.096,0.177,20.556,3.854,30.745 M163.411,112.046
				c-10.901,13.364-19.522,29.725-24.717,49.331 M163.411,112.046c10.901-13.374,24.056-23.758,38.365-31.429 M138.694,161.377
				c-2.905,10.953-4.757,22.893-5.316,35.902 M263.228,63.744c0.986-0.047,1.955-0.088,2.934-0.117 M334.642,80.501
				c-17.168-11.442-41.307-17.502-66.928-16.93 M267.714,63.571c-0.045,0.009-0.084,0-0.129,0.009 M263.228,63.744
				c-20.676,1.084-42.098,6.498-61.452,16.874 M267.585,63.581c-0.242,0-0.476,0.019-0.717,0.028 M266.162,63.627
				c0.241,0,0.465-0.009,0.707-0.019"/>
		</g>
		<g>
			<defs>
				<rect id="SVGID_205_" y="0.02" width="482.05" height="485.111"/>
			</defs>
			<clipPath id="SVGID_206_">
				<use xlink:href="#SVGID_205_"  overflow="visible"/>
			</clipPath>
			<rect x="86.198" y="319.766" clip-path="url(#SVGID_206_)" fill="#FFFFFF" width="80.965" height="52.125"/>
		</g>
		<g>
			<defs>
				<rect id="SVGID_207_" y="0.02" width="482.05" height="485.111"/>
			</defs>
			<clipPath id="SVGID_208_">
				<use xlink:href="#SVGID_207_"  overflow="visible"/>
			</clipPath>
			<rect x="201.059" y="319.766" clip-path="url(#SVGID_208_)" fill="#FFFFFF" width="80.965" height="52.125"/>
		</g>
		<g>
			<defs>
				<rect id="SVGID_209_" y="0.02" width="482.05" height="485.111"/>
			</defs>
			<clipPath id="SVGID_210_">
				<use xlink:href="#SVGID_209_"  overflow="visible"/>
			</clipPath>
			<path clip-path="url(#SVGID_210_)" d="M83.879,375.856c-1.089,0-2.15-0.438-2.914-1.211c-0.782-0.764-1.219-1.844-1.219-2.904
				v-53.27c0-1.1,0.438-2.178,1.219-2.941c0.764-0.744,1.825-1.21,2.914-1.21h83.33c1.089,0,2.141,0.466,2.923,1.21
				c0.763,0.764,1.201,1.844,1.201,2.941v53.27c0,1.063-0.438,2.143-1.201,2.904c-0.782,0.773-1.834,1.211-2.923,1.211H83.879z
				 M87.994,367.588h75.082v-44.982H87.994V367.588z"/>
		</g>
		<g>
			<defs>
				<rect id="SVGID_211_" y="0.02" width="482.05" height="485.111"/>
			</defs>
			<clipPath id="SVGID_212_">
				<use xlink:href="#SVGID_211_"  overflow="visible"/>
			</clipPath>
			<rect x="114.704" y="377.959" clip-path="url(#SVGID_212_)" width="21.672" height="8.306"/>
		</g>
		<g>
			<defs>
				<rect id="SVGID_213_" y="0.02" width="482.05" height="485.111"/>
			</defs>
			<clipPath id="SVGID_214_">
				<use xlink:href="#SVGID_213_"  overflow="visible"/>
			</clipPath>
			<path clip-path="url(#SVGID_214_)" d="M93.003,392.474c-1.192,0-2.169-0.94-2.169-2.076c0-1.153,0.978-2.065,2.169-2.065h65.083
				c1.192,0,2.16,0.912,2.16,2.065c0,1.136-0.968,2.076-2.16,2.076H93.003z"/>
		</g>
		<g>
			<defs>
				<rect id="SVGID_215_" y="0.02" width="482.05" height="485.111"/>
			</defs>
			<clipPath id="SVGID_216_">
				<use xlink:href="#SVGID_215_"  overflow="visible"/>
			</clipPath>
			<rect x="318.974" y="319.766" clip-path="url(#SVGID_216_)" fill="#FFFFFF" width="80.967" height="52.125"/>
		</g>
		<g>
			<defs>
				<rect id="SVGID_217_" y="0.02" width="482.05" height="485.111"/>
			</defs>
			<clipPath id="SVGID_218_">
				<use xlink:href="#SVGID_217_"  overflow="visible"/>
			</clipPath>
			<path clip-path="url(#SVGID_218_)" d="M200.594,375.866c-1.089,0-2.16-0.447-2.933-1.211c-0.773-0.781-1.201-1.854-1.201-2.914
				v-53.27c0-1.1,0.428-2.17,1.201-2.951c0.772-0.734,1.843-1.2,2.933-1.2h83.339c1.08,0,2.141,0.466,2.914,1.21
				c0.763,0.771,1.21,1.844,1.21,2.941v53.27c0,1.063-0.447,2.133-1.21,2.914c-0.773,0.764-1.834,1.211-2.914,1.211H200.594z
				 M204.718,367.588h75.073l-0.01-44.982h-75.063V367.588z"/>
		</g>
		<g>
			<defs>
				<rect id="SVGID_219_" y="0.02" width="482.05" height="485.111"/>
			</defs>
			<clipPath id="SVGID_220_">
				<use xlink:href="#SVGID_219_"  overflow="visible"/>
			</clipPath>
			<rect x="231.417" y="377.959" clip-path="url(#SVGID_220_)" width="21.682" height="8.306"/>
		</g>
		<g>
			<defs>
				<rect id="SVGID_221_" y="0.02" width="482.05" height="485.111"/>
			</defs>
			<clipPath id="SVGID_222_">
				<use xlink:href="#SVGID_221_"  overflow="visible"/>
			</clipPath>
			<path clip-path="url(#SVGID_222_)" d="M209.717,392.474c-1.21,0-2.16-0.94-2.16-2.076c0-1.153,0.95-2.065,2.16-2.065h65.092
				c1.192,0,2.17,0.912,2.17,2.065c0,1.136-0.978,2.076-2.17,2.076H209.717z"/>
		</g>
		<g>
			<defs>
				<rect id="SVGID_223_" y="0.02" width="482.05" height="485.111"/>
			</defs>
			<clipPath id="SVGID_224_">
				<use xlink:href="#SVGID_223_"  overflow="visible"/>
			</clipPath>
			<path clip-path="url(#SVGID_224_)" d="M317.308,375.856c-1.1,0-2.16-0.438-2.934-1.211c-0.764-0.764-1.211-1.844-1.211-2.904
				v-53.27c0-1.1,0.447-2.178,1.211-2.941c0.773-0.744,1.834-1.21,2.934-1.21h83.328c1.1,0,2.152,0.466,2.924,1.21
				c0.773,0.764,1.201,1.844,1.201,2.941v53.27c0,1.063-0.428,2.143-1.201,2.904c-0.771,0.773-1.824,1.211-2.924,1.211H317.308z
				 M321.441,367.588h75.055v-44.982h-75.055V367.588L321.441,367.588z"/>
		</g>
		<g>
			<defs>
				<rect id="SVGID_225_" y="0.02" width="482.05" height="485.111"/>
			</defs>
			<clipPath id="SVGID_226_">
				<use xlink:href="#SVGID_225_"  overflow="visible"/>
			</clipPath>
			<rect x="348.14" y="377.959" clip-path="url(#SVGID_226_)" width="21.664" height="8.306"/>
		</g>
		<g>
			<defs>
				<rect id="SVGID_227_" y="0.02" width="482.05" height="485.111"/>
			</defs>
			<clipPath id="SVGID_228_">
				<use xlink:href="#SVGID_227_"  overflow="visible"/>
			</clipPath>
			<path clip-path="url(#SVGID_228_)" d="M326.421,392.474c-1.201,0-2.15-0.94-2.15-2.076c0-1.153,0.949-2.065,2.15-2.065h65.104
				c1.189,0,2.158,0.912,2.158,2.065c0,1.136-0.969,2.076-2.158,2.076H326.421z"/>
		</g>
		<g>
			<defs>
				<rect id="SVGID_229_" y="0.02" width="482.05" height="485.111"/>
			</defs>
			<clipPath id="SVGID_230_">
				<use xlink:href="#SVGID_229_"  overflow="visible"/>
			</clipPath>
			<path clip-path="url(#SVGID_230_)" fill="none" stroke="#000000" stroke-width="0.981" d="M242.263,272.883v41.438
				 M125.54,314.32v-16.571h233.436v16.571"/>
		</g>
		<g>
			<defs>
				<rect id="SVGID_231_" y="0.02" width="482.05" height="485.111"/>
			</defs>
			<clipPath id="SVGID_232_">
				<use xlink:href="#SVGID_231_"  overflow="visible"/>
			</clipPath>
			<path clip-path="url(#SVGID_232_)" d="M361.027,152.166c0,65.302-52.916,118.213-118.214,118.213
				c-65.288,0-118.213-52.912-118.213-118.213S177.525,33.948,242.813,33.948C308.111,33.948,361.027,86.864,361.027,152.166"/>
		</g>
		<g>
			<defs>
				<rect id="SVGID_233_" y="0.02" width="482.05" height="485.111"/>
			</defs>
			<clipPath id="SVGID_234_">
				<use xlink:href="#SVGID_233_"  overflow="visible"/>
			</clipPath>
			<path clip-path="url(#SVGID_234_)" fill="none" stroke="#FFFFFF" stroke-width="8" d="M267.707,62.859
				c-0.037,0.182-0.074,0.373-0.094,0.573 M267.511,63.985c0.019-0.135,0.056-0.265,0.074-0.4 M224.575,229.766
				c-4.636,14.557-8.928,27.207-12.494,36.498 M240.28,177.246c5.343-18.912,10.529-38.286,14.989-56.234 M269.354,39.39
				c0.493,3.649-0.13,14.644-1.647,23.469 M255.269,121.011c5.381-21.742,9.719-41.423,11.953-55.569
				c0.027-0.112,0.056-0.247,0.064-0.363 M267.511,63.985c-0.084,0.373-0.141,0.736-0.225,1.094 M267.613,63.432
				c-0.009,0.046-0.02,0.107-0.027,0.154 M240.28,177.246c-5.269,18.573-10.688,36.694-15.705,52.52 M264.895,64.288
				c0.801,0.261,1.601,0.507,2.394,0.792 M159.557,81.297c10.79-9.142,22.51-15.366,34.688-19.104 M329.187,103.346
				c9.348,9.277,17.018,19.332,22.344,29.572 M159.557,81.297c-10.259,8.704-19.671,20.02-27.817,34.44 M351.531,132.918
				c4.617,8.867,7.445,17.828,8.164,26.56 M269.365,65.796c-0.681-0.237-1.369-0.484-2.076-0.717 M329.187,103.346
				c-15.52-15.384-35.712-28.58-57.664-36.768 M271.523,66.578c-0.734-0.256-1.434-0.526-2.158-0.782 M263.228,63.748
				c-22.557-6.95-46.547-8.448-68.983-1.555 M263.228,63.748c0.559,0.172,1.117,0.349,1.667,0.54 M268.432,64.54
				c-0.231-0.326-0.466-0.638-0.718-0.963 M268.432,64.54c0.298,0.419,0.644,0.829,0.933,1.257 M273.227,266.338
				c3.752-10.649,7.047-21.934,9.821-33.551 M283.048,232.787c4.311-18.009,7.279-36.838,8.574-55.462 M267.326,63.041
				c0.092,0.126,0.194,0.256,0.287,0.391 M291.623,177.325c1.295-18.563,0.932-36.903-1.563-54.004 M233.875,35.806
				c14.606,5.474,24.53,15.389,33.449,27.235 M267.714,63.576c-0.036-0.038-0.073-0.098-0.103-0.145 M290.058,123.32
				c-3.174-21.957-9.803-41.842-20.693-57.524 M171.678,203.359c-3.901,13.666-6.479,26.481-7.55,37.424 M305.353,53.196
				c-13.796-1.117-25.313,3.603-37.646,9.663 M266.162,63.632c-0.42,0.219-0.848,0.428-1.267,0.656 M306.964,54.899
				c0.131,0.009,0.271,0.019,0.393,0.028 M264.895,64.288c-16.003,8.542-30.601,22.175-43.411,38.537 M221.484,102.825
				c-11.544,14.718-21.664,31.639-30.051,49.015 M171.678,203.359c4.71-16.483,11.385-34.227,19.755-51.52 M267.707,62.859
				c-0.121,0.07-0.261,0.126-0.381,0.182 M266.58,63.422c0.242-0.125,0.484-0.256,0.746-0.382 M266.58,63.422
				c-0.14,0.079-0.27,0.135-0.418,0.209 M328.218,215.815c-1.387,7.629-3.25,15.379-5.707,23.204 M194.905,46.139
				c-0.624,0.037-1.238,0.074-1.871,0.135 M271.523,66.578c-1.023-0.693-2.038-1.382-3.091-2.039 M328.218,215.815
				c3.5-19.532,3.604-38.323,0.811-55.872 M314.498,115.388c-10.371-20.048-25.146-36.777-42.975-48.81 M329.029,159.944
				c-2.578-16.063-7.551-31.057-14.531-44.556 M266.869,63.604c0.215,0.135,0.42,0.247,0.644,0.381 M268.432,64.54
				c-0.315-0.182-0.623-0.373-0.921-0.554 M266.58,63.422c0.104,0.056,0.205,0.125,0.289,0.182 M194.905,46.139
				c26.328-1.783,50.868,4.641,71.675,17.283 M195.185,45.301c14.421-6.303,30.321-9.831,47.069-9.831
				c23.917,0,46.148,7.168,64.71,19.429 M354.369,188.668c-6.162,19.466-17.27,36.731-31.855,50.351 M132.448,110.961
				c-5.027,13.089-7.802,27.277-7.802,42.131c0,64.939,52.655,117.603,117.608,117.603c31.029,0,59.248-12.047,80.257-31.676
				 M359.695,159.479c0.111-2.118,0.176-4.245,0.176-6.386c0-10.934-1.535-21.529-4.318-31.574 M132.448,110.961
				c6.796-17.711,17.744-33.356,31.671-45.756 M335.888,81.944c8.883,11.679,15.613,25.066,19.662,39.575 M354.369,188.668
				c2.961-9.286,4.768-19.075,5.326-29.19 M306.964,54.899c11.105,7.322,20.891,16.492,28.924,27.044 M195.185,45.301
				c-0.726,0.312-1.434,0.647-2.15,0.973 M193.034,46.274c-10.576,4.878-20.304,11.279-28.916,18.931 M328.218,215.815
				c-12.783,8.439-28.234,14.281-45.17,16.971 M328.218,215.815c10.947-7.243,19.932-16.403,26.15-27.147 M138.694,161.373
				c-7.354-16.348-9.831-33.785-6.247-50.412 M171.678,203.359c-14.663-11.944-26.011-26.467-32.984-41.986 M132.448,110.961
				c0.14-0.675,0.26-1.359,0.428-2.039 M224.575,229.766c0.298,0.084,0.605,0.172,0.912,0.247
				c19.896,4.911,39.575,5.613,57.562,2.774 M224.575,229.766c-20.286-5.139-38.234-14.481-52.897-26.406 M194.905,46.139
				c-1.48,4.431-1.815,9.724-0.661,16.054 M201.776,80.622c-3.854-6.274-6.452-12.535-7.522-18.312c0-0.032,0-0.079-0.009-0.116
				 M195.185,45.301c-0.112,0.274-0.177,0.572-0.279,0.838 M221.484,102.825c9.393,7.718,20.834,14.22,33.785,18.186
				 M329.187,103.346c4.627-5.949,7.158-13.126,6.701-21.402 M290.058,123.32c8.742-1.336,17.203-3.994,24.438-7.932
				 M329.187,103.346c-3.725,4.813-8.809,8.849-14.689,12.042 M221.484,102.825c-8.286-6.81-14.97-14.495-19.708-22.204
				 M255.269,121.011c1.07,0.316,2.122,0.685,3.221,0.982c9.682,2.593,20.825,2.965,31.568,1.327 M329.029,159.944
				c9.83-7.485,17.643-16.673,22.502-27.025 M351.531,132.918c1.666-3.557,3.006-7.257,3.945-11.069
				c0.027-0.103,0.037-0.219,0.074-0.331 M159.557,81.297c0.279-2.174,0.642-4.338,1.164-6.484c0.829-3.333,1.992-6.526,3.398-9.607
				 M240.28,177.246c17.585,4.236,35.265,3.91,51.343,0.079 M240.28,177.246c-0.186-0.056-0.373-0.083-0.549-0.13
				c-18.544-4.566-35.088-13.652-48.298-25.275 M163.411,112.051c5.25,14.472,14.998,28.362,28.022,39.789 M329.029,159.944
				c-10.512,7.997-23.35,14.025-37.406,17.381 M159.557,81.297c-1.257,10.096,0.177,20.555,3.854,30.754 M163.411,112.051
				c-10.901,13.364-19.522,29.716-24.717,49.322 M163.411,112.051c10.901-13.373,24.056-23.767,38.365-31.429 M138.694,161.373
				c-2.905,10.953-4.757,22.892-5.316,35.902 M263.228,63.748c0.986-0.051,1.955-0.088,2.934-0.116 M334.642,80.505
				c-17.168-11.451-41.307-17.511-66.928-16.929 M267.714,63.576c-0.045,0.009-0.084,0-0.129,0.009 M263.228,63.748
				c-20.676,1.084-42.098,6.498-61.452,16.874 M267.585,63.585c-0.242,0-0.476,0.019-0.717,0.019 M266.162,63.632
				c0.241-0.009,0.465-0.009,0.707-0.028"/>
		</g>
		<g>
			<defs>
				<rect id="SVGID_235_" y="0.02" width="482.05" height="485.111"/>
			</defs>
			<clipPath id="SVGID_236_">
				<use xlink:href="#SVGID_235_"  overflow="visible"/>
			</clipPath>
			<rect x="86.198" y="319.747" clip-path="url(#SVGID_236_)" width="80.965" height="52.115"/>
		</g>
		<g>
			<defs>
				<rect id="SVGID_237_" y="0.02" width="482.05" height="485.111"/>
			</defs>
			<clipPath id="SVGID_238_">
				<use xlink:href="#SVGID_237_"  overflow="visible"/>
			</clipPath>
			<rect x="201.059" y="319.747" clip-path="url(#SVGID_238_)" width="80.965" height="52.115"/>
		</g>
		<g>
			<defs>
				<rect id="SVGID_239_" y="0.02" width="482.05" height="485.111"/>
			</defs>
			<clipPath id="SVGID_240_">
				<use xlink:href="#SVGID_239_"  overflow="visible"/>
			</clipPath>
			<path clip-path="url(#SVGID_240_)" fill="#FFFFFF" d="M83.879,375.856c-1.089,0-2.15-0.438-2.914-1.221
				c-0.782-0.771-1.219-1.834-1.219-2.903v-53.271c0-1.09,0.438-2.168,1.219-2.933c0.764-0.764,1.825-1.21,2.914-1.21h83.33
				c1.089,0,2.141,0.446,2.923,1.21c0.763,0.765,1.201,1.843,1.201,2.933v53.271c0,1.069-0.438,2.132-1.201,2.903
				c-0.782,0.783-1.834,1.221-2.923,1.221H83.879z M87.994,367.588h75.082v-44.992H87.994V367.588z"/>
		</g>
		<g>
			<defs>
				<rect id="SVGID_241_" y="0.02" width="482.05" height="485.111"/>
			</defs>
			<clipPath id="SVGID_242_">
				<use xlink:href="#SVGID_241_"  overflow="visible"/>
			</clipPath>
			<rect x="114.704" y="377.959" clip-path="url(#SVGID_242_)" fill="#FFFFFF" width="21.672" height="8.287"/>
		</g>
		<g>
			<defs>
				<rect id="SVGID_243_" y="0.02" width="482.05" height="485.111"/>
			</defs>
			<clipPath id="SVGID_244_">
				<use xlink:href="#SVGID_243_"  overflow="visible"/>
			</clipPath>
			<path clip-path="url(#SVGID_244_)" fill="#FFFFFF" d="M93.003,392.465c-1.192,0-2.169-0.932-2.169-2.067
				c0-1.135,0.978-2.085,2.169-2.085h65.083c1.192,0,2.16,0.949,2.16,2.085s-0.968,2.067-2.16,2.067H93.003z"/>
		</g>
		<g>
			<defs>
				<rect id="SVGID_245_" y="0.02" width="482.05" height="485.111"/>
			</defs>
			<clipPath id="SVGID_246_">
				<use xlink:href="#SVGID_245_"  overflow="visible"/>
			</clipPath>
			<rect x="318.974" y="319.747" clip-path="url(#SVGID_246_)" width="80.967" height="52.115"/>
		</g>
		<g>
			<defs>
				<rect id="SVGID_247_" y="0.02" width="482.05" height="485.111"/>
			</defs>
			<clipPath id="SVGID_248_">
				<use xlink:href="#SVGID_247_"  overflow="visible"/>
			</clipPath>
			<path clip-path="url(#SVGID_248_)" fill="#FFFFFF" d="M200.594,375.856c-1.089,0-2.16-0.438-2.933-1.211
				c-0.773-0.781-1.201-1.844-1.201-2.913v-53.278c0-1.08,0.428-2.16,1.201-2.924c0.772-0.764,1.843-1.22,2.933-1.22h83.339
				c1.08,0,2.141,0.456,2.914,1.22c0.763,0.764,1.21,1.844,1.21,2.924v53.278c0,1.069-0.447,2.132-1.21,2.913
				c-0.773,0.773-1.834,1.211-2.914,1.211H200.594z M204.718,367.588h75.073l-0.01-44.992h-75.063V367.588z"/>
		</g>
		<g>
			<defs>
				<rect id="SVGID_249_" y="0.02" width="482.05" height="485.111"/>
			</defs>
			<clipPath id="SVGID_250_">
				<use xlink:href="#SVGID_249_"  overflow="visible"/>
			</clipPath>
			<rect x="231.417" y="377.959" clip-path="url(#SVGID_250_)" fill="#FFFFFF" width="21.682" height="8.287"/>
		</g>
		<g>
			<defs>
				<rect id="SVGID_251_" y="0.02" width="482.05" height="485.111"/>
			</defs>
			<clipPath id="SVGID_252_">
				<use xlink:href="#SVGID_251_"  overflow="visible"/>
			</clipPath>
			<path clip-path="url(#SVGID_252_)" fill="#FFFFFF" d="M209.717,392.465c-1.21,0-2.16-0.932-2.16-2.067
				c0-1.135,0.95-2.085,2.16-2.085h65.092c1.192,0,2.17,0.949,2.17,2.085s-0.978,2.067-2.17,2.067H209.717z"/>
		</g>
		<g>
			<defs>
				<rect id="SVGID_253_" y="0.02" width="482.05" height="485.111"/>
			</defs>
			<clipPath id="SVGID_254_">
				<use xlink:href="#SVGID_253_"  overflow="visible"/>
			</clipPath>
			<path clip-path="url(#SVGID_254_)" fill="#FFFFFF" d="M317.308,375.856c-1.1,0-2.16-0.438-2.934-1.221
				c-0.764-0.771-1.211-1.834-1.211-2.903v-53.271c0-1.09,0.447-2.168,1.211-2.933c0.773-0.764,1.834-1.21,2.934-1.21h83.328
				c1.1,0,2.152,0.446,2.924,1.21c0.773,0.765,1.201,1.843,1.201,2.933v53.271c0,1.069-0.428,2.132-1.201,2.903
				c-0.771,0.783-1.824,1.221-2.924,1.221H317.308z M321.441,367.588h75.055v-44.992h-75.055V367.588L321.441,367.588z"/>
		</g>
		<g>
			<defs>
				<rect id="SVGID_255_" y="0.02" width="482.05" height="485.111"/>
			</defs>
			<clipPath id="SVGID_256_">
				<use xlink:href="#SVGID_255_"  overflow="visible"/>
			</clipPath>
			<rect x="348.14" y="377.959" clip-path="url(#SVGID_256_)" fill="#FFFFFF" width="21.664" height="8.287"/>
		</g>
		<g>
			<defs>
				<rect id="SVGID_257_" y="0.02" width="482.05" height="485.111"/>
			</defs>
			<clipPath id="SVGID_258_">
				<use xlink:href="#SVGID_257_"  overflow="visible"/>
			</clipPath>
			<path clip-path="url(#SVGID_258_)" fill="#FFFFFF" d="M326.421,392.465c-1.201,0-2.15-0.932-2.15-2.067
				c0-1.135,0.949-2.085,2.15-2.085h65.104c1.189,0,2.158,0.949,2.158,2.085s-0.969,2.067-2.158,2.067H326.421z"/>
		</g>
		<g>
			<defs>
				<rect id="SVGID_259_" y="0.02" width="482.05" height="485.111"/>
			</defs>
			<clipPath id="SVGID_260_">
				<use xlink:href="#SVGID_259_"  overflow="visible"/>
			</clipPath>
			<path clip-path="url(#SVGID_260_)" fill="none" stroke="#FFFFFF" stroke-width="8" d="M242.263,272.874v41.446 M125.54,314.32
				v-16.571h233.436v16.571"/>
		</g>
		<g>
			<defs>
				<rect id="SVGID_261_" y="0.02" width="482.05" height="485.111"/>
			</defs>
			<clipPath id="SVGID_262_">
				<use xlink:href="#SVGID_261_"  overflow="visible"/>
			</clipPath>
			<path clip-path="url(#SVGID_262_)" d="M0,484.536h484.517V0.01H0V484.536z M474.826,474.854H9.691V9.715h465.135V474.854
				L474.826,474.854z"/>
		</g>
		<g>
			<defs>
				<rect id="SVGID_263_" y="0.02" width="482.05" height="485.111"/>
			</defs>
			<clipPath id="SVGID_264_">
				<use xlink:href="#SVGID_263_"  overflow="visible"/>
			</clipPath>
			<rect x="0.01" y="407.016" clip-path="url(#SVGID_264_)" width="484.517" height="77.521"/>
		</g>
		<g>
			<defs>
				<rect id="SVGID_265_" y="0.02" width="482.05" height="485.111"/>
			</defs>
			<clipPath id="SVGID_266_">
				<use xlink:href="#SVGID_265_"  overflow="visible"/>
			</clipPath>
			<path clip-path="url(#SVGID_266_)" fill="#FFFFFF" d="M148.357,429.358c1.741-8.436,7.411-11.637,15.203-11.637
				c7.773,0,13.462,3.201,15.203,11.637c0.586,2.699,0.801,7.346,0.801,15.352s-0.214,12.662-0.801,15.342
				c-1.741,8.453-7.429,11.639-15.203,11.639c-7.792,0-13.461-3.186-15.203-11.639c-0.586-2.68-0.8-7.336-0.8-15.342
				S147.771,432.059,148.357,429.358 M160.357,456.571c0,3.127,1.304,4.355,3.203,4.355c1.89,0,3.193-1.229,3.193-4.355V432.85
				c0-3.119-1.304-4.357-3.193-4.357c-1.899,0-3.203,1.238-3.203,4.357V456.571z"/>
		</g>
		<g>
			<defs>
				<rect id="SVGID_267_" y="0.02" width="482.05" height="485.111"/>
			</defs>
			<clipPath id="SVGID_268_">
				<use xlink:href="#SVGID_267_"  overflow="visible"/>
			</clipPath>
			<polygon clip-path="url(#SVGID_268_)" fill="#FFFFFF" points="184.767,470.833 184.767,418.586 196.469,418.586 204.401,441.721 
				204.55,441.721 204.55,418.586 215.023,418.586 215.023,470.833 203.675,470.833 195.38,443.76 195.241,443.76 195.241,470.833 
							"/>
		</g>
		<g>
			<defs>
				<rect id="SVGID_269_" y="0.02" width="482.05" height="485.111"/>
			</defs>
			<clipPath id="SVGID_270_">
				<use xlink:href="#SVGID_269_"  overflow="visible"/>
			</clipPath>
			<polygon clip-path="url(#SVGID_270_)" fill="#FFFFFF" points="221.112,470.833 221.112,418.586 233.317,418.586 233.317,459.624 
				249.041,459.624 249.041,470.833 			"/>
		</g>
		<g>
			<defs>
				<rect id="SVGID_271_" y="0.02" width="482.05" height="485.111"/>
			</defs>
			<clipPath id="SVGID_272_">
				<use xlink:href="#SVGID_271_"  overflow="visible"/>
			</clipPath>
			<rect x="254.33" y="418.586" clip-path="url(#SVGID_272_)" fill="#FFFFFF" width="12.224" height="52.246"/>
		</g>
		<g>
			<defs>
				<rect id="SVGID_273_" y="0.02" width="482.05" height="485.111"/>
			</defs>
			<clipPath id="SVGID_274_">
				<use xlink:href="#SVGID_273_"  overflow="visible"/>
			</clipPath>
			<polygon clip-path="url(#SVGID_274_)" fill="#FFFFFF" points="273.582,470.833 273.582,418.586 285.3,418.586 293.233,441.721 
				293.373,441.721 293.373,418.586 303.845,418.586 303.845,470.833 292.498,470.833 284.203,443.76 284.063,443.76 
				284.063,470.833 			"/>
		</g>
		<g>
			<defs>
				<rect id="SVGID_275_" y="0.02" width="482.05" height="485.111"/>
			</defs>
			<clipPath id="SVGID_276_">
				<use xlink:href="#SVGID_275_"  overflow="visible"/>
			</clipPath>
			<polygon clip-path="url(#SVGID_276_)" fill="#FFFFFF" points="309.925,470.833 309.925,418.586 336.402,418.586 336.402,429.358 
				322.138,429.358 322.138,438.231 333.933,438.231 333.933,449.44 322.138,449.44 322.138,459.624 337.126,459.624 
				337.126,470.833 			"/>
		</g>
		<g>
			<defs>
				<rect id="SVGID_277_" y="0.02" width="482.05" height="485.111"/>
			</defs>
			<clipPath id="SVGID_278_">
				<use xlink:href="#SVGID_277_"  overflow="visible"/>
			</clipPath>
			<path clip-path="url(#SVGID_278_)" fill="#FFFFFF" d="M433.91,19.407v3.603h-7.66V47.28h-4.506V23.01h-7.672v-3.603H433.91z
				 M465.144,47.279h-4.516V25.323h-0.121l-7.736,21.957h-3.668l-7.336-21.957h-0.141V47.28h-4.496V19.407h7.15l6.953,20.732h0.131
				l6.76-20.732h7.02V47.279z"/>
		</g>
	</g>
</g>
</svg>
