<?xml version="1.0" encoding="UTF-8" standalone="no"?>
<!-- Created with Inkscape (http://www.inkscape.org/) -->
<svg xmlns="http://www.w3.org/2000/svg" width="654.69055" height="654.66614">
  <defs>
  </defs>
  <path style="fill:#000000" d="M 6.6504607,648.01568 L 6.6504607,6.6504607 L 648.04007,6.6504607 L 648.04007,648.01568 L 6.6504607,648.01568 z" />
  <g style="fill:#333333">
  <path d="M 502.52618,646.90893 L 535.42472,621.57131 L 544.38737,633.47493 L 526.01183,647.74731 L 503.36455,648.01568 L 502.52618,646.90893 z M 544.98621,648.01568 L 550.43123,643.91473 L 553.5208,648.01568 L 544.98621,648.01568 z" />
  <path d="M 563.79869,648.01568 L 540.80542,617.48366 L 573.97233,592.50535 L 582.95938,604.40897 L 564.37091,618.4285 L 571.58805,627.98999 L 588.97662,614.86207 L 597.60436,626.32433 L 580.18918,639.43894 L 586.6611,648.01568 L 563.79869,648.01568 z M 591.95973,648.01568 L 607.88446,636.03221 L 616.81828,647.98684 L 591.95973,648.01568 z" />
  <path d="M 643.69958,627.72384 L 601.51901,571.74775 L 616.09967,560.76456 L 648.04007,603.15806 L 648.04007,624.46127 L 643.69958,627.72384 z" />
  <path d="M 634.56615,572.53511 C 626.07148,561.23033 627.42885,550.47115 639.75832,541.21795 C 642.86121,538.88913 645.76447,537.18354 648.51914,536.13224 L 647.62753,550.77723 C 644.37827,553.20143 644.7908,556.71684 647.49446,560.13911 L 648.06668,580.89671 C 643.47335,580.41542 638.85341,578.23297 634.56615,572.53511 z" />
  <path d="M 345.97143,648.01568 L 342.65785,643.60643 L 375.83807,618.63033 L 384.81181,630.53174 L 366.23665,644.55349 L 368.84715,648.01568 L 345.97143,648.01568 z M 381.50931,648.01568 L 390.84236,640.98484 L 396.14099,648.01568 L 381.50931,648.01568 z" />
  <path d="M 406.42109,648.01568 L 381.22985,614.56931 L 414.38346,589.59099 L 423.38381,601.47909 L 404.79535,615.50084 L 412.01249,625.07342 L 429.40105,611.93219 L 438.00218,623.39666 L 420.64023,636.49797 L 429.02844,647.64085 L 448.3089,633.10232 L 457.26933,645.01925 L 453.28815,648.01568 L 406.42109,648.01568 z" />
  <path d="M 484.12402,624.79396 L 441.91683,568.82008 L 456.5108,557.83468 L 498.69138,613.80856 L 484.12402,624.79396 z" />
  <path d="M 493.08445,595.04931 L 491.60731,593.09088 L 506.45413,583.46507 C 510.32663,588.5907 513.58921,588.83024 516.39932,586.68772 C 519.40905,584.46314 519.35582,580.80355 517.02478,577.7539 C 508.6898,566.70196 489.95717,589.4446 475.0172,569.60523 C 466.48261,558.30044 467.87991,547.5701 480.16945,538.28807 C 492.85822,528.7288 502.23341,529.89986 511.27369,541.89664 L 496.89264,551.17867 C 494.15128,547.5568 490.74232,545.79798 487.9322,547.92941 C 484.80271,550.31146 485.21524,553.78696 487.09383,556.291 C 495.4288,567.34072 515.17503,544.00146 530.60516,564.43967 C 539.5789,576.36991 536.62462,586.95387 523.77616,596.61961 C 511.71284,605.73973 501.83197,606.66017 493.08445,595.04931 z" />
  <path d="M 548.8077,576.06162 L 506.62713,520.07444 L 539.79182,495.08281 L 548.76778,507.02636 L 530.17932,521.00597 L 537.39646,530.58077 L 554.81164,517.46615 L 563.41277,528.90179 L 546.0242,542.01641 L 563.38615,565.06513 L 548.8077,576.06162 z" />
  <path d="M 587.3664,546.99788 L 545.15921,491.02178 L 578.36604,466.03016 L 587.31317,477.97371 L 568.73801,491.95331 L 575.95516,501.51481 L 593.34372,488.4135 L 601.98477,499.84914 L 584.5829,512.97706 L 592.97111,524.09554 L 612.25157,509.55702 L 621.22531,521.48504 L 587.3664,546.99788 z" />
  <path d="M 648.04007,501.22204 L 605.85949,445.29917 L 620.45347,434.30268 L 648.04007,470.91626 L 648.04007,501.22204 z" />
  <path d="M 638.94656,446.05992 C 630.43858,434.75514 631.80926,424.02258 644.09881,414.76938 L 648.39937,411.86611 L 647.97353,453.368 C 644.88396,452.17032 641.84983,449.92134 638.94656,446.05992 z" />
  <path d="M 193.4134,631.18603 C 206.11548,621.59792 215.50175,622.77121 224.53094,634.76577 L 210.13658,644.0478 C 207.40853,640.42592 204.01288,638.68041 201.17615,640.79854 C 198.47249,642.86121 198.40596,645.73786 199.65909,648.01568 L 182.85606,648.01568 C 183.08228,642.00952 186.53116,636.3782 193.4134,631.18603 z" />
  <path d="M 246.29992,648.01568 L 219.88438,612.95687 L 253.03577,587.96525 L 262.02504,599.88218 L 243.43657,613.8884 L 250.65371,623.44989 L 268.05558,610.33528 L 276.67002,621.78423 L 259.26815,634.88554 L 269.1335,648.01568 L 246.29992,648.01568 z" />
  <path d="M 300.62366,639.867 L 258.44308,583.90422 L 291.59668,558.89929 L 300.58373,570.85614 L 282.00858,584.82466 L 289.1991,594.38393 L 306.60097,581.29593 L 315.22872,592.71827 L 297.82685,605.83288 L 306.22836,616.96467 L 325.49551,602.45276 L 334.49587,614.35638 L 300.62366,639.867 z" />
  <path d="M 361.35055,594.1444 L 319.14336,538.1683 L 333.72403,527.17181 L 375.93122,583.13238 L 361.35055,594.1444 z" />
  <path d="M 370.31099,564.39975 L 368.82054,562.45463 L 383.70506,552.8022 C 387.53986,557.91452 390.81574,558.16737 393.63917,556.03816 C 396.62006,553.78696 396.56683,550.15177 394.25131,547.07772 C 385.92964,536.02578 367.14157,558.76621 352.23043,538.94236 C 343.73576,527.63757 345.07983,516.90502 357.38268,507.63851 C 370.09807,498.05262 379.44442,499.23699 388.51353,511.23377 L 374.10586,520.51359 C 371.37559,516.8784 367.96885,515.16172 365.14543,517.27763 C 362.00263,519.63529 362.44178,523.12409 364.34698,525.63922 C 372.65534,536.67785 392.39934,513.31197 407.845,533.78789 C 416.80544,545.69152 413.86446,556.291 400.98717,565.98335 C 388.92607,575.09017 379.03189,576.00839 370.31099,564.39975 z" />
  <path d="M 426.01871,545.38544 L 383.83814,489.41157 L 416.99174,464.44656 L 425.96548,476.35018 L 407.40585,490.3431 L 414.62299,499.90237 L 432.01156,486.78776 L 440.6393,498.23892 L 423.25074,511.36685 L 440.61269,534.40226 L 426.01871,545.38544 z" />
  <path d="M 464.59294,516.3461 L 422.41236,460.37222 L 455.57705,435.3806 L 464.53971,447.28422 L 445.96455,461.30375 L 453.18169,470.87633 L 470.57025,457.7351 L 479.198,469.18627 L 461.80943,482.31419 L 470.18434,493.44598 L 489.47588,478.91854 L 498.45184,490.82217 L 464.59294,516.3461 z" />
  <path d="M 525.27991,470.61018 L 483.11264,414.623 L 497.7044,403.63981 L 539.87167,459.61369 L 525.27991,470.61018 z" />
  <path d="M 534.25365,440.86553 L 532.80313,438.89601 L 547.63442,429.28351 C 551.49583,434.38253 554.75841,434.63537 557.59514,432.50394 C 560.56273,430.25496 560.5095,426.61978 558.22059,423.55682 C 549.88562,412.49379 531.12416,435.23421 516.1731,415.38153 C 507.67843,404.10558 509.02249,393.35971 521.32534,384.0799 C 534.04073,374.52062 543.4137,375.69169 552.45398,387.68847 L 538.06184,396.98159 C 535.31826,393.3464 531.92483,391.60311 529.0881,393.73232 C 525.9586,396.1166 526.37113,399.6054 528.28964,402.10722 C 536.598,413.15916 556.35532,389.77776 571.77436,410.24259 C 580.7481,422.17283 577.80491,432.74348 564.94314,442.45135 C 552.86873,451.54486 542.98786,452.46309 534.25365,440.86553 z" />
  <path d="M 589.97469,421.84014 L 547.79411,365.89288 L 580.96102,340.88794 L 589.92146,352.81597 L 571.34852,366.8111 L 578.56566,376.37037 L 595.96753,363.26907 L 604.58197,374.70693 L 587.1934,387.80823 L 604.55535,410.86804 L 589.97469,421.84014 z" />
  <path d="M 628.52008,392.80079 L 586.3395,336.82692 L 619.51972,311.83529 L 628.46685,323.76553 L 609.90721,337.75845 L 617.12436,347.31772 L 634.51292,334.21641 L 643.14066,345.65427 L 625.7521,358.76889 L 634.14031,369.90067 L 648.04007,359.42096 L 648.04007,378.10036 L 628.52008,392.80079 z" />
  <path d="M 33.837836,628.25615 C 46.539916,618.67026 55.9151,619.85463 64.95538,631.86472 L 50.54771,641.11792 C 47.81966,637.49604 44.410704,635.76605 41.600588,637.88196 C 38.457782,640.25292 38.885842,643.73951 40.775518,646.27017 L 44.996237,648.01568 L 23.400261,648.01568 C 22.468731,640.89169 25.848855,634.27339 33.837836,628.25615 z M 54.32928,648.01568 C 60.65482,646.61616 67.9762,644.11434 75.06027,648.01568 L 54.32928,648.01568 z" />
  <path d="M 88.9068,648.01568 L 60.29551,610.02699 L 93.46242,585.03758 L 102.43616,596.9656 L 83.8477,610.94743 L 91.06484,620.52001 L 108.45341,607.4187 L 117.09446,618.85656 L 99.69259,631.97118 L 111.76921,648.01568 L 88.9068,648.01568 z" />
  <path d="M 141.03479,636.95043 L 98.8409,580.97655 L 132.00781,555.98493 L 140.99486,567.91517 L 122.4064,581.92139 L 129.61023,591.45405 L 147.02541,578.36605 L 155.65316,589.80391 L 138.23798,602.94514 L 146.62618,614.0614 L 165.91995,599.53618 L 174.89369,611.43981 L 141.03479,636.95043 z" />
  <path d="M 201.73507,591.22782 L 159.55449,535.24064 L 174.13516,524.24193 L 216.32904,580.24242 L 201.73507,591.22782 z" />
  <path d="M 210.70881,561.46986 L 209.21836,559.52696 L 224.09179,549.89893 C 227.93768,554.99795 231.21356,555.23748 234.02368,553.12158 C 237.0068,550.88369 236.96687,547.22411 234.64914,544.17445 C 226.32747,533.12251 207.56822,555.85185 192.61494,535.99917 C 184.10697,524.73431 185.49096,513.97735 197.79381,504.71084 C 210.49589,495.13604 219.85777,496.29602 228.89805,508.30389 L 214.50369,517.59923 C 211.77563,513.97735 208.37998,512.21853 205.54325,514.34996 C 202.41375,516.69209 202.8396,520.22082 204.73149,522.71155 C 213.05316,533.76128 232.81269,510.4087 248.24282,530.87353 C 257.20326,542.77716 254.24898,553.37442 241.40051,563.05347 C 229.32389,572.14919 219.44301,573.09403 210.70881,561.46986 z" />
  <path d="M 266.43206,542.46887 L 224.23818,486.5083 L 257.40287,461.51667 L 266.39214,473.40699 L 247.80367,487.43983 L 255.00751,496.98801 L 272.42269,483.8734 L 281.05043,495.30904 L 263.63525,508.43696 L 281.01051,531.48568 L 266.43206,542.46887 z" />
  <path d="M 304.97745,513.41843 L 262.79687,457.45564 L 295.96379,432.46402 L 304.93753,444.38095 L 286.34906,458.37608 L 293.5529,467.94867 L 310.96808,454.82074 L 319.59582,466.25639 L 302.19395,479.371 L 310.58216,490.50279 L 329.86261,475.99088 L 338.86297,487.8945 L 304.97745,513.41843 z" />
  <path d="M 365.71766,467.68252 L 323.49716,411.70642 L 338.10444,400.72324 L 380.28501,456.6705 L 365.71766,467.68252 z" />
  <path d="M 374.66478,437.93787 L 373.18764,435.97944 L 388.04555,426.34032 C 391.93358,431.46595 395.18284,431.70549 398.00627,429.57628 C 400.96055,427.35169 400.90732,423.68989 398.61842,420.62915 C 390.29675,409.5639 371.53528,432.30433 356.57092,412.46717 C 348.08956,401.17569 349.43362,390.44313 361.76309,381.16332 C 374.43855,371.61735 383.81152,372.78842 392.86733,384.75858 L 378.45966,394.0517 C 375.756,390.42983 372.33596,388.68653 369.52584,390.80244 C 366.38304,393.18671 366.78226,396.67551 368.68746,399.16403 C 377.02244,410.22928 396.77975,386.8767 412.1988,407.3127 C 421.18585,419.24294 418.21826,429.84243 405.35649,439.50816 C 393.27986,448.61498 383.41229,449.5332 374.66478,437.93787 z" />
  <path d="M 430.38582,418.95018 L 388.20524,362.94969 L 421.35884,337.97137 L 430.34589,349.90161 L 411.78626,363.88122 L 418.9901,373.44049 L 436.36535,360.32587 L 445.03302,371.79035 L 427.61784,384.90497 L 444.97979,407.95368 L 430.38582,418.95018 z" />
  <path d="M 468.94673,389.88422 L 426.76616,333.91034 L 459.91754,308.91871 L 468.92012,320.83565 L 450.33165,334.82856 L 457.52218,344.38784 L 474.93736,331.28653 L 483.55179,342.7377 L 466.17654,355.839 L 474.56475,366.9841 L 493.81859,352.44335 L 502.81894,364.3736 L 468.94673,389.88422 z" />
  <path d="M 529.66032,344.13499 L 487.45313,288.16112 L 502.04489,277.17793 L 544.22546,333.16512 L 529.66032,344.13499 z" />
  <path d="M 538.59414,314.39035 L 537.14361,312.43413 L 551.98821,302.80832 C 555.87624,307.92065 559.12551,308.14687 561.94893,306.04206 C 564.94314,303.79308 564.88991,300.14459 562.56108,297.09493 C 554.2261,286.0319 535.50457,308.77233 520.55351,288.94626 C 512.01891,277.6437 513.41621,266.91114 525.70575,257.63132 C 538.39453,248.04543 547.7675,249.22981 556.80777,261.23989 L 542.42894,270.51971 C 539.68536,266.88452 536.27862,265.15454 533.4552,267.27044 C 530.33901,269.64141 530.75154,273.13021 532.63013,275.63203 C 540.96511,286.69728 560.74903,263.32918 576.14146,283.79401 C 585.1152,295.71095 582.1587,306.26829 569.31024,315.98947 C 557.24914,325.06967 547.35496,326.01451 538.59414,314.39035 z" />
  <path d="M 594.32848,295.39156 L 552.17452,239.41769 L 585.30151,214.42606 L 594.30187,226.35409 L 575.71562,240.34922 L 582.93276,249.90849 L 600.34794,236.80719 L 608.96238,248.23174 L 591.56051,261.34635 L 608.93576,284.39285 L 594.32848,295.39156 z" />
  <path d="M 632.90049,266.33891 L 590.7066,210.37834 L 623.86021,185.37341 L 632.84726,197.29034 L 614.27432,211.30987 L 621.49146,220.85584 L 638.86671,207.75453 L 647.50777,219.17908 L 630.1192,232.30701 L 638.50741,243.4521 L 648.04007,236.27488 L 648.04007,254.94097 L 632.90049,266.33891 z" />
  <path d="M 18.26132,606.31417 L 6.6504607,590.90844 L 6.7835367,560.77787 L 24.238639,547.70318 L 32.866383,559.15213 L 15.477819,572.25565 L 23.852719,583.39853 L 43.146484,568.86 L 52.13353,580.77694 L 18.26132,606.31417 z M 6.6504607,545.98428 L 6.6504607,527.30489 L 9.2343477,525.34645 L 18.208089,537.25008 L 6.6504607,545.98428 z" />
  <path d="M 78.9616,560.55164 L 36.781028,504.57555 L 51.36169,493.60567 L 93.54227,549.56624 L 78.9616,560.55164 z" />
  <path d="M 87.92204,530.8203 L 86.4449,528.84856 L 101.31611,519.22275 C 105.16422,524.33508 108.42679,524.60123 111.25022,522.47202 C 114.23111,520.23413 114.17788,516.55902 111.87567,513.51158 C 103.554,502.44634 84.79254,525.18676 69.84148,505.36291 C 61.3335,494.07144 62.69088,483.32557 75.02034,474.04575 C 87.72242,464.48648 97.08208,465.65755 106.11127,477.65432 L 91.71691,486.92083 C 88.99995,483.29895 85.59321,481.56897 82.76979,483.68709 C 79.62698,486.04253 80.06613,489.54464 81.94472,492.06199 C 90.2797,503.11171 110.03701,479.74583 125.44274,500.19514 C 134.42979,512.11207 131.4622,522.71155 118.62483,532.3906 C 106.53712,541.48411 96.66955,542.41564 87.92204,530.8203 z" />
  <path d="M 143.65638,511.8193 L 101.46249,455.83212 L 134.62941,430.8538 L 143.61645,442.77074 L 125.03021,456.75034 L 132.23404,466.32292 L 149.64922,453.22162 L 158.27697,464.67279 L 140.87509,477.76078 L 158.23704,500.83612 L 143.65638,511.8193 z" />
  <path d="M 182.21729,482.75334 L 140.02341,426.77947 L 173.1748,401.78784 L 182.17737,413.70477 L 163.5756,427.711 L 170.79274,437.25918 L 188.19461,424.16896 L 196.82236,435.60682 L 179.42048,448.72144 L 187.80869,459.86653 L 207.10024,445.32579 L 216.0762,457.24272 L 182.21729,482.75334 z" />
  <path d="M 242.90427,437.03073 L 200.72369,381.05686 L 215.30214,370.04706 L 257.48272,426.03424 L 242.90427,437.03073 z" />
  <path d="M 251.87801,407.27278 L 250.40087,405.32987 L 265.25878,395.70406 C 269.10688,400.80308 272.38276,401.04262 275.20619,398.91119 C 278.17378,396.67551 278.13385,393.01371 275.81834,389.96406 C 267.50997,378.92765 248.7352,401.65477 233.79745,381.81539 C 225.28948,370.53944 226.66016,359.79357 238.96301,350.51376 C 251.66509,340.92787 261.02475,342.11224 270.06503,354.10902 L 255.65958,363.38883 C 252.95592,359.76696 249.54918,358.03697 246.71245,360.15288 C 243.56965,362.51054 244.0088,365.99934 245.90069,368.51447 C 254.23567,379.56641 273.97967,356.19831 289.39872,376.68976 C 298.37246,388.58007 295.42927,399.16403 282.56749,408.87191 C 270.49309,417.96542 260.61221,418.88364 251.87801,407.27278 z" />
  <path d="M 307.59904,388.274 L 265.41847,332.30012 L 298.57207,307.3085 L 307.55912,319.22543 L 288.97287,333.23165 L 296.19002,342.79093 L 313.59189,329.67631 L 322.21963,341.11417 L 304.81776,354.22879 L 322.17971,377.27529 L 307.59904,388.274 z" />
  <path d="M 346.18436,359.22135 L 303.96386,303.26078 L 337.13077,278.25584 L 346.13112,290.15947 L 327.54488,304.179 L 334.74871,313.75158 L 352.1772,300.63697 L 360.79164,312.06152 L 343.38976,325.18944 L 351.77797,336.32123 L 371.05621,321.79379 L 380.04548,333.69742 L 346.18436,359.22135 z" />
  <path d="M 406.88686,313.47212 L 364.67967,257.48494 L 379.25811,246.51284 L 421.4653,302.48894 L 406.88686,313.47212 z" />
  <path d="M 415.83398,283.75409 L 414.35684,281.78457 L 429.21475,272.15654 C 433.07616,277.25778 436.33874,277.51062 439.14885,275.3925 C 442.12975,273.13021 442.10313,269.50833 439.78762,266.43206 C 431.47925,255.36682 412.67787,278.10946 397.76673,258.27009 C 389.24545,246.97861 390.62944,236.24827 402.91898,226.96845 C 415.63437,217.42027 424.98072,218.59355 434.06092,230.5748 L 419.62886,239.84353 C 416.9119,236.23496 413.50294,234.48945 410.68173,236.62088 C 407.55224,238.98963 407.97808,242.46512 409.85666,244.98247 C 418.19164,256.04772 437.93565,232.653 453.39461,253.11784 C 462.34174,265.04808 459.41185,275.63203 446.52347,285.29777 C 434.46015,294.42011 424.58149,295.33833 415.83398,283.75409 z" />
  <path d="M 471.56832,264.72869 L 429.40105,208.7526 L 462.52804,183.77428 L 471.51509,195.67791 L 452.94215,209.69966 L 460.1593,219.24562 L 477.56117,206.14432 L 486.18891,217.59327 L 468.78704,230.7101 L 486.14899,253.7566 L 471.56832,264.72869 z" />
  <path d="M 510.12702,235.70266 L 467.95975,179.71325 L 501.08674,154.73494 L 510.0871,166.63856 L 491.50085,180.6337 L 498.71799,190.20628 L 516.11986,177.06505 L 524.7343,188.55614 L 507.34574,201.64414 L 515.72064,212.77371 L 535.01218,198.24849 L 543.97262,210.16542 L 510.12702,235.70266 z" />
  <path d="M 570.81621,189.94013 L 528.64895,133.96625 L 543.21409,122.98085 L 585.42128,178.95472 L 570.81621,189.94013 z" />
  <path d="M 579.78996,160.19548 L 578.31281,158.23705 L 593.14411,148.61123 C 597.03214,153.72356 600.29471,153.9631 603.12922,151.83389 C 606.09903,149.6093 606.05911,145.93419 603.7569,142.90007 C 595.42192,131.84813 576.66046,154.58855 561.7227,134.7514 C 553.21473,123.45992 554.5721,112.70296 566.87495,103.42093 C 579.57703,93.861646 588.92339,95.032716 598.00359,107.0295 L 583.58483,116.30932 C 580.85456,112.68966 577.4456,110.94414 574.6244,113.07557 C 571.50821,115.43102 571.90744,118.91982 573.79711,121.43717 C 582.13209,132.48689 601.865,109.14762 617.32397,129.58584 C 626.2844,141.50055 623.34121,152.08673 610.47944,161.79239 C 598.40282,170.87259 588.55078,171.80634 579.78996,160.19548 z" />
  <path d="M 635.51099,141.20779 L 593.34372,85.220596 L 626.49732,60.228976 L 635.47107,72.145906 L 616.88482,86.138826 L 624.09974,95.724716 L 641.51714,82.610096 L 648.04007,91.291076 L 648.04007,95.618246 L 632.72749,107.14927 L 648.04007,127.49433 L 648.04007,131.76828 L 635.51099,141.20779 z" />
  <path d="M 648.04007,77.604226 L 631.88911,56.154636 L 648.04007,43.984861 L 648.04007,77.604226 z" />
  <path d="M 22.628422,479.83898 L 6.6504607,458.64224 L 6.6504607,428.30984 L 11.217177,434.35591 L 28.605741,421.2413 L 37.233485,432.69025 L 19.831613,445.79377 L 28.233129,456.93665 L 47.51359,442.38482 L 56.50064,454.32836 L 22.628422,479.83898 z M 6.6504607,422.79828 L 6.6504607,404.11888 L 13.601451,398.87126 L 22.575192,410.7882 L 6.6504607,422.79828 z" />
  <path d="M 83.3154,434.10307 L 41.134822,378.11367 L 55.7288,367.13048 L 97.90937,423.11767 L 83.3154,434.10307 z" />
  <path d="M 92.30245,404.35842 L 90.812,402.38668 L 105.66991,392.77418 C 109.53132,397.8732 112.78059,398.12604 115.63063,396.01014 C 118.59821,393.74563 118.54498,390.09714 116.24277,387.0497 C 107.9078,375.99776 89.16186,398.72488 74.20858,378.90103 C 65.70061,367.60955 67.07129,356.85038 79.38745,347.58387 C 92.07622,338.01129 101.44919,339.19566 110.49168,351.19244 L 96.08402,360.47226 C 93.35596,356.82376 89.94701,355.10709 87.13689,357.25183 C 84.00739,359.58065 84.41993,363.06945 86.31182,365.60011 C 94.63349,376.66314 114.40411,353.28395 129.80985,373.74656 C 138.79689,385.63688 135.84261,396.24967 122.96753,405.92872 C 110.91753,415.03553 101.03665,415.96706 92.30245,404.35842 z" />
  <path d="M 148.02348,385.34412 L 105.8296,329.38355 L 138.99651,304.40523 L 147.97025,316.29555 L 129.39731,330.30177 L 136.60114,339.86104 L 154.00302,326.74643 L 162.63076,338.1976 L 145.22889,351.32552 L 162.60415,374.37424 L 148.02348,385.34412 z" />
  <path d="M 186.57109,356.29146 L 144.3772,300.31759 L 177.55521,275.35258 L 186.51786,287.2562 L 167.9427,301.26242 L 175.15984,310.82392 L 192.54841,297.69378 L 201.17615,309.14494 L 183.78759,322.27287 L 192.17579,333.40465 L 211.45625,318.87722 L 220.4433,330.76753 L 186.57109,356.29146 z" />
  <path d="M 247.27137,310.55555 L 205.0908,254.58167 L 219.66924,243.59848 L 261.84982,299.57236 L 247.27137,310.55555 z" />
  <path d="M 256.24511,280.8109 L 254.75466,278.86799 L 269.62588,269.22887 C 273.48729,274.32789 276.74987,274.59404 279.57329,272.44931 C 282.54088,270.22694 282.48765,266.56514 280.18544,263.51549 C 271.85046,252.43915 253.11561,275.17958 238.15125,255.3402 C 229.64327,244.07756 231.01395,233.33169 243.33011,224.05188 C 256.0455,214.47929 265.40516,215.66367 274.43213,227.63383 L 260.03999,236.94026 C 257.30972,233.31838 253.88967,231.56178 251.07956,233.67769 C 247.95006,236.06196 248.36259,239.55076 250.25449,242.03928 C 258.60277,253.10453 278.34678,229.72312 293.76582,250.21457 C 302.73956,262.1315 299.79637,272.70215 286.9346,282.39672 C 274.86019,291.49023 264.99262,292.42176 256.24511,280.8109 z" />
  <path d="M 311.96614,261.81212 L 269.77226,205.82493 L 302.93917,180.85992 L 311.92622,192.76355 L 293.33998,206.76977 L 300.55712,216.34235 L 317.95899,203.20112 L 326.58673,214.6656 L 309.17155,227.78021 L 326.54681,250.82672 L 311.96614,261.81212 z" />
  <path d="M 350.52706,232.75946 L 308.33318,176.78559 L 341.51118,151.79396 L 350.50045,163.7109 L 331.89867,177.71712 L 339.11582,187.27639 L 356.51769,174.18839 L 365.14543,185.61295 L 347.74356,198.71425 L 356.13177,209.84604 L 375.3967,195.3186 L 384.39927,207.24884 L 350.52706,232.75946 z" />
  <path d="M 411.26727,187.01024 L 369.06008,131.03636 L 383.63852,120.05096 L 425.8191,176.02706 L 411.26727,187.01024 z" />
  <path d="M 420.20108,157.2789 L 418.72394,155.30938 L 433.59516,145.68135 C 437.45657,150.8092 440.73245,151.03543 443.54257,148.93062 C 446.49685,146.66833 446.44362,143.03314 444.15472,139.97018 C 435.81974,128.90493 417.07159,151.64758 402.10722,131.83482 C 393.62586,120.51673 394.96992,109.77308 407.29939,100.49326 C 419.97486,90.945076 429.36113,92.118356 438.40141,104.12623 L 423.98265,113.39496 C 421.26569,109.75977 417.87004,108.01426 415.03553,110.159 C 411.91934,112.52775 412.33187,116.00324 414.22377,118.52059 C 422.55874,129.58584 442.31606,106.20443 457.7351,126.65595 C 466.73546,138.5862 463.75234,149.15685 450.90388,158.8625 C 438.82725,167.95823 428.9486,168.87645 420.20108,157.2789 z" />
  <path d="M 475.92212,138.26681 L 433.74154,82.304026 L 466.89515,57.312396 L 475.8955,69.229326 L 457.32256,83.224466 L 464.51309,92.783736 L 481.90165,79.682426 L 490.56932,91.118076 L 473.12753,104.24822 L 490.51609,127.2681 L 475.92212,138.26681 z" />
  <path d="M 514.48082,109.22747 L 472.30024,53.251369 L 505.45384,28.259744 L 514.4542,40.176677 L 495.86795,54.185117 L 503.05848,63.744396 L 520.47366,50.616469 L 529.0881,62.080946 L 511.71284,75.182256 L 520.10105,86.325126 L 539.35267,71.786606 L 548.35303,83.716846 L 514.48082,109.22747 z" />
  <path d="M 575.20993,63.478236 L 533.56166,7.0763027 L 555.19756,6.6504607 L 589.76176,52.506145 L 575.20993,63.478236 z" />
  <path d="M 584.13044,33.746901 L 582.67992,31.775162 L 597.52452,22.149349 C 601.41255,27.248368 604.66181,27.51452 607.48302,25.398615 C 610.45283,23.147417 610.42621,19.485616 608.09738,16.424874 C 599.76241,5.3862407 581.01425,28.113361 565.49097,7.4644407 L 624.08644,6.6504607 C 629.9329,17.249944 626.35094,26.649527 614.85985,35.317194 C 602.76992,44.410704 592.89126,45.331144 584.13044,33.746901 z" />
  <path d="M 639.86478,14.732594 L 633.7677,6.6504607 L 648.04007,6.6504607 L 648.04007,8.5955847 L 639.86478,14.732594 z" />
  <path d="M 7.0629957,368.94031 L 6.9432267,342.96393 C 14.093831,352.46997 13.774449,361.01787 7.0629957,368.94031 z" />
  <path d="M 25.236707,354.69455 L 6.6504607,330.02231 L 6.6504607,299.67882 L 13.827679,309.21148 L 31.229551,296.09687 L 39.843988,307.54803 L 22.455424,320.64934 L 39.817373,343.70915 L 25.236707,354.69455 z M 6.6504607,299.62559 L 6.6504607,280.94397 L 16.209735,273.72905 L 25.196784,285.65929 L 6.6504607,299.62559 z" />
  <path d="M 63.7954,325.6419 L 21.614828,269.65472 L 54.78174,244.6764 L 63.74217,256.58002 L 45.169236,270.59955 L 52.38638,280.15883 L 69.77494,267.05752 L 78.40269,278.49538 L 61.01412,291.59669 L 69.38902,302.74178 L 88.68057,288.21435 L 97.65653,300.13128 L 63.7954,325.6419 z" />
  <path d="M 124.49791,279.90598 L 82.30402,223.93211 L 96.90909,212.9334 L 139.07635,268.90949 L 124.49791,279.90598 z" />
  <path d="M 133.45834,250.17464 L 131.9812,248.19182 L 146.85241,238.56379 C 150.70052,243.67833 153.96309,243.93117 156.78652,241.79974 C 159.76741,239.55076 159.71418,235.88896 157.41197,232.83931 C 149.077,221.80068 130.32884,244.53001 115.37778,224.70395 C 106.86981,213.41247 108.24049,202.66882 120.55665,193.40231 C 133.25873,183.81421 142.61839,185.0008 151.65867,196.99758 L 137.25322,206.26408 C 134.52295,202.6289 131.1273,200.8967 128.30609,203.05474 C 125.17659,205.39909 125.60243,208.88568 127.49433,211.40303 C 135.816,222.45497 155.57331,199.08687 170.99235,219.565 C 179.96609,231.45532 177.0096,242.03928 164.14782,251.74716 C 152.0712,260.84067 142.21916,261.75889 133.45834,250.17464 z" />
  <path d="M 189.19268,231.14925 L 146.9988,175.18646 L 180.16571,150.18153 L 189.13945,162.09846 L 170.56651,176.1069 L 177.78365,185.66618 L 195.17222,172.55156 L 203.79996,183.9872 L 186.4114,197.11734 L 203.77335,220.16385 L 189.19268,231.14925 z" />
  <path d="M 227.75138,202.09659 L 185.55749,146.13381 L 218.72441,121.1444 L 227.71145,133.05912 L 209.1119,147.05425 L 216.32904,156.62683 L 233.74422,143.49891 L 242.35866,154.95008 L 224.95679,168.09131 L 233.34499,179.20757 L 252.63654,164.66904 L 261.61028,176.58597 L 227.75138,202.09659 z" />
  <path d="M 288.44057,156.36068 L 246.26,100.3868 L 260.85175,89.388086 L 303.01902,145.36197 L 288.44057,156.36068 z" />
  <path d="M 297.41431,126.61603 L 295.93717,124.67091 L 310.79508,115.03179 C 314.64319,120.13081 317.90576,120.38365 320.74027,118.26775 C 323.72339,116.01655 323.65685,112.38136 321.35464,109.29401 C 313.04628,98.255366 294.28481,120.98249 279.33375,101.14533 C 270.82578,89.867156 272.18315,79.123516 284.49931,69.854786 C 297.20139,60.282206 306.56105,61.453266 315.61464,73.436746 L 301.20919,82.743176 C 298.47892,79.110206 295.06996,77.364696 292.26206,79.496126 C 289.11926,81.838256 289.5451,85.353676 291.43478,87.857716 C 299.75645,98.920746 319.51598,75.528246 334.93502,95.993076 C 343.93537,107.93442 340.96557,118.52059 328.1038,128.18633 C 316.02717,137.29314 306.16182,138.21358 297.41431,126.61603 z" />
  <path d="M 353.16196,107.61503 L 310.95477,51.641153 L 344.12168,26.649527 L 353.12204,38.553153 L 334.52248,52.572683 L 341.7241,62.134176 L 359.16811,49.017342 L 367.78255,60.468506 L 350.35184,73.583126 L 367.72932,96.631846 L 353.16196,107.61503 z" />
  <path d="M 391.69404,78.575686 L 349.51347,22.588499 L 370.67029,6.6504607 L 389.49829,6.6504607 L 391.66743,9.5004997 L 373.09449,23.520029 L 380.28501,33.094829 L 397.7135,19.966907 L 406.34125,31.429165 L 388.89945,44.517164 L 397.32758,55.648946 L 416.59251,41.123733 L 425.59287,53.038448 L 391.69404,78.575686 z" />
  <path d="M 452.39654,32.81537 L 432.66363,6.6504607 L 455.55044,6.6504607 L 467.00161,21.829968 L 452.39654,32.81537 z" />
  <path d="M 463.92534,6.6504607 L 487.0406,6.6504607 C 478.30639,13.135685 470.75656,13.122378 463.92534,6.6504607 z" />
  <path d="M 7.7816047,246.20677 L 6.7569207,211.80225 C 8.3405227,213.03986 9.8864187,214.62568 11.403483,216.62181 C 19.57877,227.47414 17.862092,237.23303 7.7816047,246.20677 z" />
  <path d="M 29.590502,228.23267 L 6.6504607,197.76942 L 6.6504607,157.77128 L 20.576838,147.26717 L 29.550579,159.1841 L 10.977641,173.19033 L 18.194782,182.73629 L 35.583346,169.62168 L 44.224398,181.07285 L 26.822526,194.18746 L 44.197783,217.24727 L 29.590502,228.23267 z" />
  <path d="M 68.16472,199.18002 L 25.970841,143.19283 L 59.12223,118.20121 L 68.11149,130.13145 L 49.53634,144.15098 L 56.74017,153.69695 L 74.14204,140.56902 L 82.76979,152.02019 L 65.38122,165.14811 L 73.76943,176.2799 L 93.04767,161.75246 L 102.02363,173.65609 L 68.16472,199.18002 z" />
  <path d="M 128.86501,153.4441 L 86.67112,97.456916 L 101.24957,86.471516 L 143.44346,142.44761 L 128.86501,153.4441 z" />
  <path d="M 137.82544,123.69946 L 136.3483,121.74324 L 151.20621,112.11521 C 155.06762,117.21645 158.3302,117.4826 161.16693,115.33786 C 164.13452,113.10219 164.08129,109.44039 161.77908,106.37743 C 153.4441,95.325486 134.69594,118.05483 119.75819,98.228756 C 111.23691,86.937276 112.60759,76.206936 124.92375,66.940426 C 137.59921,57.365626 146.98549,58.538916 156.02577,70.522386 L 141.62032,79.802196 C 138.89005,76.193626 135.49662,74.434806 132.67319,76.566236 C 129.53039,78.923896 129.96954,82.423786 131.84812,84.927836 C 140.16979,95.979776 159.92711,72.611676 175.34615,93.089816 C 184.3465,105.00675 181.3767,115.5774 168.51493,125.26975 C 156.45161,134.37878 146.55965,135.31031 137.82544,123.69946 z" />
  <path d="M 193.54647,104.67406 L 151.3659,48.724576 L 184.53281,23.732951 L 193.49324,35.649884 L 174.93361,49.645016 L 182.13745,59.217596 L 199.53932,46.089676 L 208.16706,57.538626 L 190.76519,70.642156 L 208.14045,93.701956 L 193.54647,104.67406 z" />
  <path d="M 232.10517,75.634706 L 189.9246,19.671923 L 207.19561,6.6504607 L 231.99871,6.6504607 L 213.479,20.592363 L 220.69614,30.151638 L 238.08471,17.063638 L 246.71245,28.488191 L 229.32389,41.602805 L 237.7121,52.719066 L 256.99034,38.207156 L 265.97739,50.137397 L 232.10517,75.634706 z" />
  <path d="M 292.82098,29.898794 L 275.28603,6.6504607 L 298.14623,6.6504607 L 307.38612,18.900083 L 292.82098,29.898794 z" />
  <path d="M 312.29883,6.6504607 L 320.46081,6.6504607 C 317.61299,8.8617357 314.89603,8.9149657 312.29883,6.6504607 z" />
  <path d="M 6.6504607,122.3687 L 6.6504607,93.182966 L 20.669991,111.78252 L 6.6504607,122.3687 z" />
  <path d="M 15.051976,93.036586 L 13.574836,91.064846 L 28.432743,81.439026 C 32.307465,86.551356 35.543423,86.804196 38.377937,84.688296 C 41.361051,82.437096 41.307821,78.775296 39.005611,75.714556 C 32.38731,66.967046 19.219465,79.469506 6.5972307,75.102406 L 7.0363807,33.014984 C 17.327572,27.195138 25.396398,29.472951 33.252302,39.88391 L 18.860161,49.150418 C 16.116582,45.504143 12.720933,43.785248 9.8997267,45.916678 C 6.7569207,48.272118 7.1694557,51.760921 9.0613497,54.291578 C 17.407417,65.327996 37.15364,41.96211 52.58599,62.426946 C 61.55973,74.328346 58.58992,84.927836 45.741461,94.633486 C 33.678145,103.7137 23.786181,104.62083 15.051976,93.036586 z" />
  <path d="M 70.78632,74.035586 L 28.592433,18.061706 L 43.71871,6.6504607 L 68.51072,6.6504607 L 52.16015,18.966621 L 59.36176,28.541421 L 76.76585,15.437896 L 85.3936,26.875756 L 67.98951,39.990371 L 85.36698,63.039086 L 70.78632,74.035586 z" />
  <path d="M 109.3184,44.982929 L 80.42544,6.6504607 L 112.23498,6.6504607 L 106.53712,10.937718 L 114.92532,22.082811 L 134.23018,7.5442857 L 143.19061,19.445694 L 109.3184,44.982929 z" />
  </g>
  <g style="fill:#ffffff;stroke-width:6">
  <path d="M 221.44137,552.9752 C 202.04114,544.38738 187.86192,532.4039 178.86157,517.01148 C 170.06082,501.40834 165.68041,483.72701 165.68041,463.94087 L 165.68041,384.47912 L 266.72483,384.47912 L 266.72483,466.03016 C 266.72483,476.0308 269.01373,483.43203 273.62037,488.22719 C 278.20039,493.02014 284.49931,495.42881 292.5016,495.42881 C 300.88981,495.42881 307.49258,492.71406 312.28553,487.33337 C 317.29361,481.91497 319.76882,472.95453 319.79543,460.35891 L 319.79543,400.07116 C 319.79543,387.48885 316.58609,377.9939 310.19624,371.61735 C 303.99047,364.99905 294.89696,361.71208 282.90018,361.71208 L 236.72734,361.71208 L 236.72734,294.24711 L 276.60348,294.24711 C 292.20883,294.24711 303.28517,290.94462 309.89016,284.33962 C 316.49294,277.75016 319.79543,266.56514 319.79543,250.77348 L 319.79543,205.50555 C 319.79543,194.71976 317.37346,186.82394 312.59382,181.80476 C 307.98496,176.6259 301.79472,174.04201 294.00536,174.01539 C 286.80152,174.01539 280.59797,176.22667 275.41911,180.60708 C 270.39994,185.02741 267.92251,191.60357 267.92251,200.39101 L 267.92251,272.05008 L 165.68041,272.05008 L 165.68041,210.88403 C 165.68041,179.91287 176.35752,154.93677 197.75389,135.93577 C 219.34986,116.74847 251.51871,107.13596 294.29812,107.13596 C 337.68969,107.13596 371.87019,118.14798 396.86182,140.12987 C 413.82454,154.93677 422.33251,177.82358 422.35913,208.79252 L 422.35913,233.66438 C 422.35913,254.4619 419.74863,270.83909 414.54315,282.84918 C 409.32214,294.63303 400.65448,304.72461 388.4603,313.11282 C 376.27722,321.32803 365.9705,325.42898 357.56899,325.42898 L 357.56899,328.4254 C 377.75436,329.62308 393.54601,336.42769 404.95504,348.82369 C 416.53928,361.19087 422.33251,378.99418 422.35913,402.17376 L 422.35913,451.94409 C 422.35913,472.12946 418.93687,489.33172 412.14557,503.51094 C 402.55968,523.72293 387.64632,539.11536 367.47647,549.69932 C 347.47741,560.27218 322.17971,565.57082 291.59668,565.57082 C 264.20748,565.57082 240.82607,561.37671 221.44137,552.9752 z" />
  <path d="M 482.96626,401.58823 L 482.96626,344.28138 L 425.69933,344.28138 L 425.69933,316.18909 L 482.96626,316.18909 L 482.96626,258.88223 L 511.10069,258.88223 L 511.10069,316.18909 L 568.37871,316.18909 L 568.37871,344.28138 L 511.10069,344.28138 L 511.10069,401.58823 L 482.96626,401.58823 z" />
  <path d="M 510.2601,632.46356 L 510.2601,599.08372 L 499.72937,599.08372 L 499.72937,594.13109 L 526.99659,594.13109 L 526.99659,599.08372 L 516.46586,599.08372 L 516.46586,632.46356 L 510.2601,632.46356 z M 531.43023,632.46356 L 531.43023,594.13109 L 541.25787,594.13109 L 550.9103,622.63591 L 560.29658,594.13109 L 569.95122,594.13109 L 569.95122,632.46356 L 563.74546,632.46356 L 563.6523,602.27976 L 552.93527,632.46356 L 547.88726,632.46356 L 537.71584,602.27976 L 537.62269,632.46356 L 531.43023,632.46356 z" />
  </g>
  <path style="fill:none;stroke:#000000;stroke-width:13.30092144;stroke-linejoin:miter;marker-start:none;marker-end:none"
     d="M 6.6504607,648.01568 L 6.6504607,6.6504607 L 648.04007,6.6504607 L 648.04007,648.01568 L 6.6504607,648.01568 z" />
</svg>
