<?xml version="1.0" encoding="UTF-8" standalone="no"?>
<!-- Created with Inkscape (http://www.inkscape.org/) -->
<svg xmlns:svg="http://www.w3.org/2000/svg" xmlns="http://www.w3.org/2000/svg" xmlns:xlink="http://www.w3.org/1999/xlink" version="1.0" width="800" height="1042.0699" viewBox="0 0 800 964.949" id="Layer_1" xml:space="preserve"><defs id="defs318"/>
































































<g id="g273">
	<g transform="matrix(1.16377, 0, 0, 1.16377, -65.9579, -119.472)" id="g2327"><g id="g3">
	<g id="g5">
		<g id="g7">
			<rect width="673.44299" height="673.44397" x="63.664001" y="76.513" id="rect9"/>
		</g>
	</g>
</g><g id="g11">
	<defs id="defs13">
		<rect width="673.44299" height="673.44397" x="63.664001" y="76.513" id="XMLID_1_"/>
	</defs>
	<clipPath id="XMLID_17_">
		<use id="use17" x="0" y="0" width="800" height="964.94897" xlink:href="#XMLID_1_"/>
	</clipPath>
	<polyline id="polyline19" points="628.329,807.185 643.642,795.638 625.394,771.44 643.683,757.682 634.621,745.658 616.345,759.429 608.785,749.371 628.288,734.684 618.857,722.168 584.04,748.415 628.329,807.185" clip-path="url(#XMLID_17_)" style="fill: rgb(51, 51, 51);"/>
	<polyline id="polyline21" points="668.81,776.667 704.378,749.875 694.947,737.374 674.693,752.632 665.89,740.935 684.165,727.165 675.116,715.154 656.827,728.911 649.252,718.879 668.769,704.18 659.352,691.665 624.521,717.897 668.81,776.667" clip-path="url(#XMLID_17_)" style="fill: rgb(51, 51, 51);"/>
	<polyline id="polyline23" points="732.548,728.652 747.876,717.105 703.573,658.334 688.259,669.881 732.548,728.652" clip-path="url(#XMLID_17_)" style="fill: rgb(51, 51, 51);"/>
	<path d="M 761.074,641.588 C 751.575,629.004 741.748,627.775 728.4,637.82 C 715.488,647.551 714.055,658.825 722.981,670.673 C 738.677,691.514 758.372,667.629 767.121,679.244 C 769.537,682.451 769.592,686.286 766.466,688.647 C 763.504,690.872 760.078,690.613 756.284,685.589 L 755.233,684.184 L 740.424,695.362 L 741.98,697.41 C 751.152,709.598 761.511,708.629 774.19,699.075 C 787.689,688.907 790.8,677.783 781.37,665.267 C 765.182,643.785 744.437,668.325 735.688,656.709 C 733.695,654.089 733.272,650.417 736.548,647.934 C 739.509,645.695 743.099,647.538 745.692,650.977 L 746.757,652.383 L 761.074,641.588" style="fill: rgb(51, 51, 51);" clip-path="url(#XMLID_17_)" id="path25"/>
	<polyline id="polyline27" points="460.78,804.101 476.08,792.582 457.845,768.369 476.107,754.597 467.058,742.586 448.783,756.344 441.208,746.313 460.725,731.614 451.281,719.098 416.477,745.331 460.78,804.101" clip-path="url(#XMLID_17_)" style="fill: rgb(51, 51, 51);"/>
	<polyline id="polyline29" points="501.248,773.61 536.802,746.818 527.384,734.289 507.13,749.561 498.327,737.878 516.602,724.093 507.54,712.069 489.264,725.854 481.704,715.808 501.207,701.095 491.776,688.593 456.958,714.826 501.248,773.61" clip-path="url(#XMLID_17_)" style="fill: rgb(51, 51, 51);"/>
</g><polyline id="polyline31" points="565,725.581 580.3,714.048 536.01,655.264 520.697,666.81 565,725.581" style="fill: rgb(51, 51, 51);"/><path d="M 593.511,638.517 C 584.012,625.919 574.171,624.691 560.851,634.75 C 547.912,644.481 546.479,655.769 555.418,667.615 C 571.114,688.442 590.809,664.571 599.558,676.173 C 601.974,679.38 602.015,683.216 598.903,685.576 C 595.941,687.815 592.515,687.542 588.721,682.533 L 587.67,681.127 L 572.848,692.292 L 574.404,694.353 C 583.59,706.541 593.949,705.558 606.628,696.018 C 620.127,685.836 623.238,674.713 613.821,662.21 C 597.62,640.728 576.875,665.254 568.126,653.653 C 566.147,651.005 565.696,647.347 568.999,644.863 C 571.961,642.638 575.523,644.454 578.13,647.921 L 579.182,649.326 L 593.511,638.517" style="fill: rgb(51, 51, 51);" id="path33"/><polyline id="polyline35" points="632.915,674.399 648.228,662.852 629.98,638.654 648.269,624.896 639.207,612.872 620.931,626.643 613.371,616.584 632.86,601.898 623.443,589.382 588.612,615.628 632.915,674.399" style="fill: rgb(51, 51, 51);"/><g id="g37">
	<defs id="defs39">
		<rect width="673.44299" height="673.44397" x="63.664001" y="76.513" id="XMLID_3_"/>
	</defs>
	<clipPath id="XMLID_18_">
		<use id="use43" x="0" y="0" width="800" height="964.94897" xlink:href="#XMLID_3_"/>
	</clipPath>
	<polyline id="polyline45" points="673.396,643.881 708.964,617.089 699.533,604.587 679.279,619.846 670.475,608.149 688.737,594.378 679.688,582.368 661.413,596.125 653.838,586.093 673.355,571.394 663.924,558.878 629.107,585.111 673.396,643.881" clip-path="url(#XMLID_18_)" style="fill: rgb(51, 51, 51);"/>
	<polyline id="polyline47" points="737.134,595.866 752.449,584.319 708.159,525.548 692.845,537.095 737.134,595.866" clip-path="url(#XMLID_18_)" style="fill: rgb(51, 51, 51);"/>
	<path d="M 765.646,508.802 C 756.161,496.218 746.333,494.989 732.986,505.034 C 720.074,514.765 718.641,526.039 727.567,537.9 C 743.263,558.727 762.958,534.842 771.707,546.458 C 774.123,549.665 774.178,553.5 771.052,555.861 C 768.076,558.086 764.664,557.827 760.87,552.817 L 759.819,551.398 L 745.01,562.576 L 746.552,564.624 C 755.724,576.812 766.097,575.843 778.776,566.289 C 792.275,556.121 795.386,544.997 785.956,532.481 C 769.755,510.999 749.023,535.539 740.274,523.923 C 738.281,521.303 737.844,517.631 741.133,515.147 C 744.095,512.909 747.671,514.738 750.278,518.191 L 751.343,519.597 L 765.646,508.802" style="fill: rgb(51, 51, 51);" clip-path="url(#XMLID_18_)" id="path49"/>
	<path d="M 292.454,736.036 C 282.954,723.452 273.114,722.223 259.793,732.269 C 246.854,742.013 245.421,753.288 254.347,765.134 C 270.043,785.961 289.737,762.09 298.486,773.692 C 300.902,776.913 300.957,780.735 297.831,783.095 C 294.869,785.333 291.443,785.074 287.663,780.052 L 286.612,778.659 L 271.79,789.824 L 273.346,791.871 C 282.532,804.059 292.891,803.09 305.571,793.522 C 319.069,783.368 322.18,772.244 312.75,759.728 C 296.562,738.246 275.804,762.772 267.068,751.184 C 265.089,748.537 264.639,744.878 267.942,742.381 C 270.903,740.156 274.466,741.985 277.073,745.451 L 278.124,746.844 L 292.454,736.036" style="fill: rgb(51, 51, 51);" clip-path="url(#XMLID_18_)" id="path51"/>
	<polyline id="polyline53" points="331.843,771.917 347.17,760.384 328.922,736.186 347.198,722.415 338.134,710.39 319.874,724.162 312.298,714.116 331.802,699.417 322.371,686.901 287.553,713.147 331.843,771.917" clip-path="url(#XMLID_18_)" style="fill: rgb(51, 51, 51);"/>
</g><polyline id="polyline55" points="372.337,741.414 407.892,714.622 398.475,702.105 378.22,717.365 369.404,705.667 387.679,691.91 378.629,679.885 360.341,693.657 352.78,683.612 372.297,668.913 362.866,656.411 328.048,682.643 372.337,741.414" style="fill: rgb(51, 51, 51);"/><polyline id="polyline57" points="436.077,693.384 451.39,681.837 407.101,623.081 391.773,634.6 436.077,693.384" style="fill: rgb(51, 51, 51);"/><path d="M 464.588,606.334 C 455.102,593.736 445.262,592.508 431.927,602.539 C 419.002,612.284 417.569,623.558 426.508,635.432 C 442.204,656.246 461.899,632.362 470.648,643.976 C 473.064,647.198 473.105,651.033 469.993,653.394 C 467.004,655.605 463.605,655.36 459.811,650.323 L 458.747,648.931 L 443.938,660.095 L 445.48,662.157 C 454.666,674.345 465.039,673.376 477.718,663.808 C 491.216,653.64 494.314,642.53 484.897,630.014 C 468.696,608.532 447.964,633.072 439.215,621.456 C 437.223,618.822 436.785,615.15 440.075,612.68 C 443.036,610.442 446.598,612.271 449.22,615.724 L 450.271,617.117 L 464.588,606.334" style="fill: rgb(51, 51, 51);" id="path59"/><polyline id="polyline61" points="504.005,642.203 519.305,630.669 501.071,606.47 519.346,592.685 510.296,580.675 492.008,594.446 484.447,584.401 503.951,569.702 494.533,557.186 459.702,583.418 504.005,642.203" style="fill: rgb(51, 51, 51);"/><polyline id="polyline63" points="544.472,611.698 580.054,584.906 570.61,572.39 550.369,587.649 541.552,575.966 559.828,562.195 550.764,550.17 532.503,563.942 524.928,553.897 544.432,539.197 535,526.681 500.183,552.927 544.472,611.698" style="fill: rgb(51, 51, 51);"/><polyline id="polyline65" points="608.225,563.682 623.525,552.136 579.236,493.366 563.921,504.898 608.225,563.682" style="fill: rgb(51, 51, 51);"/><path d="M 636.737,476.619 C 627.251,464.021 617.41,462.779 604.076,472.839 C 591.165,482.57 589.718,493.858 598.657,505.704 C 614.34,526.532 634.034,502.66 642.783,514.275 C 645.199,517.468 645.267,521.318 642.128,523.666 C 639.166,525.904 635.74,525.631 631.96,520.622 L 630.909,519.216 L 616.087,530.381 L 617.643,532.442 C 626.815,544.63 637.188,543.647 649.854,534.107 C 663.366,523.925 666.477,512.802 657.046,500.3 C 640.845,478.817 620.1,503.343 611.351,491.742 C 609.372,489.094 608.921,485.436 612.225,482.952 C 615.186,480.727 618.762,482.556 621.37,486.01 L 622.407,487.415 L 636.737,476.619" style="fill: rgb(51, 51, 51);" id="path67"/><g id="g69">
	<defs id="defs71">
		<rect width="673.44299" height="673.44397" x="63.664001" y="76.513" id="XMLID_5_"/>
	</defs>
	<clipPath id="XMLID_19_">
		<use id="use75" x="0" y="0" width="800" height="964.94897" xlink:href="#XMLID_5_"/>
	</clipPath>
	<polyline id="polyline77" points="676.153,512.487 691.467,500.954 673.233,476.742 691.495,462.984 682.431,450.959 664.156,464.731 656.595,454.686 676.099,439.986 666.667,427.484 631.85,453.716 676.153,512.487" clip-path="url(#XMLID_19_)" style="fill: rgb(51, 51, 51);"/>
	<polyline id="polyline79" points="716.634,481.983 752.189,455.177 742.758,442.675 722.503,457.934 713.701,446.25 731.976,432.466 722.913,420.456 704.651,434.226 697.063,424.181 716.581,409.482 707.163,396.966 672.332,423.199 716.634,481.983" clip-path="url(#XMLID_19_)" style="fill: rgb(51, 51, 51);"/>
	<polyline id="polyline81" points="780.374,433.954 795.687,422.42 751.384,363.636 736.07,375.183 780.374,433.954" clip-path="url(#XMLID_19_)" style="fill: rgb(51, 51, 51);"/>
	<polyline id="polyline83" points="96.365,820.042 111.666,808.496 67.376,749.725 52.063,761.258 96.365,820.042" clip-path="url(#XMLID_19_)" style="fill: rgb(51, 51, 51);"/>
	<path d="M 124.877,732.978 C 115.392,720.394 105.551,719.139 92.216,729.198 C 79.291,738.929 77.858,750.217 86.784,762.063 C 102.48,782.891 122.175,759.02 130.923,770.621 C 133.339,773.829 133.407,777.678 130.268,780.025 C 127.307,782.263 123.881,782.004 120.1,776.981 L 119.049,775.576 L 104.227,786.754 L 105.769,788.801 C 114.955,800.989 125.328,800.007 137.993,790.466 C 151.505,780.284 154.617,769.175 145.186,756.659 C 128.985,735.176 108.24,759.716 99.491,748.101 C 97.512,745.48 97.062,741.795 100.365,739.325 C 103.327,737.087 106.903,738.916 109.496,742.369 L 110.561,743.774 L 124.877,732.978" style="fill: rgb(51, 51, 51);" clip-path="url(#XMLID_19_)" id="path85"/>
	<polyline id="polyline87" points="164.294,768.846 179.594,757.314 161.359,733.101 179.635,719.343 170.572,707.319 152.297,721.09 144.736,711.059 164.253,696.346 154.808,683.844 120.004,710.077 164.294,768.846" clip-path="url(#XMLID_19_)" style="fill: rgb(51, 51, 51);"/>
</g><polyline id="polyline89" points="204.775,738.342 240.33,711.55 230.898,699.035 210.644,714.293 201.841,702.611 220.116,688.826 211.054,676.815 192.792,690.586 185.217,680.541 204.721,665.841 195.303,653.326 160.472,679.558 204.775,738.342" style="fill: rgb(51, 51, 51);"/><polyline id="polyline91" points="268.514,690.313 283.828,678.78 239.524,619.997 224.225,631.542 268.514,690.313" style="fill: rgb(51, 51, 51);"/><path d="M 297.04,603.25 C 287.54,590.666 277.7,589.437 264.365,599.483 C 251.44,609.227 250.007,620.502 258.933,632.348 C 274.629,653.175 294.323,629.304 303.072,640.906 C 305.488,644.127 305.543,647.949 302.417,650.309 C 299.455,652.547 296.029,652.288 292.235,647.266 L 291.184,645.873 L 276.375,657.038 L 277.931,659.085 C 287.117,671.273 297.462,670.304 310.142,660.75 C 323.64,650.582 326.765,639.458 317.321,626.942 C 301.147,605.46 280.388,629.986 271.653,618.384 C 269.661,615.75 269.223,612.092 272.5,609.595 C 275.461,607.37 279.051,609.199 281.645,612.665 L 282.709,614.058 L 297.04,603.25" style="fill: rgb(51, 51, 51);" id="path93"/><polyline id="polyline95" points="336.429,639.131 351.756,627.598 333.508,603.4 351.784,589.628 342.72,577.604 324.458,591.375 316.884,581.33 336.388,566.63 326.957,554.115 292.139,580.361 336.429,639.131" style="fill: rgb(51, 51, 51);"/><polyline id="polyline97" points="376.923,608.626 412.478,581.835 403.047,569.319 382.806,584.579 373.99,572.881 392.265,559.124 383.215,547.099 364.927,560.871 357.366,550.826 376.883,536.126 367.438,523.625 332.621,549.857 376.923,608.626" style="fill: rgb(51, 51, 51);"/><polyline id="polyline99" points="440.649,560.598 455.962,549.051 411.673,490.281 396.359,501.814 440.649,560.598" style="fill: rgb(51, 51, 51);"/><path d="M 469.174,473.548 C 459.688,460.95 449.847,459.722 436.513,469.767 C 423.588,479.498 422.141,490.772 431.094,502.646 C 446.777,523.46 466.485,499.576 475.234,511.19 C 477.65,514.412 477.691,518.233 474.551,520.608 C 471.589,522.819 468.163,522.573 464.397,517.537 L 463.333,516.145 L 448.524,527.309 L 450.066,529.371 C 459.252,541.545 469.625,540.59 482.304,531.022 C 495.802,520.853 498.9,509.744 489.469,497.228 C 473.281,475.732 452.55,500.286 443.801,488.67 C 441.809,486.036 441.358,482.364 444.661,479.894 C 447.622,477.656 451.184,479.485 453.806,482.938 L 454.857,484.331 L 469.174,473.548" style="fill: rgb(51, 51, 51);" id="path101"/><polyline id="polyline103" points="508.59,509.417 523.891,497.87 505.657,473.684 523.931,459.899 514.882,447.888 496.593,461.66 489.033,451.615 508.537,436.916 499.119,424.4 464.288,450.632 508.59,509.417" style="fill: rgb(51, 51, 51);"/><polyline id="polyline105" points="549.058,478.912 584.613,452.12 575.196,439.604 554.941,454.863 546.138,443.18 564.414,429.409 555.35,417.384 537.088,431.156 529.514,421.111 549.017,406.411 539.586,393.895 504.769,420.141 549.058,478.912" style="fill: rgb(51, 51, 51);"/><polyline id="polyline107" points="612.811,430.882 628.111,419.35 583.821,360.58 568.507,372.112 612.811,430.882" style="fill: rgb(51, 51, 51);"/><path d="M 641.323,343.833 C 631.823,331.235 621.996,329.994 608.662,340.039 C 595.724,349.785 594.304,361.072 603.229,372.918 C 618.925,393.746 638.62,369.874 647.369,381.489 C 649.785,384.682 649.84,388.532 646.714,390.88 C 643.752,393.118 640.326,392.845 636.546,387.836 L 635.495,386.43 L 620.659,397.595 L 622.215,399.656 C 631.401,411.844 641.774,410.861 654.44,401.321 C 667.938,391.139 671.049,380.016 661.632,367.514 C 645.431,346.031 624.686,370.557 615.937,358.956 C 613.958,356.321 613.507,352.65 616.811,350.18 C 619.772,347.942 623.348,349.771 625.942,353.224 L 626.993,354.616 L 641.323,343.833" style="fill: rgb(51, 51, 51);" id="path109"/><g id="g111">
	<defs id="defs113">
		<rect width="673.44299" height="673.44397" x="63.664001" y="76.513" id="XMLID_7_"/>
	</defs>
	<clipPath id="XMLID_20_">
		<use id="use117" x="0" y="0" width="800" height="964.94897" xlink:href="#XMLID_7_"/>
	</clipPath>
	<polyline id="polyline119" points="680.725,379.701 696.04,368.167 677.792,343.956 696.08,330.198 687.017,318.173 668.742,331.945 661.181,321.899 680.685,307.2 671.253,294.698 636.436,320.93 680.725,379.701" clip-path="url(#XMLID_20_)" style="fill: rgb(51, 51, 51);"/>
	<polyline id="polyline121" points="721.207,349.197 756.775,322.391 747.344,309.889 727.089,325.148 718.287,313.465 736.562,299.68 727.499,287.669 709.223,301.44 701.649,291.395 721.166,276.696 711.749,264.18 676.917,290.413 721.207,349.197" clip-path="url(#XMLID_20_)" style="fill: rgb(51, 51, 51);"/>
	<polyline id="polyline123" points="75.852,706.145 111.42,679.353 101.989,666.851 81.734,682.111 72.931,670.414 91.206,656.642 82.144,644.618 63.868,658.389 56.293,648.358 75.811,633.659 66.38,621.143 31.563,647.375 75.852,706.145" clip-path="url(#XMLID_20_)" style="fill: rgb(51, 51, 51);"/>
</g><polyline id="polyline125" points="139.59,658.13 154.917,646.583 110.601,587.813 95.301,599.36 139.59,658.13" style="fill: rgb(51, 51, 51);"/><path d="M 168.116,571.066 C 158.616,558.482 148.789,557.227 135.441,567.286 C 122.53,577.017 121.083,588.305 130.023,600.165 C 145.719,620.993 165.4,597.108 174.162,608.723 C 176.578,611.931 176.633,615.766 173.494,618.127 C 170.532,620.352 167.106,620.092 163.326,615.083 L 162.275,613.664 L 147.466,624.842 L 149.008,626.889 C 158.193,639.077 168.566,638.109 181.232,628.555 C 194.73,618.372 197.842,607.263 188.411,594.761 C 172.224,573.265 151.478,597.804 142.73,586.19 C 140.737,583.569 140.3,579.884 143.59,577.414 C 146.551,575.176 150.128,577.005 152.735,580.458 L 153.799,581.863 L 168.116,571.066" style="fill: rgb(51, 51, 51);" id="path127"/><polyline id="polyline129" points="207.519,606.948 222.833,595.402 204.598,571.203 222.86,557.431 213.811,545.407 195.535,559.192 187.96,549.147 207.478,534.434 198.047,521.932 163.229,548.165 207.519,606.948" style="fill: rgb(51, 51, 51);"/><polyline id="polyline131" points="248,576.43 283.554,549.638 274.124,537.136 253.883,552.381 245.066,540.699 263.354,526.927 254.292,514.917 236.017,528.674 228.456,518.628 247.959,503.943 238.528,491.414 203.697,517.66 248,576.43" style="fill: rgb(51, 51, 51);"/><polyline id="polyline133" points="311.739,528.415 327.052,516.868 282.763,458.098 267.449,469.63 311.739,528.415" style="fill: rgb(51, 51, 51);"/><path d="M 340.264,441.351 C 330.764,428.767 320.938,427.525 307.603,437.571 C 294.678,447.316 293.231,458.59 302.158,470.436 C 317.853,491.263 337.562,467.392 346.297,479.007 C 348.727,482.214 348.768,486.05 345.642,488.397 C 342.681,490.636 339.255,490.376 335.488,485.354 L 334.424,483.961 L 319.6,495.126 L 321.156,497.173 C 330.342,509.361 340.715,508.392 353.381,498.838 C 366.879,488.67 369.991,477.546 360.56,465.03 C 344.373,443.548 323.627,468.088 314.878,456.472 C 312.899,453.852 312.449,450.18 315.752,447.697 C 318.714,445.459 322.275,447.288 324.883,450.754 L 325.934,452.147 L 340.264,441.351" style="fill: rgb(51, 51, 51);" id="path135"/><polyline id="polyline137" points="379.667,477.219 394.981,465.686 376.733,441.488 395.022,427.716 385.959,415.692 367.684,429.463 360.109,419.431 379.613,404.732 370.195,392.216 335.364,418.449 379.667,477.219" style="fill: rgb(51, 51, 51);"/><polyline id="polyline139" points="420.149,446.729 455.703,419.923 446.286,407.408 426.031,422.667 417.228,410.983 435.49,397.211 426.441,385.187 408.152,398.972 400.59,388.914 420.108,374.214 410.676,361.712 375.859,387.945 420.149,446.729" style="fill: rgb(51, 51, 51);"/><polyline id="polyline141" points="483.887,398.686 499.201,387.153 454.912,328.369 439.583,339.916 483.887,398.686" style="fill: rgb(51, 51, 51);"/><path d="M 512.399,311.636 C 502.913,299.038 493.073,297.81 479.738,307.855 C 466.813,317.6 465.393,328.874 474.32,340.734 C 490.015,361.548 509.711,337.677 518.459,349.278 C 520.875,352.499 520.916,356.32 517.804,358.681 C 514.842,360.919 511.416,360.66 507.622,355.637 L 506.558,354.245 L 491.749,365.395 L 493.305,367.47 C 502.477,379.644 512.85,378.675 525.53,369.108 C 539.028,358.954 542.127,347.83 532.709,335.314 C 516.509,313.831 495.776,338.371 487.027,326.77 C 485.035,324.122 484.598,320.464 487.887,317.98 C 490.849,315.742 494.41,317.57 497.032,321.023 L 498.083,322.429 L 512.399,311.636" style="fill: rgb(51, 51, 51);" id="path143"/><polyline id="polyline145" points="551.816,347.504 567.116,335.958 548.881,311.772 567.157,298.001 558.108,285.99 539.819,299.748 532.271,289.703 551.775,275.017 542.343,262.488 507.512,288.734 551.816,347.504" style="fill: rgb(51, 51, 51);"/><polyline id="polyline147" points="592.297,317 627.865,290.208 618.42,277.692 598.179,292.965 589.376,281.268 607.638,267.497 598.576,255.472 580.314,269.244 572.739,259.212 592.243,244.499 582.811,231.997 547.994,258.229 592.297,317" style="fill: rgb(51, 51, 51);"/><polyline id="polyline149" points="656.036,268.971 671.349,257.438 627.046,198.667 611.746,210.214 656.036,268.971" style="fill: rgb(51, 51, 51);"/><g id="g151">
	<defs id="defs153">
		<rect width="673.44299" height="673.44397" x="63.664001" y="76.513" id="XMLID_9_"/>
	</defs>
	<clipPath id="XMLID_21_">
		<use id="use157" x="0" y="0" width="800" height="964.94897" xlink:href="#XMLID_9_"/>
	</clipPath>
	<path d="M 684.547,181.92 C 675.061,169.322 665.234,168.094 651.886,178.126 C 638.975,187.871 637.528,199.158 646.468,211.019 C 662.163,231.847 681.845,207.962 690.593,219.577 C 693.023,222.785 693.077,226.619 689.938,228.981 C 686.976,231.206 683.55,230.946 679.77,225.938 L 678.719,224.519 L 663.91,235.684 L 665.452,237.758 C 674.638,249.933 684.997,248.964 697.677,239.409 C 711.175,229.227 714.287,218.117 704.856,205.602 C 688.656,184.12 667.91,208.659 659.161,197.044 C 657.182,194.41 656.746,190.738 660.035,188.268 C 662.997,186.03 666.572,187.859 669.18,191.311 L 670.231,192.703 L 684.547,181.92" style="fill: rgb(51, 51, 51);" clip-path="url(#XMLID_21_)" id="path159"/>
	<polyline id="polyline161" points="723.964,217.802 739.278,206.256 721.043,182.057 739.305,168.286 730.243,156.261 711.981,170.046 704.406,159.987 723.923,145.288 714.478,132.786 679.674,159.019 723.964,217.802" clip-path="url(#XMLID_21_)" style="fill: rgb(51, 51, 51);"/>
	<polyline id="polyline163" points="764.446,187.285 800,160.493 790.569,147.99 770.314,163.236 761.511,151.553 779.8,137.781 770.738,125.757 752.462,139.528 744.901,129.497 764.391,114.797 754.973,102.268 720.142,128.514 764.446,187.285" clip-path="url(#XMLID_21_)" style="fill: rgb(51, 51, 51);"/>
	<polyline id="polyline165" points="80.438,573.373 116.005,546.567 106.561,534.065 86.32,549.325 77.517,537.627 95.778,523.856 86.716,511.845 68.454,525.603 60.879,515.572 80.396,500.873 70.952,488.357 36.148,514.588 80.438,573.373" clip-path="url(#XMLID_21_)" style="fill: rgb(51, 51, 51);"/>
</g><polyline id="polyline167" points="144.176,525.344 159.476,513.797 115.187,455.027 99.887,466.574 144.176,525.344" style="fill: rgb(51, 51, 51);"/><path d="M 172.688,438.28 C 163.202,425.696 153.375,424.455 140.027,434.5 C 127.115,444.231 125.669,455.519 134.609,467.379 C 150.305,488.207 169.986,464.322 178.734,475.937 C 181.164,479.145 181.218,482.98 178.079,485.341 C 175.117,487.566 171.691,487.306 167.911,482.297 L 166.86,480.878 L 152.038,492.056 L 153.594,494.117 C 162.765,506.292 173.138,505.323 185.818,495.768 C 199.317,485.586 202.428,474.477 192.997,461.975 C 176.796,440.479 156.051,465.018 147.302,453.404 C 145.323,450.783 144.886,447.098 148.176,444.628 C 151.137,442.39 154.714,444.219 157.32,447.672 L 158.371,449.077 L 172.688,438.28" style="fill: rgb(51, 51, 51);" id="path169"/><polyline id="polyline171" points="212.104,474.162 227.418,462.616 209.184,438.417 227.445,424.645 218.383,412.621 200.121,426.406 192.546,416.361 212.063,401.648 202.619,389.146 167.815,415.378 212.104,474.162" style="fill: rgb(51, 51, 51);"/><polyline id="polyline173" points="252.586,443.644 288.14,416.852 278.709,404.35 258.469,419.595 249.652,407.913 267.94,394.141 258.878,382.13 240.603,395.888 233.028,385.856 252.531,371.157 243.114,358.627 208.283,384.874 252.586,443.644" style="fill: rgb(51, 51, 51);"/><polyline id="polyline175" points="316.325,395.628 331.638,384.082 287.335,325.312 272.035,336.845 316.325,395.628" style="fill: rgb(51, 51, 51);"/><path d="M 344.85,308.565 C 335.35,295.981 325.51,294.739 312.189,304.784 C 299.251,314.529 297.817,325.803 306.744,337.65 C 322.439,358.477 342.147,334.606 350.883,346.221 C 353.299,349.428 353.354,353.264 350.228,355.611 C 347.266,357.849 343.84,357.59 340.046,352.568 L 339.009,351.175 L 324.187,362.34 L 325.743,364.387 C 334.929,376.575 345.288,375.606 357.968,366.052 C 371.452,355.884 374.578,344.76 365.133,332.245 C 348.96,310.762 328.2,335.302 319.451,323.687 C 317.472,321.066 317.036,317.395 320.325,314.911 C 323.301,312.686 326.862,314.515 329.47,317.968 L 330.521,319.36 L 344.85,308.565" style="fill: rgb(51, 51, 51);" id="path177"/><polyline id="polyline179" points="384.24,344.433 399.567,332.9 381.319,308.701 399.594,294.93 390.532,282.906 372.27,296.677 364.695,286.646 384.199,271.946 374.767,259.43 339.95,285.663 384.24,344.433" style="fill: rgb(51, 51, 51);"/><polyline id="polyline181" points="424.735,313.942 460.289,287.15 450.872,274.621 430.617,289.88 421.8,278.197 440.076,264.426 431.027,252.401 412.738,266.187 405.176,256.127 424.694,241.428 415.262,228.926 380.445,255.158 424.735,313.942" style="fill: rgb(51, 51, 51);"/><polyline id="polyline183" points="488.473,265.9 503.787,254.367 459.498,195.583 444.169,207.129 488.473,265.9" style="fill: rgb(51, 51, 51);"/><path d="M 516.985,178.85 C 507.499,166.252 497.659,165.024 484.324,175.069 C 471.399,184.814 469.952,196.088 478.892,207.948 C 494.601,228.762 514.295,204.891 523.044,216.492 C 525.46,219.713 525.501,223.534 522.389,225.896 C 519.413,228.134 516.001,227.875 512.207,222.853 L 511.143,221.461 L 496.334,232.611 L 497.876,234.686 C 507.062,246.86 517.435,245.892 530.114,236.324 C 543.612,226.17 546.711,215.046 537.279,202.531 C 521.092,181.048 500.36,205.588 491.611,193.987 C 489.619,191.339 489.169,187.681 492.471,185.197 C 495.432,182.959 498.994,184.787 501.616,188.254 L 502.667,189.646 L 516.985,178.85" style="fill: rgb(51, 51, 51);" id="path185"/><polyline id="polyline187" points="556.402,214.718 571.702,203.171 553.467,178.986 571.743,165.215 562.693,153.204 544.405,166.962 536.843,156.917 556.347,142.231 546.929,129.702 512.098,155.947 556.402,214.718" style="fill: rgb(51, 51, 51);"/><g id="g189">
	<defs id="defs191">
		<rect width="673.44299" height="673.44397" x="63.664001" y="76.513" id="XMLID_11_"/>
	</defs>
	<clipPath id="XMLID_22_">
		<use id="use195" x="0" y="0" width="800" height="964.94897" xlink:href="#XMLID_11_"/>
	</clipPath>
	<polyline id="polyline197" points="596.87,184.213 632.451,157.421 623.006,144.906 602.765,160.179 593.949,148.468 612.224,134.71 603.162,122.686 584.9,136.458 577.325,126.426 596.829,111.713 587.397,99.21 552.58,125.443 596.87,184.213" clip-path="url(#XMLID_22_)" style="fill: rgb(51, 51, 51);"/>
	<polyline id="polyline199" points="660.622,136.185 675.921,124.651 631.632,65.881 616.318,77.414 660.622,136.185" clip-path="url(#XMLID_22_)" style="fill: rgb(51, 51, 51);"/>
	<path d="M 689.133,49.134 C 679.647,36.536 669.807,35.308 656.472,45.354 C 643.561,55.085 642.114,66.359 651.04,78.233 C 666.735,99.061 686.43,75.176 695.179,86.791 C 697.595,89.999 697.663,93.833 694.524,96.195 C 691.562,98.42 688.136,98.16 684.356,93.138 L 683.305,91.732 L 668.469,102.897 L 670.025,104.971 C 679.211,117.146 689.584,116.177 702.25,106.622 C 715.762,96.44 718.86,85.33 709.442,72.815 C 693.242,51.332 672.496,75.872 663.747,64.257 C 661.768,61.623 661.331,57.951 664.621,55.481 C 667.582,53.243 671.158,55.071 673.752,58.524 L 674.803,59.916 L 689.133,49.134" style="fill: rgb(51, 51, 51);" clip-path="url(#XMLID_22_)" id="path201"/>
	<polyline id="polyline203" points="728.55,85.016 743.864,73.47 725.616,49.271 743.891,35.486 734.828,23.475 716.553,37.26 708.992,27.201 728.496,12.502 719.064,0 684.26,26.232 728.55,85.016" clip-path="url(#XMLID_22_)" style="fill: rgb(51, 51, 51);"/>
	<path d="M 43.778,406.097 C 34.278,393.499 24.452,392.257 11.117,402.302 C -1.821,412.047 -3.241,423.322 5.685,435.182 C 21.38,456.009 41.075,432.138 49.824,443.753 C 52.24,446.946 52.294,450.795 49.169,453.143 C 46.207,455.381 42.781,455.122 38.987,450.086 L 37.949,448.693 L 23.127,459.858 L 24.669,461.919 C 33.855,474.107 44.213,473.124 56.893,463.584 C 70.391,453.402 73.517,442.278 64.072,429.776 C 47.884,408.294 27.139,432.82 18.39,421.218 C 16.411,418.584 15.96,414.912 19.264,412.443 C 22.226,410.205 25.802,412.033 28.395,415.486 L 29.459,416.879 L 43.778,406.097" style="fill: rgb(51, 51, 51);" clip-path="url(#XMLID_22_)" id="path205"/>
	<polyline id="polyline207" points="83.181,441.965 98.495,430.432 80.26,406.22 98.536,392.449 89.473,380.438 71.198,394.196 63.636,384.164 83.14,369.464 73.709,356.962 38.892,383.195 83.181,441.965" clip-path="url(#XMLID_22_)" style="fill: rgb(51, 51, 51);"/>
</g><polyline id="polyline209" points="123.676,411.46 159.23,384.668 149.799,372.153 129.545,387.413 120.742,375.729 139.003,361.944 129.955,349.919 111.679,363.705 104.104,353.66 123.622,338.96 114.19,326.444 79.373,352.677 123.676,411.46" style="fill: rgb(51, 51, 51);"/><polyline id="polyline211" points="187.401,363.432 202.728,351.899 158.412,293.115 143.111,304.662 187.401,363.432" style="fill: rgb(51, 51, 51);"/><path d="M 215.926,276.368 C 206.44,263.77 196.6,262.542 183.265,272.601 C 170.34,282.332 168.893,293.62 177.833,305.467 C 193.528,326.295 213.223,302.423 221.972,314.025 C 224.388,317.233 224.442,321.067 221.303,323.429 C 218.341,325.667 214.929,325.394 211.135,320.385 L 210.084,318.979 L 195.275,330.157 L 196.817,332.204 C 206.003,344.378 216.361,343.41 229.055,333.855 C 242.539,323.687 245.652,312.563 236.221,300.062 C 220.02,278.579 199.288,303.105 190.539,291.504 C 188.546,288.87 188.109,285.198 191.399,282.714 C 194.374,280.475 197.937,282.304 200.544,285.771 L 201.608,287.177 L 215.926,276.368" style="fill: rgb(51, 51, 51);" id="path213"/><polyline id="polyline215" points="255.33,312.25 270.643,300.717 252.409,276.504 270.67,262.747 261.622,250.723 243.346,264.494 235.771,254.435 255.289,239.749 245.857,227.233 211.04,253.479 255.33,312.25" style="fill: rgb(51, 51, 51);"/><polyline id="polyline217" points="295.811,281.732 331.365,254.94 321.948,242.438 301.707,257.697 292.876,246 311.166,232.229 302.103,220.218 283.828,233.976 276.266,223.944 295.77,209.245 286.338,196.729 251.508,222.961 295.811,281.732" style="fill: rgb(51, 51, 51);"/><polyline id="polyline219" points="359.549,233.716 374.863,222.17 330.574,163.399 315.26,174.933 359.549,233.716" style="fill: rgb(51, 51, 51);"/><path d="M 388.075,146.653 C 378.59,134.069 368.749,132.84 355.414,142.886 C 342.489,152.617 341.042,163.891 349.982,175.738 C 365.677,196.579 385.373,172.708 394.121,184.309 C 396.537,187.53 396.578,191.351 393.452,193.713 C 390.491,195.938 387.079,195.692 383.298,190.656 L 382.234,189.263 L 367.412,200.428 L 368.968,202.475 C 378.154,214.663 388.527,213.681 401.193,204.14 C 414.705,193.972 417.803,182.862 408.372,170.347 C 392.185,148.85 371.439,173.39 362.69,161.776 C 360.711,159.155 360.261,155.484 363.564,153 C 366.526,150.762 370.087,152.604 372.695,156.057 L 373.746,157.449 L 388.075,146.653" style="fill: rgb(51, 51, 51);" id="path221"/><g id="g223">
	<defs id="defs225">
		<rect width="673.44299" height="673.44397" x="63.664001" y="76.513" id="XMLID_13_"/>
	</defs>
	<clipPath id="XMLID_23_">
		<use id="use229" x="0" y="0" width="800" height="964.94897" xlink:href="#XMLID_13_"/>
	</clipPath>
	<polyline id="polyline231" points="427.492,182.535 442.792,170.988 424.557,146.803 442.833,133.018 433.77,120.994 415.495,134.779 407.919,124.733 427.423,110.034 418.005,97.518 383.174,123.75 427.492,182.535" clip-path="url(#XMLID_23_)" style="fill: rgb(51, 51, 51);"/>
	<polyline id="polyline233" points="467.959,152.03 503.527,125.238 494.096,112.723 473.841,127.968 465.039,116.285 483.3,102.527 474.251,90.503 455.976,104.274 448.415,94.215 467.918,79.53 458.487,67.014 423.669,93.26 467.959,152.03" clip-path="url(#XMLID_23_)" style="fill: rgb(51, 51, 51);"/>
	<polyline id="polyline235" points="531.711,103.988 547.011,92.455 502.722,33.684 487.395,45.217 531.711,103.988" clip-path="url(#XMLID_23_)" style="fill: rgb(51, 51, 51);"/>
	<path d="M 560.223,16.951 C 550.724,4.353 540.883,3.112 527.548,13.157 C 514.623,22.902 513.203,34.176 522.13,46.036 C 537.825,66.85 557.521,42.979 566.269,54.594 C 568.685,57.802 568.74,61.636 565.614,63.984 C 562.653,66.222 559.227,65.963 555.432,60.941 L 554.381,59.549 L 539.559,70.713 L 541.115,72.774 C 550.287,84.948 560.66,83.98 573.34,74.426 C 586.838,64.258 589.95,53.134 580.519,40.618 C 564.332,19.136 543.586,43.675 534.837,32.074 C 532.845,29.44 532.408,25.768 535.697,23.298 C 538.659,21.06 542.248,22.888 544.842,26.341 L 545.893,27.733 L 560.223,16.951" style="fill: rgb(51, 51, 51);" clip-path="url(#XMLID_23_)" id="path237"/>
	<path d="M 48.35,273.311 C 38.864,260.713 29.024,259.471 15.689,269.517 C 2.764,279.262 1.345,290.536 10.271,302.396 C 25.967,323.223 45.662,299.352 54.411,310.967 C 56.827,314.161 56.881,318.01 53.756,320.357 C 50.794,322.596 47.368,322.336 43.574,317.3 L 42.536,315.908 L 27.7,327.072 L 29.256,329.133 C 38.428,341.321 48.8,340.338 61.48,330.798 C 74.978,320.616 78.09,309.493 68.659,296.99 C 52.471,275.508 31.726,300.048 22.977,288.433 C 20.998,285.799 20.547,282.127 23.837,279.657 C 26.812,277.419 30.375,279.248 32.982,282.701 L 34.033,284.093 L 48.35,273.311" style="fill: rgb(51, 51, 51);" clip-path="url(#XMLID_23_)" id="path239"/>
	<polyline id="polyline241" points="87.767,309.166 103.067,297.646 84.833,273.434 103.122,259.663 94.059,247.652 75.784,261.409 68.222,251.377 87.726,236.678 78.295,224.163 43.478,250.409 87.767,309.166" clip-path="url(#XMLID_23_)" style="fill: rgb(51, 51, 51);"/>
</g><polyline id="polyline243" points="128.249,278.675 163.816,251.883 154.385,239.367 134.131,254.626 125.328,242.943 143.589,229.158 134.526,217.147 116.265,230.918 108.69,220.874 128.208,206.174 118.776,193.658 83.959,219.891 128.249,278.675" style="fill: rgb(51, 51, 51);"/><polyline id="polyline245" points="191.987,230.646 207.3,219.113 162.998,160.329 147.697,171.875 191.987,230.646" style="fill: rgb(51, 51, 51);"/><path d="M 220.512,143.596 C 211.012,130.998 201.186,129.756 187.851,139.815 C 174.926,149.546 173.479,160.834 182.419,172.681 C 198.115,193.509 217.81,169.637 226.545,181.239 C 228.974,184.446 229.029,188.281 225.89,190.643 C 222.928,192.881 219.502,192.608 215.722,187.599 L 214.671,186.193 L 199.862,197.358 L 201.404,199.419 C 210.59,211.593 220.948,210.625 233.628,201.07 C 247.126,190.902 250.238,179.778 240.807,167.277 C 224.606,145.794 203.874,170.32 195.126,158.719 C 193.133,156.085 192.696,152.413 195.986,149.929 C 198.947,147.691 202.524,149.52 205.131,152.987 L 206.195,154.393 L 220.512,143.596" style="fill: rgb(51, 51, 51);" id="path247"/><g id="g249">
	<defs id="defs251">
		<rect width="673.44299" height="673.44397" x="63.664001" y="76.513" id="XMLID_15_"/>
	</defs>
	<clipPath id="XMLID_24_">
		<use id="use255" x="0" y="0" width="800" height="964.94897" xlink:href="#XMLID_15_"/>
	</clipPath>
	<polyline id="polyline257" points="259.916,179.464 275.229,167.931 256.995,143.718 275.256,129.961 266.207,117.937 247.932,131.708 240.357,121.649 259.875,106.949 250.443,94.447 215.626,120.693 259.916,179.464" clip-path="url(#XMLID_24_)" style="fill: rgb(51, 51, 51);"/>
	<polyline id="polyline259" points="300.397,148.946 335.951,122.154 326.52,109.652 306.265,124.911 297.462,113.214 315.751,99.443 306.689,87.432 288.414,101.19 280.852,91.158 300.356,76.458 290.924,63.943 256.094,90.175 300.397,148.946" clip-path="url(#XMLID_24_)" style="fill: rgb(51, 51, 51);"/>
	<polyline id="polyline261" points="364.135,100.93 379.449,89.384 335.146,30.613 319.846,42.146 364.135,100.93" clip-path="url(#XMLID_24_)" style="fill: rgb(51, 51, 51);"/>
	<path d="M 392.661,13.867 C 383.162,1.283 373.334,0.054 360,10.1 C 347.062,19.831 345.628,31.105 354.555,42.966 C 370.25,63.794 389.946,39.922 398.694,51.524 C 401.124,54.745 401.165,58.566 398.039,60.928 C 395.078,63.153 391.652,62.907 387.885,57.871 L 386.821,56.478 L 371.999,67.643 L 373.555,69.69 C 382.741,81.878 393.114,80.909 405.78,71.355 C 419.278,61.187 422.39,50.077 412.959,37.562 C 396.772,16.065 376.026,40.605 367.277,28.991 C 365.298,26.37 364.848,22.713 368.151,20.215 C 371.113,17.977 374.674,19.819 377.268,23.258 L 378.332,24.664 L 392.661,13.867" style="fill: rgb(51, 51, 51);" clip-path="url(#XMLID_24_)" id="path263"/>
	<polyline id="polyline265" points="63.077,198.449 78.39,186.902 34.087,128.146 18.788,139.665 63.077,198.449" clip-path="url(#XMLID_24_)" style="fill: rgb(51, 51, 51);"/>
	<path d="M 91.602,111.399 C 82.089,98.801 72.276,97.559 58.928,107.618 C 46.003,117.349 44.57,128.623 53.496,140.484 C 69.192,161.325 88.887,137.44 97.635,149.042 C 100.051,152.263 100.105,156.098 96.98,158.459 C 94.019,160.67 90.593,160.424 86.812,155.388 L 85.761,153.996 L 70.925,165.16 L 72.494,167.221 C 81.68,179.409 92.025,178.44 104.704,168.886 C 118.203,158.704 121.328,147.594 111.897,135.065 C 95.696,113.596 74.95,138.136 66.202,126.521 C 64.223,123.887 63.786,120.215 67.076,117.745 C 70.038,115.506 73.614,117.335 76.207,120.788 L 77.271,122.18 L 91.602,111.399" style="fill: rgb(51, 51, 51);" clip-path="url(#XMLID_24_)" id="path267"/>
	<polyline id="polyline269" points="130.992,147.267 146.319,135.734 128.071,111.521 146.346,97.75 137.284,85.74 119.022,99.511 111.447,89.466 130.951,74.766 121.52,62.25 86.702,88.497 130.992,147.267" clip-path="url(#XMLID_24_)" style="fill: rgb(51, 51, 51);"/>
	<polyline id="polyline271" points="171.487,116.763 207.041,89.971 197.61,77.455 177.369,92.714 168.552,81.031 186.828,67.26 177.779,55.235 159.49,69.006 151.928,58.961 171.432,44.275 162.015,31.746 127.184,57.992 171.487,116.763" clip-path="url(#XMLID_24_)" style="fill: rgb(51, 51, 51);"/>
</g><g id="g275">
		<g id="g277">
			
				<rect width="673.44299" height="673.44397" x="63.664001" y="76.513" style="fill: none; stroke: black; stroke-width: 13.9761; stroke-miterlimit: 3.864;" id="rect279"/>
			<polyline id="polyline281" points="625.763,491.208 625.763,431.046 565.614,431.046 565.614,401.525 625.763,401.525 625.763,341.376 655.285,341.376 655.285,401.525 715.447,401.525 715.447,431.046 655.285,431.046 655.285,491.208 625.763,491.208" style="fill: white;"/>
			<path d="M 104.705,309.875 L 104.705,243.448 L 112.267,243.448 C 137.23,243.448 157.061,238.316 171.761,228.011 C 186.46,217.734 194.949,205.682 197.27,191.816 L 286.682,191.816 L 286.682,650.814 L 180.892,650.814 L 180.892,309.875 L 104.705,309.875" style="fill: white;" id="path283"/>
			<path d="M 469.337,480.809 C 469.337,471.582 467.249,464.021 463.059,458.139 C 458.842,452.27 451.089,449.335 439.761,449.335 C 431.354,449.335 424.843,451.847 420.23,456.883 C 415.604,461.714 413.311,469.385 413.311,479.88 L 413.311,561.416 C 413.311,570.861 415.604,577.999 420.23,582.817 C 425.048,587.43 432.078,589.737 441.317,589.737 C 449.506,589.737 456.221,587.02 461.476,581.548 C 466.717,575.884 469.324,567.599 469.337,556.694 L 469.337,480.809 M 413.311,353.932 C 413.311,364.647 415.508,372.317 419.93,376.93 C 424.53,381.325 431.573,383.535 441.017,383.535 C 450.461,383.535 457.272,381.447 461.476,377.229 C 465.666,372.834 467.768,365.069 467.782,353.931 L 467.782,284.365 C 467.782,273.46 465.571,265.694 461.149,261.08 C 456.753,256.262 450.025,253.833 441.017,253.819 C 432.405,253.819 425.58,256.358 420.558,261.38 C 415.712,266.417 413.311,273.882 413.311,283.736 L 413.311,353.932 L 413.311,353.932 z M 373.962,415.651 L 373.962,411.243 C 351.291,407.462 333.657,398.222 321.073,383.536 C 308.476,368.646 302.171,348.296 302.171,322.459 L 302.171,288.147 C 302.171,272.628 305.228,258.966 311.302,247.215 C 317.389,235.259 326.083,224.777 337.439,215.742 C 348.767,206.72 360.941,199.801 373.962,194.955 C 393.042,188.036 416.764,184.582 445.111,184.582 C 491.065,184.582 524.859,194.327 546.478,213.858 C 568.083,233.362 578.893,257.916 578.907,287.519 L 578.907,326.868 C 578.907,342.413 576.382,355.216 571.345,365.274 C 566.514,375.347 557.697,385.12 544.895,394.55 C 532.311,403.995 519.809,409.768 507.443,411.87 L 507.443,415.65 C 525.064,417.547 539.449,422.365 550.573,430.131 C 561.901,437.678 569.449,446.086 573.243,455.312 C 577.01,464.552 578.907,477.778 578.907,494.989 L 578.907,549.446 C 578.907,580.92 568.821,606.634 548.689,626.588 C 523.276,651.77 485.824,664.354 436.293,664.354 C 410.471,664.354 387.8,660.259 368.297,652.07 C 348.984,644.113 333.138,631.407 320.745,613.977 C 308.366,596.576 302.17,575.051 302.17,549.447 L 302.17,495.618 C 302.17,474.64 308.994,456.692 322.629,441.774 C 336.483,426.666 353.598,417.958 373.962,415.651 z " style="fill: white; fill-rule: evenodd;" id="path285"/>
			<rect width="673.44299" height="168.382" x="63.664001" y="789.57898" id="rect287"/>
			
				<rect width="673.44299" height="168.382" x="63.664001" y="789.57898" style="fill: none; stroke: black; stroke-width: 13.9761; stroke-miterlimit: 3.864;" id="rect289"/>
			<polyline id="polyline291" points="105.032,908.417 116.456,908.417 126.965,857.793 127.197,857.793 138.157,908.417 148.885,908.417 163.707,846.465 153.443,846.465 143.753,897.101 143.521,897.101 133.148,846.465 121.588,846.465 110.969,897.101 110.751,897.101 100.706,846.465 90.456,846.465 105.032,908.417" style="fill: white;"/>
			<polyline id="polyline293" points="180.645,908.417 192.069,908.417 202.564,857.793 202.81,857.793 213.77,908.417 224.498,908.417 239.306,846.465 229.056,846.465 219.366,897.101 219.134,897.101 208.747,846.465 197.201,846.465 186.596,897.101 186.364,897.101 176.318,846.465 166.068,846.465 180.645,908.417" style="fill: white;"/>
			<polyline id="polyline295" points="256.244,908.417 267.681,908.417 278.177,857.793 278.422,857.793 289.369,908.417 300.11,908.417 314.918,846.465 304.668,846.465 294.978,897.101 294.747,897.101 284.374,846.465 272.813,846.465 262.208,897.101 261.962,897.101 251.931,846.465 241.654,846.465 256.244,908.417" style="fill: white;"/>
			<rect width="10.728" height="12.257" x="320.43301" y="896.15997" style="fill: white;" id="rect297"/>
			<path d="M 346.214,928.766 L 356.014,928.766 L 356.014,901.36 L 356.233,901.36 C 358.458,906.697 363.712,910.041 369.308,910.041 C 385.522,910.041 389.726,890.4 389.726,876.288 C 389.726,857.917 384.117,844.842 369.308,844.842 C 362.538,844.842 357.065,849.469 355.769,854.096 L 355.537,854.096 L 355.537,846.466 L 346.215,846.466 L 346.215,928.766 M 355.427,877.434 C 355.427,863.335 357.174,853.18 368.025,853.18 C 377.129,853.18 379.463,862.653 379.463,876.287 C 379.463,892.242 377.129,901.714 368.025,901.714 C 357.515,901.714 355.427,889.472 355.427,877.434 z " style="fill: white; fill-rule: evenodd;" id="path299"/>
			<path d="M 441.304,878.594 L 441.304,874.677 C 441.304,861.383 439.543,844.841 420.421,844.841 C 401.163,844.841 398.133,862.762 398.133,878.252 C 398.133,899.517 404.548,910.04 419.834,910.04 C 436.867,910.04 440.825,894.672 440.825,888.079 L 431.04,888.079 C 431.04,892.692 429.743,902.41 420.421,902.41 C 408.41,902.41 408.41,888.079 408.41,878.594 L 441.304,878.594 M 408.752,870.964 L 408.752,868.657 C 408.752,864.959 409.912,852.47 420.19,852.47 C 428.829,852.47 431.041,860.686 431.041,867.606 L 431.041,870.963 L 408.752,870.963 L 408.752,870.964 z " style="fill: white; fill-rule: evenodd;" id="path301"/>
			<path d="M 493.195,846.465 L 483.874,846.465 L 483.874,854.326 L 483.642,854.326 C 482.36,849.468 476.872,844.841 470.117,844.841 C 454.258,844.841 449.699,860.687 449.699,877.434 C 449.699,885.65 450.859,908.416 469.066,908.416 C 475.249,908.416 481.077,905.304 483.178,900.103 L 483.41,900.103 L 483.41,908.183 C 483.41,912.454 483.874,922.064 471.276,922.064 C 466.144,922.064 461.709,919.866 461.244,914.202 L 451.445,914.202 C 453.083,929.693 468.123,929.693 471.972,929.693 C 484.583,929.693 493.195,922.992 493.195,904.498 L 493.195,846.465 M 471.399,853.18 C 481.894,853.18 483.997,865.423 483.997,877.434 C 483.997,890.155 481.894,900.104 471.276,900.104 C 461.476,900.104 459.962,887.506 459.962,877.434 C 459.961,862.653 462.282,853.18 471.399,853.18 z " style="fill: white; fill-rule: evenodd;" id="path303"/>
			<path d="M 506.625,836.994 L 516.425,836.994 L 516.425,825.897 L 506.625,825.897 L 506.625,836.994 L 506.625,836.994 z M 506.625,908.417 L 516.425,908.417 L 516.425,846.466 L 506.625,846.466 L 506.625,908.417 L 506.625,908.417 z " style="fill: white; fill-rule: evenodd;" id="path305"/>
			<rect width="10.741" height="12.257" x="532.052" y="896.15997" style="fill: white;" id="rect307"/>
			<path d="M 558.421,836.994 L 568.221,836.994 L 568.221,825.897 L 558.421,825.897 L 558.421,836.994 z M 558.421,908.417 L 568.221,908.417 L 568.221,846.466 L 558.421,846.466 L 558.421,908.417 z " style="fill: white; fill-rule: evenodd;" id="path309"/>
			<path d="M 581.624,908.417 L 591.424,908.417 L 591.424,865.656 C 591.424,856.647 598.535,853.18 603.789,853.18 C 612.661,853.18 613.002,860.919 613.002,865.656 L 613.002,908.417 L 622.802,908.417 L 622.802,864.496 C 622.802,857.221 622.802,844.842 606.356,844.842 C 600.283,844.842 593.758,848.09 591.192,853.754 L 590.961,853.754 L 590.961,846.466 L 581.625,846.466 L 581.625,908.417" style="fill: white;" id="path311"/>
			<path d="M 638.565,908.417 L 648.365,908.417 L 648.365,854.096 L 659.093,854.096 L 659.093,846.466 L 648.365,846.466 L 648.365,839.192 C 648.365,834.907 650.467,833.296 654.671,833.296 L 659.23,833.296 L 659.23,824.971 L 652.106,824.971 C 642.647,824.971 638.566,829.829 638.566,839.193 L 638.566,846.467 L 629.462,846.467 L 629.462,854.097 L 638.566,854.097 L 638.566,908.417" style="fill: white;" id="path313"/>
			<path d="M 685.107,902.411 C 675.075,902.411 673.083,890.85 673.083,877.434 C 673.083,864.031 675.198,852.471 685.107,852.471 C 695.602,852.471 697.582,864.031 697.582,877.434 C 697.582,890.85 695.494,902.411 685.107,902.411 M 662.833,877.434 C 662.833,894.89 667.255,910.04 685.339,910.04 C 703.301,910.04 707.86,894.89 707.86,877.434 C 707.86,859.991 703.411,844.841 685.339,844.841 C 667.364,844.841 662.833,859.991 662.833,877.434 z " style="fill: white; fill-rule: evenodd;" id="path315"/>
		</g>
	</g></g>
</g>
</svg>