<?xml version="1.0" encoding="UTF-8" standalone="no"?>
<!-- Created with Inkscape (http://www.inkscape.org/) -->

<svg
   xmlns:svg="http://www.w3.org/2000/svg"
   xmlns="http://www.w3.org/2000/svg"
   version="1.1"
   width="400"
   height="400"
   id="svg5443">
  <defs
     id="defs5445">
    <clipPath
       id="clipPath3511">
      <path
         d="m 315.365,207.436 34.011,0 0,34.011 -34.011,0 0,-34.011 z"
         id="path3513" />
    </clipPath>
    <clipPath
       id="clipPath3485">
      <path
         d="m 315.854,208.072 33.003,0 0,33.005 -33.003,0 0,-33.005 z"
         id="path3487" />
    </clipPath>
    <clipPath
       id="clipPath3089">
      <path
         d="m 315.365,207.436 34.011,0 0,34.011 -34.011,0 0,-34.011 z"
         id="path3091" />
    </clipPath>
    <clipPath
       id="clipPath3057">
      <path
         d="m 315.365,207.436 34.011,0 0,34.011 -34.011,0 0,-34.011 z"
         id="path3059" />
    </clipPath>
  </defs>
  <path
     d="M 400,400 0,400 0,0 l 400,0 0,400 z"
     id="path3047"
     style="fill:#000000;fill-opacity:1;fill-rule:nonzero;stroke:none" />
  <g
     transform="matrix(11.759172,0,0,-11.759172,0.0364,81.82851)"
     id="g3049">
    <path
       d="M 0,0 0.548,0.413 0,1.14 0,0 z"
       id="path3051"
       style="fill:#515054;fill-opacity:1;fill-rule:nonzero;stroke:none" />
  </g>
  <g
     transform="matrix(11.759172,0,0,-11.759172,-3708.3962,2839.2755)"
     id="g3053">
    <g
       clip-path="url(#clipPath3057)"
       id="g3055">
      <g
         transform="translate(316.8079,238.2332)"
         id="g3061">
        <path
           d="M 0,0 C 0.249,0.188 0.326,0.316 0.08,0.643 -0.13,0.921 -0.245,0.93 -0.536,0.712 L 0,0 z M 0.529,-2.255 -1.683,0.68 -0.812,1.337 C -0.185,1.809 0.302,1.843 0.817,1.161 1.328,0.482 1.256,0.088 0.547,-0.446 L 0.413,-0.547 1.275,-1.691 0.529,-2.255 z"
           id="path3063"
           style="fill:#515054;fill-opacity:1;fill-rule:nonzero;stroke:none" />
      </g>
      <g
         transform="translate(319.3916,237.5276)"
         id="g3065">
        <path
           d="M 0,0 -2.212,2.934 -0.534,4.199 -0.078,3.594 -0.981,2.913 -0.606,2.414 0.141,2.977 0.616,2.348 -0.131,1.784 0.3,1.212 1.25,1.928 1.724,1.299 0,0 z"
           id="path3067"
           style="fill:#515054;fill-opacity:1;fill-rule:nonzero;stroke:none" />
      </g>
      <g
         transform="translate(321.5402,240.3897)"
         id="g3069">
        <path
           d="m 0,0 c 0.132,-0.176 0.268,-0.183 0.388,-0.093 0.12,0.09 0.15,0.223 0.018,0.399 L 0.187,0.596 -0.007,0.45 -0.419,0.998 0.549,1.727 1.778,0.096 1.381,-0.202 1.153,-0.131 c -0.056,-0.26 -0.182,-0.458 -0.412,-0.632 -0.77,-0.579 -1.189,-0.331 -2.06,0.826 -0.835,1.108 -0.875,1.718 -0.129,2.281 0.415,0.312 0.905,0.438 1.316,0.171 C -0.004,2.432 0.121,2.295 0.3,2.058 L -0.475,1.475 -0.605,1.646 C -0.737,1.822 -0.872,1.828 -0.992,1.738 -1.112,1.648 -1.143,1.516 -1.01,1.341 L 0,0 z"
           id="path3071"
           style="fill:#515054;fill-opacity:1;fill-rule:nonzero;stroke:none" />
      </g>
      <g
         transform="translate(323.7684,240.8255)"
         id="g3073">
        <path
           d="M 0,0 -2.212,2.935 -1.437,3.518 0.774,0.583 0,0 z"
           id="path3075"
           style="fill:#515054;fill-opacity:1;fill-rule:nonzero;stroke:none" />
      </g>
      <g
         transform="translate(315.4818,231.0155)"
         id="g3077">
        <path
           d="M 0,0 C 0.249,0.188 0.326,0.316 0.08,0.643 -0.13,0.921 -0.245,0.93 -0.536,0.712 L 0,0 z M 0.529,-2.255 -1.683,0.68 -0.812,1.337 C -0.185,1.81 0.302,1.843 0.817,1.161 1.328,0.482 1.256,0.088 0.546,-0.446 L 0.413,-0.547 1.275,-1.692 0.529,-2.255 z"
           id="path3079"
           style="fill:#515054;fill-opacity:1;fill-rule:nonzero;stroke:none" />
      </g>
    </g>
  </g>
  <g
     transform="matrix(11.759172,0,0,-11.759172,31.79088,131.02068)"
     id="g3081">
    <path
       d="M 0,0 -2.212,2.934 -0.534,4.199 -0.078,3.594 -0.981,2.913 -0.605,2.414 0.142,2.977 0.616,2.348 -0.131,1.784 0.3,1.212 1.249,1.928 1.723,1.299 0,0 z"
       id="path3083"
       style="fill:#515054;fill-opacity:1;fill-rule:nonzero;stroke:none" />
  </g>
  <g
     transform="matrix(11.759172,0,0,-11.759172,-3708.3962,2839.2755)"
     id="g3085">
    <g
       clip-path="url(#clipPath3089)"
       id="g3087">
      <g
         transform="translate(320.2141,233.172)"
         id="g3093">
        <path
           d="m 0,0 c 0.133,-0.175 0.268,-0.183 0.388,-0.093 0.12,0.09 0.15,0.223 0.018,0.399 L 0.187,0.596 -0.007,0.45 -0.419,0.998 0.549,1.727 1.778,0.096 1.381,-0.202 1.153,-0.131 c -0.056,-0.26 -0.182,-0.458 -0.412,-0.632 -0.77,-0.579 -1.189,-0.331 -2.06,0.826 -0.835,1.108 -0.875,1.718 -0.129,2.281 0.415,0.312 0.905,0.438 1.316,0.171 C -0.004,2.432 0.121,2.295 0.3,2.058 L -0.475,1.475 -0.605,1.646 C -0.737,1.822 -0.872,1.829 -0.992,1.739 -1.111,1.648 -1.143,1.516 -1.01,1.341 L 0,0 z"
           id="path3095"
           style="fill:#515054;fill-opacity:1;fill-rule:nonzero;stroke:none" />
      </g>
      <g
         transform="translate(322.4424,233.6078)"
         id="g3097">
        <path
           d="M 0,0 -2.212,2.935 -1.437,3.519 0.774,0.583 0,0 z"
           id="path3099"
           style="fill:#515054;fill-opacity:1;fill-rule:nonzero;stroke:none" />
      </g>
      <g
         transform="translate(324.1113,237.5183)"
         id="g3101">
        <path
           d="M 0,0 C 0.249,0.187 0.326,0.316 0.079,0.643 -0.13,0.921 -0.245,0.93 -0.536,0.712 L 0,0 z M 0.528,-2.255 -1.683,0.68 -0.812,1.337 C -0.185,1.809 0.302,1.843 0.817,1.16 1.328,0.482 1.256,0.088 0.546,-0.447 l -0.133,-0.1 0.862,-1.144 -0.747,-0.564 z"
           id="path3103"
           style="fill:#515054;fill-opacity:1;fill-rule:nonzero;stroke:none" />
      </g>
      <g
         transform="translate(326.6944,236.8121)"
         id="g3105">
        <path
           d="M 0,0 -2.211,2.935 -0.534,4.199 -0.078,3.594 -0.981,2.913 -0.605,2.415 0.142,2.977 0.616,2.348 -0.131,1.785 0.3,1.213 1.25,1.929 1.724,1.299 0,0 z"
           id="path3107"
           style="fill:#515054;fill-opacity:1;fill-rule:nonzero;stroke:none" />
      </g>
      <g
         transform="translate(328.8436,239.675)"
         id="g3109">
        <path
           d="m 0,0 c 0.133,-0.176 0.268,-0.183 0.387,-0.093 0.121,0.09 0.151,0.223 0.019,0.399 L 0.187,0.596 -0.007,0.45 -0.419,0.997 0.549,1.727 1.777,0.096 1.381,-0.203 1.153,-0.131 C 1.097,-0.391 0.971,-0.589 0.74,-0.763 -0.029,-1.343 -0.448,-1.094 -1.319,0.062 -2.154,1.171 -2.195,1.781 -1.448,2.343 -1.033,2.656 -0.543,2.782 -0.132,2.515 -0.004,2.432 0.12,2.295 0.299,2.058 L -0.475,1.474 -0.605,1.646 C -0.737,1.822 -0.872,1.828 -0.992,1.738 -1.112,1.648 -1.143,1.516 -1.01,1.341 L 0,0 z"
           id="path3111"
           style="fill:#515054;fill-opacity:1;fill-rule:nonzero;stroke:none" />
      </g>
      <g
         transform="translate(331.0719,240.1107)"
         id="g3113">
        <path
           d="M 0,0 -2.212,2.935 -1.437,3.518 0.774,0.583 0,0 z"
           id="path3115"
           style="fill:#515054;fill-opacity:1;fill-rule:nonzero;stroke:none" />
      </g>
      <g
         transform="translate(314.1557,223.7981)"
         id="g3117">
        <path
           d="M 0,0 C 0.249,0.188 0.326,0.316 0.08,0.643 -0.13,0.922 -0.245,0.93 -0.535,0.712 L 0,0 z M 0.529,-2.255 -1.683,0.68 -0.812,1.337 C -0.185,1.81 0.302,1.843 0.817,1.161 1.328,0.482 1.256,0.088 0.546,-0.446 L 0.413,-0.547 1.276,-1.691 0.529,-2.255 z"
           id="path3119"
           style="fill:#515054;fill-opacity:1;fill-rule:nonzero;stroke:none" />
      </g>
      <g
         transform="translate(316.7394,223.0925)"
         id="g3121">
        <path
           d="M 0,0 -2.212,2.934 -0.534,4.199 -0.078,3.594 -0.981,2.913 -0.605,2.414 0.142,2.978 0.616,2.348 -0.131,1.784 0.3,1.213 1.25,1.929 1.724,1.299 0,0 z"
           id="path3123"
           style="fill:#515054;fill-opacity:1;fill-rule:nonzero;stroke:none" />
      </g>
      <g
         transform="translate(318.888,225.9547)"
         id="g3125">
        <path
           d="m 0,0 c 0.133,-0.175 0.268,-0.183 0.387,-0.092 0.121,0.09 0.151,0.222 0.019,0.398 L 0.187,0.596 -0.007,0.45 -0.419,0.998 0.549,1.727 1.778,0.096 1.381,-0.202 1.154,-0.13 C 1.097,-0.391 0.971,-0.589 0.741,-0.762 c -0.77,-0.58 -1.189,-0.332 -2.06,0.825 -0.835,1.108 -0.875,1.718 -0.129,2.281 0.415,0.312 0.905,0.438 1.316,0.171 C -0.004,2.432 0.121,2.295 0.3,2.058 L -0.475,1.475 -0.605,1.646 C -0.737,1.822 -0.872,1.829 -0.992,1.739 -1.112,1.648 -1.143,1.517 -1.01,1.341 L 0,0 z"
           id="path3127"
           style="fill:#515054;fill-opacity:1;fill-rule:nonzero;stroke:none" />
      </g>
      <g
         transform="translate(321.117,226.3904)"
         id="g3129">
        <path
           d="M 0,0 -2.212,2.935 -1.438,3.518 0.774,0.583 0,0 z"
           id="path3131"
           style="fill:#515054;fill-opacity:1;fill-rule:nonzero;stroke:none" />
      </g>
      <g
         transform="translate(322.7852,230.3006)"
         id="g3133">
        <path
           d="M 0,0 C 0.249,0.188 0.326,0.316 0.08,0.643 -0.13,0.921 -0.245,0.93 -0.535,0.712 L 0,0 z M 0.529,-2.255 -1.683,0.68 -0.812,1.337 C -0.185,1.81 0.302,1.843 0.817,1.161 1.328,0.482 1.256,0.088 0.547,-0.447 l -0.134,-0.1 0.863,-1.144 -0.747,-0.564 z"
           id="path3135"
           style="fill:#515054;fill-opacity:1;fill-rule:nonzero;stroke:none" />
      </g>
      <g
         transform="translate(325.369,229.595)"
         id="g3137">
        <path
           d="M 0,0 -2.212,2.935 -0.533,4.199 -0.078,3.594 -0.981,2.913 -0.605,2.414 0.142,2.978 0.616,2.348 -0.131,1.784 0.3,1.213 1.25,1.929 1.724,1.299 0,0 z"
           id="path3139"
           style="fill:#515054;fill-opacity:1;fill-rule:nonzero;stroke:none" />
      </g>
      <g
         transform="translate(327.5175,232.4571)"
         id="g3141">
        <path
           d="m 0,0 c 0.133,-0.175 0.268,-0.183 0.388,-0.092 0.12,0.09 0.151,0.222 0.018,0.398 L 0.187,0.596 -0.007,0.45 -0.419,0.998 0.549,1.727 1.778,0.096 1.382,-0.202 1.154,-0.13 C 1.097,-0.391 0.971,-0.589 0.741,-0.762 c -0.77,-0.58 -1.189,-0.332 -2.06,0.825 -0.835,1.108 -0.875,1.718 -0.129,2.281 0.415,0.312 0.905,0.438 1.316,0.171 C -0.004,2.432 0.121,2.295 0.3,2.058 L -0.475,1.475 -0.604,1.646 C -0.737,1.822 -0.872,1.829 -0.992,1.739 -1.111,1.648 -1.143,1.517 -1.01,1.341 L 0,0 z"
           id="path3143"
           style="fill:#515054;fill-opacity:1;fill-rule:nonzero;stroke:none" />
      </g>
      <g
         transform="translate(329.7458,232.8931)"
         id="g3145">
        <path
           d="M 0,0 -2.212,2.935 -1.437,3.519 0.775,0.583 0,0 z"
           id="path3147"
           style="fill:#515054;fill-opacity:1;fill-rule:nonzero;stroke:none" />
      </g>
      <g
         transform="translate(331.414,236.8036)"
         id="g3149">
        <path
           d="M 0,0 C 0.25,0.187 0.326,0.316 0.08,0.643 -0.13,0.921 -0.244,0.93 -0.535,0.712 L 0,0 z M 0.529,-2.255 -1.682,0.68 -0.811,1.337 C -0.184,1.809 0.303,1.843 0.817,1.16 1.329,0.482 1.257,0.088 0.546,-0.446 L 0.413,-0.547 1.276,-1.691 0.529,-2.255 z"
           id="path3151"
           style="fill:#515054;fill-opacity:1;fill-rule:nonzero;stroke:none" />
      </g>
      <g
         transform="translate(333.9984,236.0972)"
         id="g3153">
        <path
           d="M 0,0 -2.212,2.935 -0.534,4.199 -0.078,3.594 -0.982,2.913 -0.606,2.415 0.141,2.978 0.615,2.348 -0.132,1.785 0.3,1.214 1.249,1.929 1.723,1.299 0,0 z"
           id="path3155"
           style="fill:#515054;fill-opacity:1;fill-rule:nonzero;stroke:none" />
      </g>
      <g
         transform="translate(336.1471,238.9601)"
         id="g3157">
        <path
           d="m 0,0 c 0.133,-0.176 0.267,-0.183 0.387,-0.093 0.121,0.09 0.151,0.223 0.018,0.399 L 0.186,0.596 -0.007,0.45 -0.42,0.998 0.549,1.727 1.778,0.096 1.381,-0.203 1.153,-0.13 C 1.096,-0.391 0.971,-0.589 0.74,-0.762 -0.029,-1.342 -0.448,-1.094 -1.319,0.063 -2.154,1.171 -2.195,1.781 -1.448,2.344 -1.034,2.656 -0.544,2.782 -0.133,2.515 -0.004,2.432 0.12,2.295 0.299,2.058 L -0.476,1.474 -0.605,1.646 C -0.737,1.822 -0.873,1.828 -0.993,1.738 -1.112,1.648 -1.143,1.516 -1.01,1.341 L 0,0 z"
           id="path3159"
           style="fill:#515054;fill-opacity:1;fill-rule:nonzero;stroke:none" />
      </g>
      <g
         transform="translate(338.3753,239.3958)"
         id="g3161">
        <path
           d="M 0,0 -2.212,2.935 -1.438,3.518 0.775,0.583 0,0 z"
           id="path3163"
           style="fill:#515054;fill-opacity:1;fill-rule:nonzero;stroke:none" />
      </g>
      <g
         transform="translate(340.0443,243.3064)"
         id="g3165">
        <path
           d="M 0,0 C 0.248,0.187 0.326,0.316 0.08,0.643 -0.13,0.921 -0.246,0.93 -0.535,0.712 L 0,0 z M 0.529,-2.255 -1.684,0.68 -0.812,1.337 C -0.185,1.809 0.302,1.843 0.817,1.16 1.327,0.482 1.256,0.088 0.546,-0.446 L 0.412,-0.547 1.276,-1.692 0.529,-2.255 z"
           id="path3167"
           style="fill:#515054;fill-opacity:1;fill-rule:nonzero;stroke:none" />
      </g>
      <g
         transform="translate(315.4134,215.8748)"
         id="g3169">
        <path
           d="M 0,0 -2.211,2.935 -0.533,4.199 -0.078,3.594 -0.981,2.913 -0.605,2.414 0.142,2.977 0.616,2.348 -0.131,1.784 0.3,1.212 1.25,1.928 1.724,1.299 0,0 z"
           id="path3171"
           style="fill:#515054;fill-opacity:1;fill-rule:nonzero;stroke:none" />
      </g>
      <g
         transform="translate(317.5626,218.7369)"
         id="g3173">
        <path
           d="m 0,0 c 0.132,-0.175 0.267,-0.183 0.387,-0.093 0.12,0.09 0.151,0.223 0.018,0.399 L 0.187,0.596 -0.007,0.45 -0.42,0.998 0.549,1.727 1.777,0.096 1.381,-0.202 1.153,-0.131 C 1.096,-0.391 0.971,-0.589 0.74,-0.763 -0.029,-1.342 -0.448,-1.094 -1.319,0.063 -2.155,1.171 -2.195,1.781 -1.448,2.344 -1.034,2.656 -0.543,2.782 -0.132,2.515 -0.004,2.432 0.12,2.295 0.299,2.058 L -0.476,1.475 -0.605,1.646 C -0.737,1.822 -0.872,1.829 -0.993,1.739 -1.112,1.648 -1.143,1.516 -1.011,1.341 L 0,0 z"
           id="path3175"
           style="fill:#515054;fill-opacity:1;fill-rule:nonzero;stroke:none" />
      </g>
      <g
         transform="translate(319.7903,219.1729)"
         id="g3177">
        <path
           d="M 0,0 -2.211,2.935 -1.436,3.518 0.775,0.583 0,0 z"
           id="path3179"
           style="fill:#515054;fill-opacity:1;fill-rule:nonzero;stroke:none" />
      </g>
      <g
         transform="translate(321.4597,223.0833)"
         id="g3181">
        <path
           d="M 0,0 C 0.249,0.188 0.326,0.316 0.079,0.643 -0.13,0.921 -0.246,0.93 -0.536,0.712 L 0,0 z M 0.528,-2.255 -1.683,0.68 -0.812,1.337 C -0.185,1.81 0.302,1.843 0.817,1.161 1.328,0.482 1.256,0.088 0.546,-0.447 l -0.133,-0.1 0.862,-1.144 -0.747,-0.564 z"
           id="path3183"
           style="fill:#515054;fill-opacity:1;fill-rule:nonzero;stroke:none" />
      </g>
      <g
         transform="translate(324.0428,222.3777)"
         id="g3185">
        <path
           d="M 0,0 -2.211,2.935 -0.534,4.199 -0.078,3.594 -0.981,2.913 -0.605,2.414 0.142,2.977 0.616,2.348 -0.131,1.784 0.3,1.212 1.25,1.928 1.724,1.299 0,0 z"
           id="path3187"
           style="fill:#515054;fill-opacity:1;fill-rule:nonzero;stroke:none" />
      </g>
      <g
         transform="translate(326.192,225.2397)"
         id="g3189">
        <path
           d="m 0,0 c 0.132,-0.175 0.268,-0.183 0.387,-0.093 0.121,0.09 0.151,0.223 0.018,0.399 L 0.187,0.596 -0.007,0.45 -0.42,0.998 0.549,1.727 1.777,0.096 1.381,-0.202 1.153,-0.131 C 1.096,-0.391 0.971,-0.589 0.74,-0.763 -0.029,-1.342 -0.448,-1.094 -1.319,0.063 -2.155,1.171 -2.195,1.781 -1.448,2.344 -1.033,2.656 -0.543,2.782 -0.132,2.515 -0.004,2.432 0.12,2.295 0.299,2.058 L -0.476,1.475 -0.605,1.646 C -0.737,1.822 -0.872,1.829 -0.992,1.739 -1.112,1.648 -1.143,1.516 -1.01,1.341 L 0,0 z"
           id="path3191"
           style="fill:#515054;fill-opacity:1;fill-rule:nonzero;stroke:none" />
      </g>
      <g
         transform="translate(328.4198,225.6756)"
         id="g3193">
        <path
           d="M 0,0 -2.211,2.935 -1.437,3.518 0.775,0.583 0,0 z"
           id="path3195"
           style="fill:#515054;fill-opacity:1;fill-rule:nonzero;stroke:none" />
      </g>
      <g
         transform="translate(330.0893,229.5857)"
         id="g3197">
        <path
           d="M 0,0 C 0.248,0.187 0.326,0.316 0.079,0.643 -0.13,0.921 -0.246,0.93 -0.536,0.712 L 0,0 z M 0.528,-2.255 -1.684,0.68 -0.812,1.337 C -0.185,1.809 0.302,1.843 0.816,1.16 1.327,0.482 1.256,0.088 0.546,-0.447 l -0.133,-0.1 0.861,-1.144 -0.746,-0.564 z"
           id="path3199"
           style="fill:#515054;fill-opacity:1;fill-rule:nonzero;stroke:none" />
      </g>
      <g
         transform="translate(332.6724,228.8795)"
         id="g3201">
        <path
           d="M 0,0 -2.212,2.935 -0.534,4.2 -0.078,3.594 -0.982,2.913 -0.606,2.415 0.141,2.977 0.615,2.348 -0.132,1.785 0.299,1.213 1.249,1.929 1.723,1.299 0,0 z"
           id="path3203"
           style="fill:#515054;fill-opacity:1;fill-rule:nonzero;stroke:none" />
      </g>
      <g
         transform="translate(334.8209,231.7423)"
         id="g3205">
        <path
           d="m 0,0 c 0.133,-0.176 0.268,-0.183 0.388,-0.093 0.12,0.09 0.15,0.223 0.017,0.399 L 0.187,0.596 -0.007,0.45 -0.42,0.997 0.549,1.727 1.778,0.096 1.381,-0.203 1.153,-0.131 C 1.096,-0.391 0.971,-0.589 0.74,-0.763 c -0.769,-0.58 -1.188,-0.331 -2.059,0.825 -0.835,1.109 -0.876,1.719 -0.129,2.281 0.414,0.313 0.905,0.439 1.316,0.172 0.128,-0.083 0.253,-0.22 0.431,-0.457 L -0.476,1.474 -0.605,1.646 C -0.737,1.822 -0.872,1.828 -0.992,1.738 -1.112,1.648 -1.143,1.516 -1.01,1.341 L 0,0 z"
           id="path3207"
           style="fill:#515054;fill-opacity:1;fill-rule:nonzero;stroke:none" />
      </g>
      <g
         transform="translate(337.0492,232.1781)"
         id="g3209">
        <path
           d="M 0,0 -2.211,2.935 -1.438,3.518 0.775,0.583 0,0 z"
           id="path3211"
           style="fill:#515054;fill-opacity:1;fill-rule:nonzero;stroke:none" />
      </g>
      <g
         transform="translate(338.7182,236.0887)"
         id="g3213">
        <path
           d="M 0,0 C 0.248,0.187 0.326,0.316 0.08,0.643 -0.13,0.921 -0.246,0.93 -0.536,0.712 L 0,0 z M 0.529,-2.255 -1.684,0.68 -0.812,1.337 C -0.185,1.809 0.303,1.843 0.817,1.16 1.329,0.482 1.256,0.088 0.546,-0.447 l -0.133,-0.1 0.863,-1.144 -0.747,-0.564 z"
           id="path3215"
           style="fill:#515054;fill-opacity:1;fill-rule:nonzero;stroke:none" />
      </g>
      <g
         transform="translate(341.3012,235.3824)"
         id="g3217">
        <path
           d="M 0,0 -2.211,2.935 -0.533,4.199 -0.077,3.594 -0.981,2.913 -0.605,2.415 0.142,2.977 0.617,2.348 -0.13,1.785 0.3,1.213 1.25,1.929 1.725,1.299 0,0 z"
           id="path3219"
           style="fill:#515054;fill-opacity:1;fill-rule:nonzero;stroke:none" />
      </g>
      <g
         transform="translate(343.451,238.2451)"
         id="g3221">
        <path
           d="m 0,0 c 0.132,-0.176 0.267,-0.183 0.387,-0.093 0.119,0.09 0.151,0.223 0.018,0.399 L 0.186,0.596 -0.008,0.45 -0.42,0.997 0.547,1.727 1.777,0.096 1.381,-0.203 1.153,-0.131 C 1.096,-0.391 0.97,-0.589 0.74,-0.763 -0.029,-1.343 -0.448,-1.094 -1.319,0.062 -2.155,1.171 -2.195,1.781 -1.448,2.343 -1.034,2.656 -0.543,2.782 -0.133,2.515 -0.004,2.432 0.12,2.295 0.299,2.058 L -0.476,1.474 -0.605,1.646 C -0.737,1.822 -0.873,1.828 -0.993,1.738 -1.112,1.648 -1.143,1.516 -1.011,1.341 L 0,0 z"
           id="path3223"
           style="fill:#515054;fill-opacity:1;fill-rule:nonzero;stroke:none" />
      </g>
      <g
         transform="translate(345.6779,238.6811)"
         id="g3225">
        <path
           d="M 0,0 -2.211,2.935 -1.436,3.518 0.775,0.583 0,0 z"
           id="path3227"
           style="fill:#515054;fill-opacity:1;fill-rule:nonzero;stroke:none" />
      </g>
      <g
         transform="translate(347.347,242.5915)"
         id="g3229">
        <path
           d="M 0,0 C 0.25,0.187 0.327,0.316 0.08,0.642 -0.129,0.921 -0.244,0.93 -0.535,0.711 L 0,0 z m 0.529,-2.255 -2.211,2.935 0.87,0.657 C -0.185,1.808 0.303,1.843 0.817,1.16 1.329,0.482 1.257,0.088 0.546,-0.447 L 0.413,-0.548 1.276,-1.692 0.529,-2.255 z"
           id="path3231"
           style="fill:#515054;fill-opacity:1;fill-rule:nonzero;stroke:none" />
      </g>
      <g
         transform="translate(314.088,208.6572)"
         id="g3233">
        <path
           d="M 0,0 -2.212,2.935 -0.534,4.199 -0.078,3.594 -0.982,2.913 -0.606,2.414 0.141,2.977 0.615,2.348 -0.132,1.785 0.3,1.213 1.249,1.928 1.723,1.299 0,0 z"
           id="path3235"
           style="fill:#515054;fill-opacity:1;fill-rule:nonzero;stroke:none" />
      </g>
      <g
         transform="translate(316.2365,211.5192)"
         id="g3237">
        <path
           d="m 0,0 c 0.132,-0.175 0.267,-0.183 0.387,-0.092 0.12,0.09 0.151,0.222 0.018,0.398 L 0.187,0.596 -0.007,0.45 -0.42,0.998 0.548,1.727 1.777,0.096 1.381,-0.202 1.153,-0.131 C 1.096,-0.391 0.971,-0.589 0.74,-0.762 -0.029,-1.342 -0.448,-1.094 -1.319,0.063 -2.155,1.171 -2.195,1.781 -1.448,2.344 -1.034,2.656 -0.543,2.782 -0.132,2.515 -0.004,2.432 0.12,2.295 0.299,2.058 L -0.476,1.475 -0.605,1.646 C -0.737,1.822 -0.872,1.829 -0.993,1.739 -1.112,1.648 -1.143,1.516 -1.01,1.341 L 0,0 z"
           id="path3239"
           style="fill:#515054;fill-opacity:1;fill-rule:nonzero;stroke:none" />
      </g>
      <g
         transform="translate(318.4648,211.955)"
         id="g3241">
        <path
           d="M 0,0 -2.212,2.935 -1.437,3.519 0.775,0.583 0,0 z"
           id="path3243"
           style="fill:#515054;fill-opacity:1;fill-rule:nonzero;stroke:none" />
      </g>
      <g
         transform="translate(320.1337,215.8655)"
         id="g3245">
        <path
           d="M 0,0 C 0.249,0.188 0.326,0.316 0.079,0.643 -0.13,0.921 -0.246,0.93 -0.536,0.712 L 0,0 z M 0.528,-2.255 -1.684,0.68 -0.812,1.337 C -0.185,1.81 0.302,1.843 0.816,1.161 1.328,0.482 1.256,0.088 0.546,-0.446 L 0.413,-0.547 1.275,-1.691 0.528,-2.255 z"
           id="path3247"
           style="fill:#515054;fill-opacity:1;fill-rule:nonzero;stroke:none" />
      </g>
      <g
         transform="translate(322.7173,215.1599)"
         id="g3249">
        <path
           d="M 0,0 -2.212,2.935 -0.534,4.199 -0.078,3.594 -0.982,2.913 -0.606,2.414 0.141,2.977 0.615,2.348 -0.131,1.785 0.3,1.212 1.249,1.928 1.723,1.299 0,0 z"
           id="path3251"
           style="fill:#515054;fill-opacity:1;fill-rule:nonzero;stroke:none" />
      </g>
      <g
         transform="translate(324.866,218.022)"
         id="g3253">
        <path
           d="m 0,0 c 0.132,-0.175 0.267,-0.183 0.387,-0.092 0.12,0.09 0.151,0.222 0.018,0.398 L 0.187,0.596 -0.007,0.451 -0.42,0.998 0.549,1.727 1.778,0.096 1.381,-0.202 1.153,-0.131 C 1.096,-0.391 0.971,-0.589 0.74,-0.762 -0.029,-1.342 -0.448,-1.094 -1.319,0.063 -2.155,1.171 -2.195,1.781 -1.448,2.344 -1.033,2.656 -0.543,2.782 -0.132,2.515 -0.004,2.432 0.12,2.295 0.299,2.058 L -0.476,1.475 -0.604,1.646 C -0.737,1.822 -0.872,1.829 -0.993,1.739 -1.112,1.648 -1.143,1.516 -1.01,1.341 L 0,0 z"
           id="path3255"
           style="fill:#515054;fill-opacity:1;fill-rule:nonzero;stroke:none" />
      </g>
      <g
         transform="translate(327.0943,218.4579)"
         id="g3257">
        <path
           d="M 0,0 -2.212,2.935 -1.437,3.518 0.775,0.583 0,0 z"
           id="path3259"
           style="fill:#515054;fill-opacity:1;fill-rule:nonzero;stroke:none" />
      </g>
      <g
         transform="translate(328.7632,222.3684)"
         id="g3261">
        <path
           d="M 0,0 C 0.249,0.188 0.326,0.316 0.079,0.643 -0.13,0.921 -0.245,0.93 -0.536,0.712 L 0,0 z M 0.529,-2.255 -1.683,0.68 -0.812,1.337 C -0.185,1.81 0.302,1.843 0.816,1.161 1.328,0.482 1.256,0.088 0.546,-0.446 L 0.413,-0.547 1.275,-1.691 0.529,-2.255 z"
           id="path3263"
           style="fill:#515054;fill-opacity:1;fill-rule:nonzero;stroke:none" />
      </g>
      <g
         transform="translate(331.3463,221.6628)"
         id="g3265">
        <path
           d="M 0,0 -2.211,2.935 -0.534,4.199 -0.078,3.594 -0.981,2.913 -0.605,2.414 0.141,2.977 0.615,2.348 -0.131,1.785 0.3,1.212 1.249,1.928 1.725,1.299 0,0 z"
           id="path3267"
           style="fill:#515054;fill-opacity:1;fill-rule:nonzero;stroke:none" />
      </g>
      <g
         transform="translate(333.4948,224.5249)"
         id="g3269">
        <path
           d="m 0,0 c 0.133,-0.175 0.268,-0.183 0.388,-0.092 0.12,0.09 0.15,0.222 0.019,0.398 L 0.187,0.596 -0.007,0.45 -0.419,0.998 0.549,1.727 1.778,0.096 1.382,-0.202 1.153,-0.131 C 1.096,-0.391 0.971,-0.589 0.74,-0.762 c -0.769,-0.58 -1.188,-0.332 -2.059,0.825 -0.835,1.108 -0.875,1.718 -0.129,2.281 0.416,0.312 0.906,0.438 1.316,0.171 0.128,-0.083 0.253,-0.22 0.431,-0.457 L -0.474,1.475 -0.605,1.646 C -0.736,1.822 -0.872,1.829 -0.991,1.739 -1.112,1.648 -1.143,1.516 -1.01,1.341 L 0,0 z"
           id="path3271"
           style="fill:#515054;fill-opacity:1;fill-rule:nonzero;stroke:none" />
      </g>
      <g
         transform="translate(335.7232,224.9608)"
         id="g3273">
        <path
           d="M 0,0 -2.211,2.935 -1.438,3.518 0.775,0.583 0,0 z"
           id="path3275"
           style="fill:#515054;fill-opacity:1;fill-rule:nonzero;stroke:none" />
      </g>
      <g
         transform="translate(337.392,228.8709)"
         id="g3277">
        <path
           d="M 0,0 C 0.249,0.187 0.326,0.316 0.08,0.643 -0.13,0.921 -0.246,0.93 -0.535,0.712 L 0,0 z M 0.529,-2.255 -1.684,0.68 -0.812,1.337 C -0.185,1.809 0.303,1.843 0.817,1.16 1.329,0.482 1.256,0.088 0.546,-0.446 L 0.413,-0.547 1.276,-1.691 0.529,-2.255 z"
           id="path3279"
           style="fill:#515054;fill-opacity:1;fill-rule:nonzero;stroke:none" />
      </g>
      <g
         transform="translate(339.9751,228.1646)"
         id="g3281">
        <path
           d="M 0,0 -2.211,2.935 -0.533,4.199 -0.077,3.594 -0.981,2.913 -0.605,2.415 0.142,2.977 0.617,2.348 -0.13,1.785 0.3,1.213 1.25,1.929 1.725,1.299 0,0 z"
           id="path3283"
           style="fill:#515054;fill-opacity:1;fill-rule:nonzero;stroke:none" />
      </g>
      <g
         transform="translate(342.1251,231.0275)"
         id="g3285">
        <path
           d="m 0,0 c 0.132,-0.176 0.267,-0.183 0.387,-0.093 0.119,0.09 0.151,0.223 0.018,0.399 L 0.186,0.596 -0.008,0.45 -0.42,0.998 0.547,1.727 1.776,0.096 1.381,-0.203 1.153,-0.131 C 1.096,-0.391 0.97,-0.589 0.74,-0.762 -0.029,-1.342 -0.448,-1.094 -1.319,0.063 -2.155,1.171 -2.195,1.781 -1.448,2.344 -1.034,2.656 -0.544,2.782 -0.133,2.515 -0.004,2.432 0.12,2.295 0.299,2.058 L -0.476,1.474 -0.605,1.646 C -0.737,1.822 -0.873,1.828 -0.993,1.738 -1.112,1.648 -1.143,1.516 -1.011,1.341 L 0,0 z"
           id="path3287"
           style="fill:#515054;fill-opacity:1;fill-rule:nonzero;stroke:none" />
      </g>
      <g
         transform="translate(344.3534,231.4633)"
         id="g3289">
        <path
           d="M 0,0 -2.212,2.935 -1.438,3.518 0.773,0.583 0,0 z"
           id="path3291"
           style="fill:#515054;fill-opacity:1;fill-rule:nonzero;stroke:none" />
      </g>
      <g
         transform="translate(346.0222,235.3737)"
         id="g3293">
        <path
           d="M 0,0 C 0.248,0.187 0.326,0.316 0.078,0.643 -0.13,0.921 -0.246,0.93 -0.537,0.712 L 0,0 z M 0.527,-2.255 -1.684,0.68 -0.812,1.337 C -0.186,1.809 0.302,1.843 0.816,1.16 1.327,0.482 1.256,0.088 0.546,-0.446 L 0.412,-0.547 1.274,-1.692 0.527,-2.255 z"
           id="path3295"
           style="fill:#515054;fill-opacity:1;fill-rule:nonzero;stroke:none" />
      </g>
      <g
         transform="translate(348.6053,234.6675)"
         id="g3297">
        <path
           d="M 0,0 -2.211,2.935 -0.534,4.199 -0.078,3.594 -0.982,2.913 -0.606,2.415 0.141,2.977 0.615,2.348 -0.132,1.785 0.3,1.213 1.249,1.929 1.723,1.299 0,0 z"
           id="path3299"
           style="fill:#515054;fill-opacity:1;fill-rule:nonzero;stroke:none" />
      </g>
      <g
         transform="translate(350.7538,237.5304)"
         id="g3301">
        <path
           d="m 0,0 c 0.133,-0.176 0.268,-0.183 0.388,-0.093 0.12,0.09 0.15,0.223 0.017,0.399 L 0.187,0.596 -0.007,0.45 -0.42,0.998 0.549,1.727 1.778,0.096 1.381,-0.203 1.153,-0.131 C 1.096,-0.391 0.971,-0.589 0.74,-0.763 -0.029,-1.342 -0.448,-1.094 -1.319,0.063 -2.154,1.171 -2.195,1.781 -1.448,2.344 -1.034,2.656 -0.542,2.782 -0.132,2.515 -0.004,2.432 0.121,2.295 0.299,2.058 L -0.476,1.474 -0.605,1.646 C -0.737,1.822 -0.872,1.828 -0.993,1.738 -1.112,1.648 -1.143,1.516 -1.01,1.341 L 0,0 z"
           id="path3303"
           style="fill:#515054;fill-opacity:1;fill-rule:nonzero;stroke:none" />
      </g>
      <g
         transform="translate(317.1387,204.7374)"
         id="g3305">
        <path
           d="M 0,0 -2.212,2.935 -1.437,3.519 0.774,0.583 0,0 z"
           id="path3307"
           style="fill:#515054;fill-opacity:1;fill-rule:nonzero;stroke:none" />
      </g>
      <g
         transform="translate(318.8076,208.6478)"
         id="g3309">
        <path
           d="M 0,0 C 0.249,0.188 0.326,0.316 0.08,0.643 -0.13,0.921 -0.245,0.93 -0.535,0.712 L 0,0 z M 0.528,-2.255 -1.683,0.68 -0.812,1.337 C -0.185,1.809 0.302,1.843 0.817,1.161 1.328,0.482 1.256,0.088 0.546,-0.446 L 0.413,-0.547 1.275,-1.691 0.528,-2.255 z"
           id="path3311"
           style="fill:#515054;fill-opacity:1;fill-rule:nonzero;stroke:none" />
      </g>
      <g
         transform="translate(321.3914,207.9422)"
         id="g3313">
        <path
           d="M 0,0 -2.212,2.934 -0.534,4.199 -0.078,3.594 -0.981,2.913 -0.605,2.414 0.142,2.977 0.616,2.348 -0.131,1.785 0.3,1.213 1.249,1.928 1.723,1.299 0,0 z"
           id="path3315"
           style="fill:#515054;fill-opacity:1;fill-rule:nonzero;stroke:none" />
      </g>
      <g
         transform="translate(323.5399,210.8044)"
         id="g3317">
        <path
           d="m 0,0 c 0.133,-0.176 0.268,-0.183 0.387,-0.093 0.121,0.09 0.151,0.223 0.019,0.399 L 0.187,0.596 -0.007,0.45 -0.419,0.998 0.549,1.727 1.778,0.096 1.381,-0.202 1.153,-0.131 c -0.056,-0.26 -0.182,-0.458 -0.412,-0.632 -0.77,-0.579 -1.189,-0.331 -2.06,0.826 -0.835,1.108 -0.875,1.718 -0.129,2.281 0.415,0.312 0.905,0.438 1.316,0.171 C -0.004,2.432 0.121,2.295 0.3,2.058 L -0.475,1.475 -0.605,1.646 C -0.737,1.822 -0.872,1.828 -0.992,1.738 -1.112,1.648 -1.143,1.516 -1.01,1.341 L 0,0 z"
           id="path3319"
           style="fill:#515054;fill-opacity:1;fill-rule:nonzero;stroke:none" />
      </g>
      <g
         transform="translate(325.7682,211.2402)"
         id="g3321">
        <path
           d="M 0,0 -2.212,2.935 -1.437,3.519 0.775,0.583 0,0 z"
           id="path3323"
           style="fill:#515054;fill-opacity:1;fill-rule:nonzero;stroke:none" />
      </g>
      <g
         transform="translate(327.4371,215.1507)"
         id="g3325">
        <path
           d="M 0,0 C 0.249,0.188 0.326,0.316 0.08,0.643 -0.13,0.921 -0.245,0.93 -0.535,0.712 L 0,0 z M 0.529,-2.255 -1.683,0.68 -0.812,1.337 C -0.185,1.809 0.302,1.843 0.817,1.161 1.328,0.482 1.256,0.088 0.546,-0.446 L 0.413,-0.547 1.275,-1.691 0.529,-2.255 z"
           id="path3327"
           style="fill:#515054;fill-opacity:1;fill-rule:nonzero;stroke:none" />
      </g>
      <g
         transform="translate(330.0208,214.4451)"
         id="g3329">
        <path
           d="M 0,0 -2.212,2.934 -0.534,4.199 -0.078,3.594 -0.981,2.913 -0.605,2.414 0.141,2.977 0.616,2.348 -0.131,1.785 0.3,1.213 1.249,1.928 1.723,1.299 0,0 z"
           id="path3331"
           style="fill:#515054;fill-opacity:1;fill-rule:nonzero;stroke:none" />
      </g>
      <g
         transform="translate(332.1688,217.3073)"
         id="g3333">
        <path
           d="m 0,0 c 0.133,-0.176 0.268,-0.183 0.388,-0.093 0.12,0.09 0.15,0.223 0.019,0.399 L 0.187,0.596 -0.007,0.45 -0.419,0.998 0.549,1.727 1.778,0.096 1.382,-0.202 1.153,-0.131 c -0.055,-0.26 -0.182,-0.458 -0.412,-0.632 -0.77,-0.579 -1.189,-0.331 -2.06,0.826 -0.834,1.108 -0.875,1.718 -0.128,2.281 0.415,0.312 0.905,0.438 1.315,0.171 C -0.004,2.432 0.121,2.295 0.3,2.058 L -0.474,1.475 -0.605,1.646 C -0.736,1.822 -0.871,1.828 -0.991,1.738 -1.111,1.648 -1.142,1.516 -1.009,1.341 L 0,0 z"
           id="path3335"
           style="fill:#515054;fill-opacity:1;fill-rule:nonzero;stroke:none" />
      </g>
      <g
         transform="translate(334.3971,217.743)"
         id="g3337">
        <path
           d="M 0,0 -2.211,2.935 -1.436,3.518 0.775,0.583 0,0 z"
           id="path3339"
           style="fill:#515054;fill-opacity:1;fill-rule:nonzero;stroke:none" />
      </g>
      <g
         transform="translate(336.0659,221.6535)"
         id="g3341">
        <path
           d="M 0,0 C 0.25,0.187 0.326,0.316 0.08,0.643 -0.13,0.921 -0.245,0.93 -0.535,0.712 L 0,0 z m 0.529,-2.255 -2.211,2.935 0.87,0.657 C -0.185,1.808 0.303,1.843 0.817,1.16 1.329,0.482 1.257,0.088 0.546,-0.447 l -0.133,-0.1 0.863,-1.144 -0.747,-0.564 z"
           id="path3343"
           style="fill:#515054;fill-opacity:1;fill-rule:nonzero;stroke:none" />
      </g>
      <g
         transform="translate(338.6491,220.9473)"
         id="g3345">
        <path
           d="M 0,0 -2.211,2.934 -0.533,4.199 -0.077,3.594 -0.981,2.913 -0.605,2.415 0.142,2.977 0.616,2.348 -0.13,1.785 0.3,1.213 1.25,1.929 1.725,1.299 0,0 z"
           id="path3347"
           style="fill:#515054;fill-opacity:1;fill-rule:nonzero;stroke:none" />
      </g>
      <g
         transform="translate(340.7989,223.8102)"
         id="g3349">
        <path
           d="m 0,0 c 0.133,-0.177 0.267,-0.183 0.387,-0.093 0.121,0.09 0.151,0.223 0.018,0.399 L 0.186,0.596 -0.007,0.45 -0.42,0.997 0.549,1.727 1.777,0.096 1.381,-0.203 1.153,-0.131 C 1.096,-0.391 0.97,-0.589 0.74,-0.763 -0.029,-1.343 -0.448,-1.094 -1.319,0.062 -2.154,1.171 -2.195,1.78 -1.448,2.343 -1.034,2.656 -0.543,2.782 -0.133,2.515 -0.004,2.432 0.12,2.295 0.299,2.058 L -0.476,1.474 -0.605,1.646 C -0.737,1.822 -0.873,1.828 -0.993,1.738 -1.112,1.648 -1.143,1.516 -1.01,1.34 L 0,0 z"
           id="path3351"
           style="fill:#515054;fill-opacity:1;fill-rule:nonzero;stroke:none" />
      </g>
      <g
         transform="translate(343.0272,224.2459)"
         id="g3353">
        <path
           d="M 0,0 -2.212,2.935 -1.438,3.518 0.773,0.583 0,0 z"
           id="path3355"
           style="fill:#515054;fill-opacity:1;fill-rule:nonzero;stroke:none" />
      </g>
      <g
         transform="translate(344.6962,228.1561)"
         id="g3357">
        <path
           d="M 0,0 C 0.248,0.187 0.326,0.316 0.078,0.643 -0.13,0.921 -0.246,0.93 -0.535,0.712 L 0,0 z M 0.527,-2.254 -1.684,0.68 -0.812,1.337 C -0.185,1.808 0.302,1.843 0.817,1.16 1.327,0.482 1.256,0.088 0.546,-0.447 l -0.134,-0.1 0.862,-1.144 -0.747,-0.563 z"
           id="path3359"
           style="fill:#515054;fill-opacity:1;fill-rule:nonzero;stroke:none" />
      </g>
      <g
         transform="translate(347.2791,227.4501)"
         id="g3361">
        <path
           d="M 0,0 -2.211,2.934 -0.534,4.199 -0.078,3.593 -0.981,2.913 -0.605,2.415 0.141,2.977 0.615,2.348 -0.13,1.785 0.3,1.213 1.249,1.928 1.723,1.299 0,0 z"
           id="path3363"
           style="fill:#515054;fill-opacity:1;fill-rule:nonzero;stroke:none" />
      </g>
      <g
         transform="translate(349.4276,230.3126)"
         id="g3365">
        <path
           d="m 0,0 c 0.133,-0.177 0.268,-0.183 0.388,-0.093 0.12,0.09 0.15,0.223 0.019,0.399 L 0.187,0.596 -0.007,0.45 -0.419,0.997 0.549,1.727 1.778,0.096 1.381,-0.203 1.153,-0.131 c -0.055,-0.26 -0.182,-0.458 -0.412,-0.632 -0.77,-0.58 -1.189,-0.331 -2.06,0.825 -0.835,1.109 -0.876,1.719 -0.129,2.281 0.416,0.313 0.906,0.439 1.316,0.172 0.128,-0.083 0.253,-0.22 0.431,-0.457 L -0.474,1.474 -0.605,1.646 C -0.736,1.822 -0.872,1.828 -0.991,1.738 -1.111,1.648 -1.143,1.516 -1.01,1.34 L 0,0 z"
           id="path3367"
           style="fill:#515054;fill-opacity:1;fill-rule:nonzero;stroke:none" />
      </g>
      <g
         transform="translate(326.1104,207.933)"
         id="g3369">
        <path
           d="M 0,0 C 0.249,0.187 0.326,0.316 0.08,0.643 -0.13,0.921 -0.245,0.93 -0.535,0.711 L 0,0 z M 0.529,-2.255 -1.683,0.68 -0.811,1.337 C -0.185,1.809 0.303,1.843 0.817,1.16 1.329,0.482 1.256,0.088 0.547,-0.447 L 0.413,-0.548 1.276,-1.692 0.529,-2.255 z"
           id="path3371"
           style="fill:#515054;fill-opacity:1;fill-rule:nonzero;stroke:none" />
      </g>
      <g
         transform="translate(328.6942,207.2267)"
         id="g3373">
        <path
           d="M 0,0 -2.212,2.935 -0.534,4.199 -0.078,3.594 -0.981,2.913 -0.605,2.414 0.141,2.977 0.616,2.348 -0.131,1.785 0.3,1.213 1.25,1.929 1.724,1.299 0,0 z"
           id="path3375"
           style="fill:#515054;fill-opacity:1;fill-rule:nonzero;stroke:none" />
      </g>
      <g
         transform="translate(330.8434,210.0895)"
         id="g3377">
        <path
           d="m 0,0 c 0.132,-0.176 0.267,-0.183 0.387,-0.093 0.12,0.09 0.15,0.223 0.018,0.399 L 0.187,0.595 -0.007,0.45 -0.42,0.997 0.548,1.727 1.777,0.096 1.381,-0.203 1.153,-0.132 C 1.096,-0.391 0.971,-0.589 0.739,-0.763 -0.03,-1.343 -0.448,-1.094 -1.32,0.062 -2.155,1.171 -2.195,1.781 -1.448,2.343 -1.034,2.656 -0.543,2.782 -0.132,2.515 -0.004,2.432 0.12,2.295 0.299,2.058 L -0.476,1.474 -0.605,1.646 C -0.737,1.822 -0.872,1.828 -0.993,1.738 -1.112,1.648 -1.143,1.516 -1.011,1.341 L 0,0 z"
           id="path3379"
           style="fill:#515054;fill-opacity:1;fill-rule:nonzero;stroke:none" />
      </g>
      <g
         transform="translate(333.071,210.5253)"
         id="g3381">
        <path
           d="M 0,0 -2.211,2.935 -1.438,3.519 0.775,0.583 0,0 z"
           id="path3383"
           style="fill:#515054;fill-opacity:1;fill-rule:nonzero;stroke:none" />
      </g>
      <g
         transform="translate(334.7399,214.4359)"
         id="g3385">
        <path
           d="M 0,0 C 0.248,0.187 0.326,0.316 0.08,0.643 -0.13,0.921 -0.246,0.93 -0.535,0.711 L 0,0 z M 0.529,-2.255 -1.683,0.68 -0.812,1.337 C -0.185,1.809 0.303,1.843 0.817,1.16 1.329,0.482 1.256,0.088 0.546,-0.447 L 0.412,-0.548 1.276,-1.692 0.529,-2.255 z"
           id="path3387"
           style="fill:#515054;fill-opacity:1;fill-rule:nonzero;stroke:none" />
      </g>
      <g
         transform="translate(337.323,213.7296)"
         id="g3389">
        <path
           d="M 0,0 -2.211,2.935 -0.533,4.199 -0.077,3.594 -0.981,2.913 -0.605,2.414 0.142,2.977 0.617,2.348 -0.13,1.785 0.3,1.212 1.25,1.929 1.725,1.299 0,0 z"
           id="path3391"
           style="fill:#515054;fill-opacity:1;fill-rule:nonzero;stroke:none" />
      </g>
      <g
         transform="translate(339.4727,216.5923)"
         id="g3393">
        <path
           d="m 0,0 c 0.132,-0.176 0.267,-0.183 0.387,-0.093 0.119,0.09 0.151,0.223 0.018,0.399 L 0.186,0.595 -0.008,0.45 -0.42,0.997 0.547,1.727 1.777,0.096 1.381,-0.203 1.153,-0.132 C 1.096,-0.391 0.97,-0.589 0.74,-0.763 -0.029,-1.343 -0.448,-1.094 -1.319,0.062 -2.155,1.171 -2.195,1.781 -1.448,2.343 -1.034,2.656 -0.543,2.782 -0.133,2.515 -0.004,2.432 0.12,2.295 0.299,2.058 L -0.476,1.474 -0.605,1.646 C -0.737,1.822 -0.873,1.828 -0.993,1.738 -1.112,1.648 -1.143,1.516 -1.011,1.341 L 0,0 z"
           id="path3395"
           style="fill:#515054;fill-opacity:1;fill-rule:nonzero;stroke:none" />
      </g>
      <g
         transform="translate(341.6998,217.0275)"
         id="g3397">
        <path
           d="M 0,0 -2.211,2.935 -1.436,3.519 0.775,0.584 0,0 z"
           id="path3399"
           style="fill:#515054;fill-opacity:1;fill-rule:nonzero;stroke:none" />
      </g>
      <g
         transform="translate(343.37,220.9388)"
         id="g3401">
        <path
           d="M 0,0 C 0.249,0.187 0.326,0.316 0.078,0.643 -0.13,0.921 -0.246,0.93 -0.537,0.711 L 0,0 z M 0.528,-2.255 -1.684,0.68 -0.813,1.337 C -0.186,1.808 0.302,1.843 0.816,1.16 1.327,0.481 1.256,0.088 0.545,-0.448 l -0.133,-0.1 0.862,-1.144 -0.746,-0.563 z"
           id="path3403"
           style="fill:#515054;fill-opacity:1;fill-rule:nonzero;stroke:none" />
      </g>
      <g
         transform="translate(345.9531,220.2318)"
         id="g3405">
        <path
           d="M 0,0 -2.212,2.935 -0.534,4.199 -0.078,3.594 -0.982,2.914 -0.606,2.415 0.141,2.978 0.615,2.348 -0.132,1.786 0.299,1.213 1.249,1.929 1.723,1.299 0,0 z"
           id="path3407"
           style="fill:#515054;fill-opacity:1;fill-rule:nonzero;stroke:none" />
      </g>
      <g
         transform="translate(348.1017,223.0945)"
         id="g3409">
        <path
           d="m 0,0 c 0.133,-0.176 0.267,-0.183 0.387,-0.092 0.121,0.09 0.151,0.222 0.018,0.398 L 0.186,0.596 -0.007,0.45 -0.42,0.997 0.549,1.727 1.778,0.096 1.381,-0.203 1.153,-0.131 C 1.096,-0.391 0.971,-0.589 0.74,-0.762 c -0.769,-0.581 -1.188,-0.332 -2.059,0.825 -0.835,1.108 -0.876,1.718 -0.129,2.28 0.414,0.313 0.905,0.439 1.316,0.172 0.128,-0.083 0.253,-0.22 0.431,-0.457 L -0.476,1.474 -0.604,1.646 C -0.737,1.822 -0.873,1.829 -0.993,1.739 -1.112,1.648 -1.143,1.517 -1.01,1.341 L 0,0 z"
           id="path3411"
           style="fill:#515054;fill-opacity:1;fill-rule:nonzero;stroke:none" />
      </g>
      <g
         transform="translate(350.33,223.5303)"
         id="g3413">
        <path
           d="M 0,0 -2.211,2.935 -1.438,3.519 0.775,0.584 0,0 z"
           id="path3415"
           style="fill:#515054;fill-opacity:1;fill-rule:nonzero;stroke:none" />
      </g>
      <g
         transform="translate(333.4138,207.2181)"
         id="g3417">
        <path
           d="M 0,0 C 0.248,0.187 0.326,0.316 0.08,0.643 -0.13,0.921 -0.246,0.93 -0.535,0.711 L 0,0 z M 0.529,-2.255 -1.684,0.68 -0.812,1.337 C -0.185,1.809 0.303,1.843 0.817,1.16 1.329,0.482 1.257,0.088 0.546,-0.447 l -0.133,-0.1 0.863,-1.145 -0.747,-0.563 z"
           id="path3419"
           style="fill:#515054;fill-opacity:1;fill-rule:nonzero;stroke:none" />
      </g>
      <g
         transform="translate(335.9969,206.5118)"
         id="g3421">
        <path
           d="M 0,0 -2.211,2.935 -0.533,4.199 -0.077,3.594 -0.981,2.913 -0.605,2.415 0.142,2.978 0.616,2.348 -0.13,1.785 0.3,1.213 1.25,1.929 1.725,1.299 0,0 z"
           id="path3423"
           style="fill:#515054;fill-opacity:1;fill-rule:nonzero;stroke:none" />
      </g>
      <g
         transform="translate(338.1468,209.3746)"
         id="g3425">
        <path
           d="m 0,0 c 0.132,-0.176 0.267,-0.183 0.387,-0.093 0.121,0.09 0.151,0.223 0.018,0.399 L 0.186,0.595 -0.007,0.45 -0.42,0.997 0.547,1.727 1.777,0.096 1.381,-0.203 1.153,-0.131 C 1.096,-0.391 0.97,-0.589 0.74,-0.763 -0.029,-1.342 -0.448,-1.094 -1.319,0.062 -2.154,1.171 -2.195,1.78 -1.448,2.343 -1.034,2.656 -0.543,2.782 -0.133,2.515 -0.004,2.432 0.12,2.295 0.299,2.058 L -0.476,1.474 -0.605,1.646 C -0.737,1.822 -0.873,1.828 -0.993,1.738 -1.112,1.648 -1.143,1.516 -1.011,1.341 L 0,0 z"
           id="path3427"
           style="fill:#515054;fill-opacity:1;fill-rule:nonzero;stroke:none" />
      </g>
      <g
         transform="translate(340.3737,209.8098)"
         id="g3429">
        <path
           d="M 0,0 -2.211,2.935 -1.436,3.518 0.775,0.584 0,0 z"
           id="path3431"
           style="fill:#515054;fill-opacity:1;fill-rule:nonzero;stroke:none" />
      </g>
      <g
         transform="translate(342.0439,213.7209)"
         id="g3433">
        <path
           d="M 0,0 C 0.249,0.187 0.326,0.316 0.078,0.643 -0.13,0.921 -0.246,0.93 -0.537,0.711 L 0,0 z M 0.528,-2.255 -1.684,0.68 -0.813,1.337 C -0.186,1.808 0.302,1.843 0.816,1.16 1.327,0.481 1.256,0.088 0.546,-0.447 l -0.134,-0.1 0.862,-1.145 -0.746,-0.563 z"
           id="path3435"
           style="fill:#515054;fill-opacity:1;fill-rule:nonzero;stroke:none" />
      </g>
      <g
         transform="translate(344.627,213.014)"
         id="g3437">
        <path
           d="M 0,0 -2.212,2.935 -0.534,4.2 -0.078,3.594 -0.982,2.914 -0.606,2.416 0.141,2.978 0.615,2.348 -0.132,1.786 0.3,1.214 1.249,1.929 1.723,1.3 0,0 z"
           id="path3439"
           style="fill:#515054;fill-opacity:1;fill-rule:nonzero;stroke:none" />
      </g>
      <g
         transform="translate(346.7755,215.8775)"
         id="g3441">
        <path
           d="m 0,0 c 0.133,-0.177 0.268,-0.183 0.388,-0.093 0.12,0.09 0.15,0.222 0.017,0.399 L 0.187,0.595 -0.007,0.449 -0.42,0.997 0.549,1.727 1.778,0.096 1.381,-0.203 1.153,-0.131 C 1.096,-0.391 0.971,-0.589 0.74,-0.763 c -0.769,-0.58 -1.188,-0.331 -2.059,0.825 -0.835,1.109 -0.876,1.719 -0.129,2.281 0.414,0.313 0.905,0.439 1.316,0.172 0.128,-0.083 0.253,-0.22 0.431,-0.457 L -0.476,1.474 -0.605,1.646 C -0.737,1.822 -0.873,1.828 -0.993,1.738 -1.112,1.648 -1.143,1.516 -1.01,1.34 L 0,0 z"
           id="path3443"
           style="fill:#515054;fill-opacity:1;fill-rule:nonzero;stroke:none" />
      </g>
      <g
         transform="translate(349.0038,216.3127)"
         id="g3445">
        <path
           d="M 0,0 -2.212,2.935 -1.438,3.518 0.775,0.584 0,0 z"
           id="path3447"
           style="fill:#515054;fill-opacity:1;fill-rule:nonzero;stroke:none" />
      </g>
      <g
         transform="translate(350.6728,220.2238)"
         id="g3449">
        <path
           d="M 0,0 C 0.249,0.187 0.326,0.316 0.08,0.643 -0.13,0.921 -0.246,0.93 -0.535,0.711 L 0,0 z M 0.529,-2.255 -1.684,0.68 -0.812,1.337 C -0.185,1.808 0.303,1.843 0.817,1.16 1.327,0.481 1.257,0.088 0.546,-0.447 l -0.133,-0.1 0.863,-1.145 -0.747,-0.563 z"
           id="path3451"
           style="fill:#515054;fill-opacity:1;fill-rule:nonzero;stroke:none" />
      </g>
      <g
         transform="translate(341.2175,206.8799)"
         id="g3453">
        <path
           d="M 0,0 C 0.25,0.188 0.326,0.316 0.08,0.642 -0.13,0.921 -0.246,0.93 -0.535,0.712 L 0,0 z m 0.529,-2.255 -2.211,2.935 0.87,0.657 C -0.185,1.809 0.303,1.843 0.817,1.161 1.329,0.482 1.257,0.088 0.546,-0.447 l -0.133,-0.1 0.863,-1.145 -0.747,-0.563 z"
           id="path3455"
           style="fill:#515054;fill-opacity:1;fill-rule:nonzero;stroke:none" />
      </g>
      <g
         transform="translate(343.8019,206.1738)"
         id="g3457">
        <path
           d="m 0,0 -2.212,2.935 1.678,1.264 0.456,-0.605 -0.904,-0.68 0.376,-0.5 L 0.141,2.977 0.615,2.348 -0.132,1.785 0.299,1.213 1.249,1.929 1.723,1.3 0,0 z"
           id="path3459"
           style="fill:#515054;fill-opacity:1;fill-rule:nonzero;stroke:none" />
      </g>
      <g
         transform="translate(345.9503,209.0358)"
         id="g3461">
        <path
           d="m 0,0 c 0.132,-0.175 0.267,-0.183 0.387,-0.092 0.119,0.09 0.151,0.222 0.018,0.398 L 0.186,0.597 -0.008,0.45 -0.42,0.998 0.549,1.727 1.778,0.097 1.381,-0.202 1.153,-0.13 C 1.096,-0.391 0.97,-0.589 0.74,-0.762 c -0.769,-0.58 -1.188,-0.332 -2.059,0.826 -0.836,1.107 -0.876,1.717 -0.129,2.28 0.414,0.312 0.905,0.438 1.315,0.171 C -0.004,2.432 0.12,2.296 0.299,2.058 L -0.476,1.475 -0.605,1.646 C -0.737,1.822 -0.873,1.83 -0.993,1.739 -1.112,1.649 -1.143,1.517 -1.011,1.341 L 0,0 z"
           id="path3463"
           style="fill:#515054;fill-opacity:1;fill-rule:nonzero;stroke:none" />
      </g>
      <g
         transform="translate(348.1788,209.4716)"
         id="g3465">
        <path
           d="M 0,0 -2.212,2.935 -1.438,3.519 0.773,0.584 0,0 z"
           id="path3467"
           style="fill:#515054;fill-opacity:1;fill-rule:nonzero;stroke:none" />
      </g>
      <g
         transform="translate(349.8477,213.3828)"
         id="g3469">
        <path
           d="M 0,0 C 0.249,0.188 0.326,0.316 0.078,0.642 -0.13,0.921 -0.246,0.93 -0.535,0.712 L 0,0 z M 0.529,-2.255 -1.684,0.68 -0.812,1.337 C -0.185,1.809 0.302,1.843 0.816,1.161 1.327,0.482 1.256,0.088 0.546,-0.447 l -0.134,-0.1 0.864,-1.145 -0.747,-0.563 z"
           id="path3471"
           style="fill:#515054;fill-opacity:1;fill-rule:nonzero;stroke:none" />
      </g>
    </g>
  </g>
  <g
     transform="matrix(11.759172,0,0,-11.759172,53.20791,4.41315)"
     id="g3473">
    <path
       d="m 0,0 0.644,-1.157 -4.677,-3.299 0,-3.417 4.653,-3.282 -4.178,-6.571 8.549,-3.025 -0.519,-8.145 7.46,2.481 5.438,-6.59 1.441,0 3.596,4.852 6.563,-3.774 0,3.019 -0.038,-0.087 -6.66,3.635 -4.149,-5.812 -4.086,7.264 -7.299,-2.123 0.447,7.968 -7.499,1.793 3.695,6.736 -6.212,3.37 7.224,4.383 L 3.131,0 0,0 z"
       id="path3475"
       style="fill:#ffffff;fill-opacity:1;fill-rule:nonzero;stroke:none" />
  </g>
  <g
     transform="matrix(11.759172,0,0,-11.759172,83.44541,4.41315)"
     id="g3477">
    <path
       d="m 0,0 1.165,-1.644 -7.486,-4.542 0.7,-0.379 0.219,0.403 0.236,-0.394 -0.236,0.394 -0.219,-0.403 5.809,-3.15 -3.76,-6.86 7.707,-1.841 -0.461,-8.235 7.571,2.203 4.259,-7.577 4.332,6.07 6.563,-3.581 0,1.787 -0.26,-0.604 -6.578,3.589 -3.964,-5.558 -3.911,6.955 -7.027,-2.044 0.43,7.704 -7.286,1.743 3.628,6.615 -5.915,3.207 6.963,4.226 L 1.12,0 0,0 z"
       id="path3479"
       style="fill:#000000;fill-opacity:1;fill-rule:nonzero;stroke:none" />
  </g>
  <g
     transform="matrix(11.759172,0,0,-11.759172,-3708.3962,2839.2755)"
     id="g3481">
    <g
       clip-path="url(#clipPath3485)"
       id="g3483">
      <g
         transform="translate(326.8831,208.9441)"
         id="g3489">
        <path
           d="m 0,0 c 0,0 3.007,3.825 3.653,4.567 0.644,0.737 0.988,1.173 0.988,1.173 0,0 4.572,0.532 7.928,2.713 3.362,2.18 6.625,7.315 6.667,8.313 0.039,1 -0.565,2.302 -1.3,2.69 -0.734,0.39 -1.124,0.517 -1.124,0.517 0,0 0.644,0.809 -0.007,2.156 -0.647,1.344 -0.991,1.45 -1.853,1.623 l -0.863,0.17 c 0,0 0.645,0.652 -0.348,1.825 -0.995,1.17 -2.076,1.645 -2.504,1.559 l -0.431,-0.089 c 0,0 -0.517,0.521 -1.771,1.428 C 7.784,29.559 7.047,29.774 6.448,29.424 5.841,29.078 4.119,27.683 2.569,27.503 1.017,27.325 -1.479,25.759 -2.168,23.932 -2.854,22.105 -3.967,18.625 -4.134,16.541 -4.299,14.453 -4.731,13.586 -5.16,13.151 -5.59,12.716 -10.289,9.296 -10.717,8.6 c -0.43,-0.697 0,-9.421 0,-9.421 L -0.626,-0.811 0,0 z"
           id="path3491"
           style="fill:#ffffff;fill-opacity:1;fill-rule:nonzero;stroke:none" />
      </g>
      <g
         transform="translate(344.9127,224.9783)"
         id="g3493">
        <path
           d="m 0,0 c -0.358,-0.182 -1.076,-1.08 -1.432,-1.353 -0.361,-0.271 -2.335,-2.434 -2.335,-2.434 0,0 -0.492,-1.034 -1.394,-0.496 -0.897,0.538 -1.034,0.852 -0.811,1.62 0.223,0.763 1.21,1.934 1.972,2.878 0.763,0.948 1.794,1.804 2.288,2.118 0.494,0.319 0.988,0.453 0.988,0.453 0,0 1.165,-0.676 1.347,-1.214 C 0.803,1.036 0.359,0.18 0,0 m -9.807,3.306 c 0,0 -0.538,-0.991 -1.659,-0.138 -1.127,0.85 -0.993,0.895 -0.592,1.572 0.406,0.674 0.81,0.99 0.81,0.99 0,0 0.136,-0.585 0.628,-1.077 0.498,-0.493 1.082,-0.809 1.082,-0.809 L -9.807,3.306 z m 5.115,4.956 C -4.781,7.992 -5.058,7.488 -5.644,7.17 -5.773,7.099 -5.896,7.062 -6.013,7.032 -6.088,7.113 -6.161,7.192 -6.201,7.235 -6.232,7.263 -7.377,8.161 -7.377,8.161 L -8.37,9.062 c 0.297,0.439 0.728,1.031 0.977,1.17 0.403,0.23 0.595,0.406 0.595,0.406 0,0 0.151,0.362 1.277,-0.486 1.125,-0.855 0.92,-1.623 0.829,-1.89 m -4.721,1.951 c 0,0 -0.915,0.606 -1.826,0.911 -0.913,0.305 -0.791,0.548 -0.791,0.548 0,0 0.425,1.033 0.791,1.155 0.364,0.121 1.398,0 2.069,-0.67 0.668,-0.667 0.608,-0.667 0.486,-1.094 -0.123,-0.425 -0.729,-0.85 -0.729,-0.85 m 9.63,-6.842 c -0.762,0.404 -1.17,0.536 -1.17,0.536 0,0 0.672,0.837 -0.006,2.228 -0.676,1.392 -1.035,1.503 -1.934,1.681 l -0.9,0.176 c 0,0 0.672,0.675 -0.361,1.889 -1.039,1.21 -2.166,1.702 -2.613,1.613 l -0.448,-0.093 c 0,0 -0.54,0.539 -1.847,1.477 -1.305,0.948 -2.072,1.169 -2.697,0.807 -0.633,-0.358 -2.428,-1.801 -4.044,-1.988 -1.619,-0.184 -4.221,-1.805 -4.939,-3.696 -0.716,-1.889 -1.877,-5.49 -2.051,-7.645 -0.172,-2.162 -0.622,-3.059 -1.069,-3.509 -0.449,-0.45 -4.451,-3.131 -4.898,-3.851 -0.222,-0.358 -0.3,-2.719 -0.321,-5.016 3.29,2.202 7.464,5.032 7.787,5.408 0.538,0.632 0.807,1.172 0.807,1.172 0,0 -0.811,0.538 -1.084,1.527 -0.268,0.988 0.313,1.663 0.313,1.663 0,0 -0.18,1.261 0.041,2.471 0.222,1.217 0.623,3.15 0.71,3.419 0.091,0.271 1.028,2.747 1.43,3.781 0.403,1.034 1.435,1.89 2.29,2.386 0.852,0.499 2.066,0.636 3.278,0.954 1.214,0.316 3.103,-0.488 3.781,-1.164 0.394,-0.393 0.792,-0.608 1.063,-0.726 L -7.62,7.923 c 0.002,0 1.198,-0.943 1.198,-0.943 0.002,-0.004 0.005,-0.007 0.008,-0.01 -0.012,0 -0.03,-0.004 -0.042,-0.004 0.172,-0.175 0.329,-0.345 0.473,-0.506 0.284,-0.358 0.495,-0.683 0.482,-0.835 l 0.057,-0.593 0.283,0.566 c -0.02,0.118 -0.076,0.236 -0.127,0.353 0.082,0.123 0.173,0.247 0.285,0.376 0.627,0.72 1.032,1.125 1.032,1.125 0,0 1.345,-0.237 1.977,-1.134 0.631,-0.896 0.305,-1.155 0.305,-1.155 0,0 -1.103,-1.558 -1.643,-2.009 -0.538,-0.451 -2.069,-2.189 -2.069,-2.189 0,0 -1.16,-1.698 -2.193,-1.386 -1.037,0.312 -1.624,1.257 -1.085,2.064 0.537,0.811 1.031,1.578 1.031,1.578 0,0 1.652,0.17 2.011,0.89 0.155,0.313 0.149,0.504 0.095,0.627 -0.125,-0.14 -0.288,-0.263 -0.446,-0.39 -0.448,-0.362 -0.81,-0.002 -2.293,1.028 -1.489,1.033 -2.345,2.691 -2.345,2.691 0,0 -0.18,-0.089 -1.301,-0.494 -1.125,-0.409 -2.612,0.529 -2.612,0.529 l -0.4,-0.402 c -0.407,-0.404 -1.439,-0.003 -1.439,-0.003 0,0 -0.135,-0.586 -0.581,-1.755 -0.12,-0.315 -0.193,-0.493 -0.238,-0.593 0.054,-0.091 0.206,-0.344 0.645,-1.07 0.678,-1.121 0.231,-3.55 0.231,-3.55 0,0 0.973,-0.122 1.606,-0.571 0.054,-0.038 0.093,-0.078 0.132,-0.117 0.034,-0.233 0.058,-0.507 0.058,-0.825 0,-0.385 -0.036,-0.829 -0.129,-1.338 -0.2,-1.083 -0.401,-1.779 -0.547,-2.202 -0.147,-0.421 -0.233,-0.545 -0.231,-0.549 l 0.431,-0.268 c 0.022,0.04 0.436,0.717 0.846,2.926 0.097,0.539 0.135,1.014 0.135,1.431 0,0.598 -0.08,1.062 -0.168,1.403 0.534,0.548 1.239,0.791 1.239,0.791 0,0 0.54,-0.089 1.667,-0.399 1.121,-0.313 3.644,-2.647 3.963,-3.321 0.316,-0.673 -0.406,-0.765 -1.079,-0.81 -0.674,-0.049 -1.481,-2.028 -0.625,-2.698 0.857,-0.673 -0.092,-1.645 -0.27,-1.917 -0.176,-0.27 -0.744,-0.279 -1.46,-0.731 -0.717,-0.447 -6.57,-0.729 -6.57,-0.729 0,0 1.165,-1.989 0.449,-3.428 -0.351,-0.706 -2.677,-2.634 -4.962,-4.424 l 3.083,-0.166 0.271,0.451 c 0,0 3.134,3.961 3.808,4.727 0.673,0.764 1.031,1.215 1.031,1.215 0,0 4.767,0.55 8.266,2.806 3.504,2.256 6.907,7.569 6.951,8.601 0.041,1.034 -0.59,2.383 -1.357,2.784"
           id="path3495"
           style="fill:#000000;fill-opacity:1;fill-rule:nonzero;stroke:none" />
      </g>
    </g>
  </g>
  <path
     d="m 392.00376,391.99199 -383.99579,0 0,-383.99575 383.99579,0 0,383.99575 z M 0,400 400,400 400,0 0,0 0,400 z"
     id="path3497"
     style="fill:#000000;fill-opacity:1;fill-rule:nonzero;stroke:none" />
  <path
     d="m 400,400 -400,0 0,-64.00518 400,0 L 400,400 z"
     id="path3499"
     style="fill:#000000;fill-opacity:1;fill-rule:nonzero;stroke:none" />
  <g
     transform="matrix(11.759172,0,0,-11.759172,110.90658,345.55505)"
     id="g3501">
    <path
       d="m 0,0 0.792,0 -0.669,-3.667 -0.848,0 -0.782,3.667 0.823,0 0.357,-2.115 0.01,0 L 0,0 z"
       id="path3503"
       style="fill:#ffffff;fill-opacity:1;fill-rule:nonzero;stroke:none" />
  </g>
  <path
     d="m 123.31843,345.55505 10.08936,0 0,43.12087 -10.08936,0 0,-43.12087 z"
     id="path3505"
     style="fill:#ffffff;fill-opacity:1;fill-rule:nonzero;stroke:none" />
  <g
     transform="matrix(11.759172,0,0,-11.759172,-3708.3962,2839.2755)"
     id="g3507">
    <g
       clip-path="url(#clipPath3511)"
       id="g3509">
      <g
         transform="translate(328.0384,209.3998)"
         id="g3515">
        <path
           d="m 0,0 c 0,-0.22 0.092,-0.306 0.225,-0.306 0.132,0 0.224,0.086 0.224,0.306 l 0,1.665 C 0.449,1.884 0.357,1.971 0.225,1.971 0.092,1.971 0,1.884 0,1.665 L 0,0 z M -0.843,1.91 C -0.72,2.503 -0.322,2.727 0.225,2.727 0.771,2.727 1.17,2.503 1.292,1.91 1.333,1.721 1.348,1.394 1.348,0.832 1.348,0.27 1.333,-0.056 1.292,-0.245 1.17,-0.838 0.771,-1.062 0.225,-1.062 c -0.547,0 -0.945,0.224 -1.068,0.817 -0.041,0.189 -0.056,0.515 -0.056,1.077 0,0.562 0.015,0.889 0.056,1.078"
           id="path3517"
           style="fill:#ffffff;fill-opacity:1;fill-rule:nonzero;stroke:none" />
      </g>
      <g
         transform="translate(329.7518,208.3987)"
         id="g3519">
        <path
           d="m 0,0 0,3.667 0.858,0 0,-2.88 1.103,0 L 1.961,0 0,0 z"
           id="path3521"
           style="fill:#ffffff;fill-opacity:1;fill-rule:nonzero;stroke:none" />
      </g>
      <g
         transform="translate(332.0173,208.3987)"
         id="g3523">
        <path
           d="m 0,0 0,3.667 1.859,0 0,-0.756 -1.001,0 0,-0.623 0.828,0 0,-0.786 -0.828,0 0,-0.715 1.052,0 L 1.91,0 0,0 z"
           id="path3525"
           style="fill:#ffffff;fill-opacity:1;fill-rule:nonzero;stroke:none" />
      </g>
      <g
         transform="translate(334.2828,208.3987)"
         id="g3527">
        <path
           d="m 0,0 0,3.667 0.823,0 0.556,-1.624 0.01,0 0,1.624 0.736,0 L 2.125,0 1.328,0 0.745,1.9 0.736,1.9 0.736,0 0,0 z"
           id="path3529"
           style="fill:#ffffff;fill-opacity:1;fill-rule:nonzero;stroke:none" />
      </g>
      <g
         transform="translate(337.6611,209.3998)"
         id="g3531">
        <path
           d="M 0,0 C 0,-0.22 0.092,-0.306 0.225,-0.306 0.357,-0.306 0.46,-0.22 0.46,0 l 0,0.643 0.858,0 C 1.313,0.163 1.292,-0.123 1.252,-0.317 1.139,-0.848 0.7,-1.062 0.194,-1.062 c -0.868,0 -1.123,0.531 -1.123,1.894 0,1.364 0.255,1.895 1.123,1.895 0.506,0 0.93,-0.209 1.058,-0.725 0.04,-0.179 0.061,-0.439 0.066,-0.879 l -0.858,0 0,0.542 C 0.46,1.884 0.357,1.971 0.225,1.971 0.092,1.971 0,1.884 0,1.665 L 0,0 z"
           id="path3533"
           style="fill:#ffffff;fill-opacity:1;fill-rule:nonzero;stroke:none" />
      </g>
      <g
         transform="translate(339.3852,208.3987)"
         id="g3535">
        <path
           d="m 0,0 0,3.667 1.859,0 0,-0.756 -1.001,0 0,-0.623 0.828,0 0,-0.786 -0.828,0 0,-0.715 1.052,0 L 1.91,0 0,0 z"
           id="path3537"
           style="fill:#ffffff;fill-opacity:1;fill-rule:nonzero;stroke:none" />
      </g>
      <g
         transform="translate(348.0173,238.1339)"
         id="g3539">
        <path
           d="m 0,0 -0.316,0 0,1.541 -0.01,0 L -0.868,0 l -0.257,0 -0.516,1.541 -0.009,0 0,-1.541 -0.317,0 0,1.957 0.503,0 0.487,-1.455 0.01,0 0.475,1.455 L 0,1.957 0,0 z m -2.192,1.957 0,-0.253 -0.539,0 0,-1.704 -0.316,0 0,1.704 -0.538,0 0,0.253 1.393,0 z"
           id="path3541"
           style="fill:#ffffff;fill-opacity:1;fill-rule:nonzero;stroke:none" />
      </g>
    </g>
  </g>
</svg>
