<?xml version="1.0" encoding="UTF-8" standalone="no"?>
<!-- Created with Inkscape (http://www.inkscape.org/) -->

<svg
   xmlns:svg="http://www.w3.org/2000/svg"
   xmlns="http://www.w3.org/2000/svg"
   version="1.1"
   width="399.99997"
   height="400"
   id="svg6775">
  <defs
     id="defs6777">
    <clipPath
       id="clipPath4093">
      <path
         d="m 360.149,207.436 34.02,0 0,34.011 -34.02,0 0,-34.011 z"
         id="path4095" />
    </clipPath>
    <clipPath
       id="clipPath4081">
      <path
         d="m 360.15,207.436 34.016,0 0,34.011 -34.016,0 0,-34.011 z"
         id="path4083" />
    </clipPath>
    <clipPath
       id="clipPath4065">
      <path
         d="m 360.149,207.436 34.02,0 0,34.011 -34.02,0 0,-34.011 z"
         id="path4067" />
    </clipPath>
    <clipPath
       id="clipPath4037">
      <path
         d="m 360.15,207.436 34.016,0 0,34.011 -34.016,0 0,-34.011 z"
         id="path4039" />
    </clipPath>
    <clipPath
       id="clipPath4013">
      <path
         d="m 360.149,207.436 34.02,0 0,34.011 -34.02,0 0,-34.011 z"
         id="path4015" />
    </clipPath>
    <clipPath
       id="clipPath3989">
      <path
         d="m 360.15,207.436 34.016,0 0,34.011 -34.016,0 0,-34.011 z"
         id="path3991" />
    </clipPath>
    <clipPath
       id="clipPath3949">
      <path
         d="m 360.149,207.436 34.02,0 0,34.011 -34.02,0 0,-34.011 z"
         id="path3951" />
    </clipPath>
    <clipPath
       id="clipPath3929">
      <path
         d="m 360.15,207.436 34.016,0 0,34.011 -34.016,0 0,-34.011 z"
         id="path3931" />
    </clipPath>
    <clipPath
       id="clipPath3873">
      <path
         d="m 360.149,207.436 34.02,0 0,34.011 -34.02,0 0,-34.011 z"
         id="path3875" />
    </clipPath>
    <clipPath
       id="clipPath3841">
      <path
         d="m 360.15,207.436 34.016,0 0,34.011 -34.016,0 0,-34.011 z"
         id="path3843" />
    </clipPath>
    <clipPath
       id="clipPath3785">
      <path
         d="m 360.149,207.436 34.02,0 0,34.011 -34.02,0 0,-34.011 z"
         id="path3787" />
    </clipPath>
    <clipPath
       id="clipPath3753">
      <path
         d="m 360.15,207.436 34.016,0 0,34.011 -34.016,0 0,-34.011 z"
         id="path3755" />
    </clipPath>
    <clipPath
       id="clipPath3697">
      <path
         d="m 360.149,207.436 34.02,0 0,34.011 -34.02,0 0,-34.011 z"
         id="path3699" />
    </clipPath>
    <clipPath
       id="clipPath3673">
      <path
         d="m 360.15,207.436 34.016,0 0,34.011 -34.016,0 0,-34.011 z"
         id="path3675" />
    </clipPath>
    <clipPath
       id="clipPath3633">
      <path
         d="m 360.149,207.436 34.02,0 0,34.011 -34.02,0 0,-34.011 z"
         id="path3635" />
    </clipPath>
    <clipPath
       id="clipPath3609">
      <path
         d="m 360.15,207.436 34.016,0 0,34.011 -34.016,0 0,-34.011 z"
         id="path3611" />
    </clipPath>
    <clipPath
       id="clipPath3585">
      <path
         d="m 360.149,207.436 34.02,0 0,34.011 -34.02,0 0,-34.011 z"
         id="path3587" />
    </clipPath>
    <clipPath
       id="clipPath3553">
      <path
         d="m 360.15,207.436 34.016,0 0,34.011 -34.016,0 0,-34.011 z"
         id="path3555" />
    </clipPath>
  </defs>
  <path
     d="m 399.98852,400 -399.98825,0 0,-400 399.98825,0 0,400 z"
     id="path3543"
     style="fill:#000000;fill-opacity:1;fill-rule:nonzero;stroke:none" />
  <g
     transform="matrix(11.758826,0,0,-11.759172,0.01204,81.85202)"
     id="g3545">
    <path
       d="M 0,0 0.551,0.415 0,1.146 0,0 z"
       id="path3547"
       style="fill:#515054;fill-opacity:1;fill-rule:nonzero;stroke:none" />
  </g>
  <g
     transform="matrix(11.758826,0,0,-11.759172,-4234.9294,2839.2756)"
     id="g3549">
    <g
       clip-path="url(#clipPath3553)"
       id="g3551">
      <g
         transform="translate(361.5953,238.2332)"
         id="g3557">
        <path
           d="M 0,0 C 0.249,0.188 0.326,0.316 0.08,0.643 -0.13,0.921 -0.245,0.93 -0.536,0.712 L 0,0 z M 0.529,-2.255 -1.683,0.68 -0.812,1.337 C -0.185,1.809 0.302,1.843 0.817,1.161 1.328,0.482 1.256,0.088 0.547,-0.446 L 0.413,-0.547 1.275,-1.691 0.529,-2.255 z"
           id="path3559"
           style="fill:#515054;fill-opacity:1;fill-rule:nonzero;stroke:none" />
      </g>
      <g
         transform="translate(364.1791,237.5276)"
         id="g3561">
        <path
           d="M 0,0 -2.212,2.934 -0.534,4.199 -0.078,3.594 -0.981,2.913 -0.606,2.414 0.141,2.977 0.616,2.348 -0.131,1.784 0.3,1.212 1.25,1.928 1.724,1.299 0,0 z"
           id="path3563"
           style="fill:#515054;fill-opacity:1;fill-rule:nonzero;stroke:none" />
      </g>
      <g
         transform="translate(366.3276,240.3897)"
         id="g3565">
        <path
           d="m 0,0 c 0.132,-0.176 0.268,-0.183 0.388,-0.093 0.12,0.09 0.15,0.223 0.018,0.399 L 0.187,0.596 -0.007,0.45 -0.419,0.998 0.549,1.727 1.778,0.096 1.381,-0.202 1.153,-0.131 c -0.056,-0.26 -0.182,-0.458 -0.412,-0.632 -0.77,-0.579 -1.189,-0.331 -2.06,0.826 -0.835,1.108 -0.875,1.718 -0.129,2.281 0.415,0.312 0.905,0.438 1.316,0.171 C -0.004,2.432 0.121,2.295 0.3,2.058 L -0.475,1.475 -0.605,1.646 C -0.737,1.822 -0.872,1.828 -0.992,1.738 -1.112,1.648 -1.143,1.516 -1.01,1.341 L 0,0 z"
           id="path3567"
           style="fill:#515054;fill-opacity:1;fill-rule:nonzero;stroke:none" />
      </g>
      <g
         transform="translate(368.5559,240.8255)"
         id="g3569">
        <path
           d="M 0,0 -2.212,2.935 -1.437,3.518 0.774,0.583 0,0 z"
           id="path3571"
           style="fill:#515054;fill-opacity:1;fill-rule:nonzero;stroke:none" />
      </g>
      <g
         transform="translate(360.2692,231.0155)"
         id="g3573">
        <path
           d="M 0,0 C 0.249,0.188 0.326,0.316 0.08,0.643 -0.13,0.921 -0.245,0.93 -0.536,0.712 L 0,0 z M 0.529,-2.255 -1.683,0.68 -0.812,1.337 C -0.185,1.81 0.302,1.843 0.817,1.161 1.328,0.482 1.256,0.088 0.546,-0.446 L 0.413,-0.547 1.275,-1.692 0.529,-2.255 z"
           id="path3575"
           style="fill:#515054;fill-opacity:1;fill-rule:nonzero;stroke:none" />
      </g>
    </g>
  </g>
  <g
     transform="matrix(11.758826,0,0,-11.759172,31.79493,131.02068)"
     id="g3577">
    <path
       d="M 0,0 -2.212,2.934 -0.534,4.199 -0.078,3.594 -0.981,2.913 -0.605,2.414 0.142,2.977 0.616,2.348 -0.131,1.784 0.3,1.212 1.249,1.928 1.723,1.299 0,0 z"
       id="path3579"
       style="fill:#515054;fill-opacity:1;fill-rule:nonzero;stroke:none" />
  </g>
  <g
     transform="matrix(11.758826,0,0,-11.759172,-4234.9294,2839.2756)"
     id="g3581">
    <g
       clip-path="url(#clipPath3585)"
       id="g3583">
      <g
         transform="translate(365.0015,233.172)"
         id="g3589">
        <path
           d="m 0,0 c 0.133,-0.175 0.268,-0.183 0.388,-0.093 0.12,0.09 0.15,0.223 0.018,0.399 L 0.187,0.596 -0.007,0.45 -0.419,0.998 0.549,1.727 1.778,0.096 1.381,-0.202 1.153,-0.131 c -0.056,-0.26 -0.182,-0.458 -0.412,-0.632 -0.77,-0.579 -1.189,-0.331 -2.06,0.826 -0.835,1.108 -0.875,1.718 -0.129,2.281 0.415,0.312 0.905,0.438 1.316,0.171 C -0.004,2.432 0.121,2.295 0.3,2.058 L -0.475,1.475 -0.605,1.646 C -0.737,1.822 -0.872,1.829 -0.992,1.739 -1.111,1.648 -1.143,1.516 -1.01,1.341 L 0,0 z"
           id="path3591"
           style="fill:#515054;fill-opacity:1;fill-rule:nonzero;stroke:none" />
      </g>
      <g
         transform="translate(367.2298,233.6078)"
         id="g3593">
        <path
           d="M 0,0 -2.212,2.935 -1.437,3.519 0.774,0.583 0,0 z"
           id="path3595"
           style="fill:#515054;fill-opacity:1;fill-rule:nonzero;stroke:none" />
      </g>
      <g
         transform="translate(368.8987,237.5183)"
         id="g3597">
        <path
           d="M 0,0 C 0.249,0.187 0.326,0.316 0.079,0.643 -0.13,0.921 -0.245,0.93 -0.536,0.712 L 0,0 z M 0.528,-2.255 -1.683,0.68 -0.812,1.337 C -0.185,1.809 0.302,1.843 0.817,1.16 1.328,0.482 1.256,0.088 0.546,-0.447 l -0.133,-0.1 0.862,-1.144 -0.747,-0.564 z"
           id="path3599"
           style="fill:#515054;fill-opacity:1;fill-rule:nonzero;stroke:none" />
      </g>
    </g>
  </g>
  <g
     transform="matrix(11.758826,0,0,-11.759172,133.2607,54.56135)"
     id="g3601">
    <path
       d="M 0,0 -2.211,2.935 -0.534,4.199 -0.078,3.594 -0.981,2.913 -0.605,2.415 0.142,2.977 0.616,2.348 -0.131,1.785 0.3,1.213 1.25,1.929 1.724,1.299 0,0 z"
       id="path3603"
       style="fill:#515054;fill-opacity:1;fill-rule:nonzero;stroke:none" />
  </g>
  <g
     transform="matrix(11.758826,0,0,-11.759172,-4234.9294,2839.2756)"
     id="g3605">
    <g
       clip-path="url(#clipPath3609)"
       id="g3607">
      <g
         transform="translate(373.631,239.675)"
         id="g3613">
        <path
           d="m 0,0 c 0.133,-0.176 0.268,-0.183 0.387,-0.093 0.121,0.09 0.151,0.223 0.019,0.399 L 0.187,0.596 -0.007,0.45 -0.419,0.997 0.549,1.727 1.777,0.096 1.381,-0.203 1.153,-0.131 C 1.097,-0.391 0.971,-0.589 0.74,-0.763 -0.029,-1.343 -0.448,-1.094 -1.319,0.062 -2.154,1.171 -2.195,1.781 -1.448,2.343 -1.033,2.656 -0.543,2.782 -0.132,2.515 -0.004,2.432 0.12,2.295 0.299,2.058 L -0.475,1.474 -0.605,1.646 C -0.737,1.822 -0.872,1.828 -0.992,1.738 -1.112,1.648 -1.143,1.516 -1.01,1.341 L 0,0 z"
           id="path3615"
           style="fill:#515054;fill-opacity:1;fill-rule:nonzero;stroke:none" />
      </g>
      <g
         transform="translate(375.8593,240.1107)"
         id="g3617">
        <path
           d="M 0,0 -2.212,2.935 -1.437,3.518 0.774,0.583 0,0 z"
           id="path3619"
           style="fill:#515054;fill-opacity:1;fill-rule:nonzero;stroke:none" />
      </g>
      <g
         transform="translate(358.9432,223.7981)"
         id="g3621">
        <path
           d="M 0,0 C 0.249,0.188 0.326,0.316 0.08,0.643 -0.13,0.922 -0.245,0.93 -0.535,0.712 L 0,0 z M 0.529,-2.255 -1.683,0.68 -0.812,1.337 C -0.185,1.81 0.302,1.843 0.817,1.161 1.328,0.482 1.256,0.088 0.546,-0.446 L 0.413,-0.547 1.276,-1.691 0.529,-2.255 z"
           id="path3623"
           style="fill:#515054;fill-opacity:1;fill-rule:nonzero;stroke:none" />
      </g>
      <g
         transform="translate(361.5269,223.0925)"
         id="g3625">
        <path
           d="M 0,0 -2.212,2.934 -0.534,4.199 -0.078,3.594 -0.981,2.913 -0.605,2.414 0.142,2.978 0.616,2.348 -0.131,1.784 0.3,1.213 1.25,1.929 1.724,1.299 0,0 z"
           id="path3627"
           style="fill:#515054;fill-opacity:1;fill-rule:nonzero;stroke:none" />
      </g>
    </g>
  </g>
  <g
     transform="matrix(11.758826,0,0,-11.759172,-4234.9294,2839.2756)"
     id="g3629">
    <g
       clip-path="url(#clipPath3633)"
       id="g3631">
      <g
         transform="translate(363.6755,225.9547)"
         id="g3637">
        <path
           d="m 0,0 c 0.133,-0.175 0.268,-0.183 0.387,-0.092 0.121,0.09 0.151,0.222 0.019,0.398 L 0.187,0.596 -0.007,0.45 -0.419,0.998 0.549,1.727 1.778,0.096 1.381,-0.202 1.154,-0.13 C 1.097,-0.391 0.971,-0.589 0.741,-0.762 c -0.77,-0.58 -1.189,-0.332 -2.06,0.825 -0.835,1.108 -0.875,1.718 -0.129,2.281 0.415,0.312 0.905,0.438 1.316,0.171 C -0.004,2.432 0.121,2.295 0.3,2.058 L -0.475,1.475 -0.605,1.646 C -0.737,1.822 -0.872,1.829 -0.992,1.739 -1.112,1.648 -1.143,1.517 -1.01,1.341 L 0,0 z"
           id="path3639"
           style="fill:#515054;fill-opacity:1;fill-rule:nonzero;stroke:none" />
      </g>
      <g
         transform="translate(365.9044,226.3904)"
         id="g3641">
        <path
           d="M 0,0 -2.212,2.935 -1.438,3.518 0.774,0.583 0,0 z"
           id="path3643"
           style="fill:#515054;fill-opacity:1;fill-rule:nonzero;stroke:none" />
      </g>
      <g
         transform="translate(367.5726,230.3006)"
         id="g3645">
        <path
           d="M 0,0 C 0.249,0.188 0.326,0.316 0.08,0.643 -0.13,0.921 -0.245,0.93 -0.535,0.712 L 0,0 z M 0.529,-2.255 -1.683,0.68 -0.812,1.337 C -0.185,1.81 0.302,1.843 0.817,1.161 1.328,0.482 1.256,0.088 0.547,-0.447 l -0.134,-0.1 0.863,-1.144 -0.747,-0.564 z"
           id="path3647"
           style="fill:#515054;fill-opacity:1;fill-rule:nonzero;stroke:none" />
      </g>
      <g
         transform="translate(370.1564,229.595)"
         id="g3649">
        <path
           d="M 0,0 -2.212,2.935 -0.533,4.199 -0.078,3.594 -0.981,2.913 -0.605,2.414 0.142,2.978 0.616,2.348 -0.131,1.784 0.3,1.213 1.25,1.929 1.724,1.299 0,0 z"
           id="path3651"
           style="fill:#515054;fill-opacity:1;fill-rule:nonzero;stroke:none" />
      </g>
      <g
         transform="translate(372.3049,232.4571)"
         id="g3653">
        <path
           d="m 0,0 c 0.133,-0.175 0.268,-0.183 0.388,-0.092 0.12,0.09 0.151,0.222 0.018,0.398 L 0.187,0.596 -0.007,0.45 -0.419,0.998 0.549,1.727 1.778,0.096 1.382,-0.202 1.154,-0.13 C 1.097,-0.391 0.971,-0.589 0.741,-0.762 c -0.77,-0.58 -1.189,-0.332 -2.06,0.825 -0.835,1.108 -0.875,1.718 -0.129,2.281 0.415,0.312 0.905,0.438 1.316,0.171 C -0.004,2.432 0.121,2.295 0.3,2.058 L -0.475,1.475 -0.604,1.646 C -0.737,1.822 -0.872,1.829 -0.992,1.739 -1.111,1.648 -1.143,1.517 -1.01,1.341 L 0,0 z"
           id="path3655"
           style="fill:#515054;fill-opacity:1;fill-rule:nonzero;stroke:none" />
      </g>
      <g
         transform="translate(374.5331,232.8931)"
         id="g3657">
        <path
           d="M 0,0 -2.212,2.935 -1.437,3.519 0.775,0.583 0,0 z"
           id="path3659"
           style="fill:#515054;fill-opacity:1;fill-rule:nonzero;stroke:none" />
      </g>
      <g
         transform="translate(376.2015,236.8036)"
         id="g3661">
        <path
           d="M 0,0 C 0.25,0.187 0.326,0.316 0.08,0.643 -0.13,0.921 -0.244,0.93 -0.535,0.712 L 0,0 z M 0.529,-2.255 -1.682,0.68 -0.811,1.337 C -0.184,1.809 0.303,1.843 0.817,1.16 1.329,0.482 1.257,0.088 0.546,-0.446 L 0.413,-0.547 1.276,-1.691 0.529,-2.255 z"
           id="path3663"
           style="fill:#515054;fill-opacity:1;fill-rule:nonzero;stroke:none" />
      </g>
    </g>
  </g>
  <g
     transform="matrix(11.758826,0,0,-11.759172,219.14831,62.968)"
     id="g3665">
    <path
       d="M 0,0 -2.212,2.935 -0.534,4.199 -0.078,3.594 -0.982,2.913 -0.606,2.415 0.141,2.978 0.615,2.348 -0.132,1.785 0.3,1.214 1.249,1.929 1.723,1.299 0,0 z"
       id="path3667"
       style="fill:#515054;fill-opacity:1;fill-rule:nonzero;stroke:none" />
  </g>
  <g
     transform="matrix(11.758826,0,0,-11.759172,-4234.9294,2839.2756)"
     id="g3669">
    <g
       clip-path="url(#clipPath3673)"
       id="g3671">
      <g
         transform="translate(380.9345,238.9601)"
         id="g3677">
        <path
           d="m 0,0 c 0.133,-0.176 0.267,-0.183 0.387,-0.093 0.121,0.09 0.151,0.223 0.018,0.399 L 0.186,0.596 -0.007,0.45 -0.42,0.998 0.549,1.727 1.778,0.096 1.381,-0.203 1.153,-0.13 C 1.096,-0.391 0.971,-0.589 0.74,-0.762 -0.029,-1.342 -0.448,-1.094 -1.319,0.063 -2.154,1.171 -2.195,1.781 -1.448,2.344 -1.034,2.656 -0.544,2.782 -0.133,2.515 -0.004,2.432 0.12,2.295 0.299,2.058 L -0.476,1.474 -0.605,1.646 C -0.737,1.822 -0.873,1.828 -0.993,1.738 -1.112,1.648 -1.143,1.516 -1.01,1.341 L 0,0 z"
           id="path3679"
           style="fill:#515054;fill-opacity:1;fill-rule:nonzero;stroke:none" />
      </g>
      <g
         transform="translate(383.1627,239.3958)"
         id="g3681">
        <path
           d="M 0,0 -2.212,2.935 -1.438,3.518 0.775,0.583 0,0 z"
           id="path3683"
           style="fill:#515054;fill-opacity:1;fill-rule:nonzero;stroke:none" />
      </g>
      <g
         transform="translate(384.8317,243.3064)"
         id="g3685">
        <path
           d="M 0,0 C 0.248,0.187 0.326,0.316 0.08,0.643 -0.13,0.921 -0.246,0.93 -0.535,0.712 L 0,0 z M 0.529,-2.255 -1.684,0.68 -0.812,1.337 C -0.185,1.809 0.302,1.843 0.817,1.16 1.327,0.482 1.256,0.088 0.546,-0.446 L 0.412,-0.547 1.276,-1.692 0.529,-2.255 z"
           id="path3687"
           style="fill:#515054;fill-opacity:1;fill-rule:nonzero;stroke:none" />
      </g>
      <g
         transform="translate(360.2008,215.8748)"
         id="g3689">
        <path
           d="M 0,0 -2.211,2.935 -0.533,4.199 -0.078,3.594 -0.981,2.913 -0.605,2.414 0.142,2.977 0.616,2.348 -0.131,1.784 0.3,1.212 1.25,1.928 1.724,1.299 0,0 z"
           id="path3691"
           style="fill:#515054;fill-opacity:1;fill-rule:nonzero;stroke:none" />
      </g>
    </g>
  </g>
  <g
     transform="matrix(11.758826,0,0,-11.759172,-4234.9294,2839.2756)"
     id="g3693">
    <g
       clip-path="url(#clipPath3697)"
       id="g3695">
      <g
         transform="translate(362.35,218.7369)"
         id="g3701">
        <path
           d="m 0,0 c 0.132,-0.175 0.267,-0.183 0.387,-0.093 0.12,0.09 0.151,0.223 0.018,0.399 L 0.187,0.596 -0.007,0.45 -0.42,0.998 0.549,1.727 1.777,0.096 1.381,-0.202 1.153,-0.131 C 1.096,-0.391 0.971,-0.589 0.74,-0.763 -0.029,-1.342 -0.448,-1.094 -1.319,0.063 -2.155,1.171 -2.195,1.781 -1.448,2.344 -1.034,2.656 -0.543,2.782 -0.132,2.515 -0.004,2.432 0.12,2.295 0.299,2.058 L -0.476,1.475 -0.605,1.646 C -0.737,1.822 -0.872,1.829 -0.993,1.739 -1.112,1.648 -1.143,1.516 -1.011,1.341 L 0,0 z"
           id="path3703"
           style="fill:#515054;fill-opacity:1;fill-rule:nonzero;stroke:none" />
      </g>
      <g
         transform="translate(364.5777,219.1729)"
         id="g3705">
        <path
           d="M 0,0 -2.211,2.935 -1.436,3.518 0.775,0.583 0,0 z"
           id="path3707"
           style="fill:#515054;fill-opacity:1;fill-rule:nonzero;stroke:none" />
      </g>
      <g
         transform="translate(366.2472,223.0833)"
         id="g3709">
        <path
           d="M 0,0 C 0.249,0.188 0.326,0.316 0.079,0.643 -0.13,0.921 -0.246,0.93 -0.536,0.712 L 0,0 z M 0.528,-2.255 -1.683,0.68 -0.812,1.337 C -0.185,1.81 0.302,1.843 0.817,1.161 1.328,0.482 1.256,0.088 0.546,-0.447 l -0.133,-0.1 0.862,-1.144 -0.747,-0.564 z"
           id="path3711"
           style="fill:#515054;fill-opacity:1;fill-rule:nonzero;stroke:none" />
      </g>
      <g
         transform="translate(368.8303,222.3777)"
         id="g3713">
        <path
           d="M 0,0 -2.211,2.935 -0.534,4.199 -0.078,3.594 -0.981,2.913 -0.605,2.414 0.142,2.977 0.616,2.348 -0.131,1.784 0.3,1.212 1.25,1.928 1.724,1.299 0,0 z"
           id="path3715"
           style="fill:#515054;fill-opacity:1;fill-rule:nonzero;stroke:none" />
      </g>
      <g
         transform="translate(370.9795,225.2397)"
         id="g3717">
        <path
           d="m 0,0 c 0.132,-0.175 0.268,-0.183 0.387,-0.093 0.121,0.09 0.151,0.223 0.018,0.399 L 0.187,0.596 -0.007,0.45 -0.42,0.998 0.549,1.727 1.777,0.096 1.381,-0.202 1.153,-0.131 C 1.096,-0.391 0.971,-0.589 0.74,-0.763 -0.029,-1.342 -0.448,-1.094 -1.319,0.063 -2.155,1.171 -2.195,1.781 -1.448,2.344 -1.033,2.656 -0.543,2.782 -0.132,2.515 -0.004,2.432 0.12,2.295 0.299,2.058 L -0.476,1.475 -0.605,1.646 C -0.737,1.822 -0.872,1.829 -0.992,1.739 -1.112,1.648 -1.143,1.516 -1.01,1.341 L 0,0 z"
           id="path3719"
           style="fill:#515054;fill-opacity:1;fill-rule:nonzero;stroke:none" />
      </g>
      <g
         transform="translate(373.2072,225.6756)"
         id="g3721">
        <path
           d="M 0,0 -2.211,2.935 -1.437,3.518 0.775,0.583 0,0 z"
           id="path3723"
           style="fill:#515054;fill-opacity:1;fill-rule:nonzero;stroke:none" />
      </g>
      <g
         transform="translate(374.8767,229.5857)"
         id="g3725">
        <path
           d="M 0,0 C 0.248,0.187 0.326,0.316 0.079,0.643 -0.13,0.921 -0.246,0.93 -0.536,0.712 L 0,0 z M 0.528,-2.255 -1.684,0.68 -0.812,1.337 C -0.185,1.809 0.302,1.843 0.816,1.16 1.327,0.482 1.256,0.088 0.546,-0.447 l -0.133,-0.1 0.861,-1.144 -0.746,-0.564 z"
           id="path3727"
           style="fill:#515054;fill-opacity:1;fill-rule:nonzero;stroke:none" />
      </g>
      <g
         transform="translate(377.4597,228.8795)"
         id="g3729">
        <path
           d="M 0,0 -2.212,2.935 -0.534,4.2 -0.078,3.594 -0.982,2.913 -0.606,2.415 0.141,2.977 0.615,2.348 -0.132,1.785 0.299,1.213 1.249,1.929 1.723,1.299 0,0 z"
           id="path3731"
           style="fill:#515054;fill-opacity:1;fill-rule:nonzero;stroke:none" />
      </g>
      <g
         transform="translate(379.6083,231.7423)"
         id="g3733">
        <path
           d="m 0,0 c 0.133,-0.176 0.268,-0.183 0.388,-0.093 0.12,0.09 0.15,0.223 0.017,0.399 L 0.187,0.596 -0.007,0.45 -0.42,0.997 0.549,1.727 1.778,0.096 1.381,-0.203 1.153,-0.131 C 1.096,-0.391 0.971,-0.589 0.74,-0.763 c -0.769,-0.58 -1.188,-0.331 -2.059,0.825 -0.835,1.109 -0.876,1.719 -0.129,2.281 0.414,0.313 0.905,0.439 1.316,0.172 0.128,-0.083 0.253,-0.22 0.431,-0.457 L -0.476,1.474 -0.605,1.646 C -0.737,1.822 -0.872,1.828 -0.992,1.738 -1.112,1.648 -1.143,1.516 -1.01,1.341 L 0,0 z"
           id="path3735"
           style="fill:#515054;fill-opacity:1;fill-rule:nonzero;stroke:none" />
      </g>
      <g
         transform="translate(381.8366,232.1781)"
         id="g3737">
        <path
           d="M 0,0 -2.211,2.935 -1.438,3.518 0.775,0.583 0,0 z"
           id="path3739"
           style="fill:#515054;fill-opacity:1;fill-rule:nonzero;stroke:none" />
      </g>
      <g
         transform="translate(383.5056,236.0887)"
         id="g3741">
        <path
           d="M 0,0 C 0.248,0.187 0.326,0.316 0.08,0.643 -0.13,0.921 -0.246,0.93 -0.536,0.712 L 0,0 z M 0.529,-2.255 -1.684,0.68 -0.812,1.337 C -0.185,1.809 0.303,1.843 0.817,1.16 1.329,0.482 1.256,0.088 0.546,-0.447 l -0.133,-0.1 0.863,-1.144 -0.747,-0.564 z"
           id="path3743"
           style="fill:#515054;fill-opacity:1;fill-rule:nonzero;stroke:none" />
      </g>
      <g
         transform="translate(386.0886,235.3824)"
         id="g3745">
        <path
           d="M 0,0 -2.211,2.935 -0.533,4.199 -0.077,3.594 -0.981,2.913 -0.605,2.415 0.142,2.977 0.617,2.348 -0.13,1.785 0.3,1.213 1.25,1.929 1.725,1.299 0,0 z"
           id="path3747"
           style="fill:#515054;fill-opacity:1;fill-rule:nonzero;stroke:none" />
      </g>
    </g>
  </g>
  <g
     transform="matrix(11.758826,0,0,-11.759172,-4234.9294,2839.2756)"
     id="g3749">
    <g
       clip-path="url(#clipPath3753)"
       id="g3751">
      <g
         transform="translate(388.2385,238.2451)"
         id="g3757">
        <path
           d="m 0,0 c 0.132,-0.176 0.267,-0.183 0.387,-0.093 0.119,0.09 0.151,0.223 0.018,0.399 L 0.186,0.596 -0.008,0.45 -0.42,0.997 0.547,1.727 1.777,0.096 1.381,-0.203 1.153,-0.131 C 1.096,-0.391 0.97,-0.589 0.74,-0.763 -0.029,-1.343 -0.448,-1.094 -1.319,0.062 -2.155,1.171 -2.195,1.781 -1.448,2.343 -1.034,2.656 -0.543,2.782 -0.133,2.515 -0.004,2.432 0.12,2.295 0.299,2.058 L -0.476,1.474 -0.605,1.646 C -0.737,1.822 -0.873,1.828 -0.993,1.738 -1.112,1.648 -1.143,1.516 -1.011,1.341 L 0,0 z"
           id="path3759"
           style="fill:#515054;fill-opacity:1;fill-rule:nonzero;stroke:none" />
      </g>
      <g
         transform="translate(390.4655,238.6811)"
         id="g3761">
        <path
           d="M 0,0 -2.211,2.935 -1.436,3.518 0.775,0.583 0,0 z"
           id="path3763"
           style="fill:#515054;fill-opacity:1;fill-rule:nonzero;stroke:none" />
      </g>
      <g
         transform="translate(392.1344,242.5915)"
         id="g3765">
        <path
           d="M 0,0 C 0.25,0.187 0.327,0.316 0.08,0.642 -0.129,0.921 -0.244,0.93 -0.535,0.711 L 0,0 z m 0.529,-2.255 -2.211,2.935 0.87,0.657 C -0.185,1.808 0.303,1.843 0.817,1.16 1.329,0.482 1.257,0.088 0.546,-0.447 L 0.413,-0.548 1.276,-1.692 0.529,-2.255 z"
           id="path3767"
           style="fill:#515054;fill-opacity:1;fill-rule:nonzero;stroke:none" />
      </g>
      <g
         transform="translate(358.8754,208.6572)"
         id="g3769">
        <path
           d="M 0,0 -2.212,2.935 -0.534,4.199 -0.078,3.594 -0.982,2.913 -0.606,2.414 0.141,2.977 0.615,2.348 -0.132,1.785 0.3,1.213 1.249,1.928 1.723,1.299 0,0 z"
           id="path3771"
           style="fill:#515054;fill-opacity:1;fill-rule:nonzero;stroke:none" />
      </g>
      <g
         transform="translate(361.0239,211.5192)"
         id="g3773">
        <path
           d="m 0,0 c 0.132,-0.175 0.267,-0.183 0.387,-0.092 0.12,0.09 0.151,0.222 0.018,0.398 L 0.187,0.596 -0.007,0.45 -0.42,0.998 0.548,1.727 1.777,0.096 1.381,-0.202 1.153,-0.131 C 1.096,-0.391 0.971,-0.589 0.74,-0.762 -0.029,-1.342 -0.448,-1.094 -1.319,0.063 -2.155,1.171 -2.195,1.781 -1.448,2.344 -1.034,2.656 -0.543,2.782 -0.132,2.515 -0.004,2.432 0.12,2.295 0.299,2.058 L -0.476,1.475 -0.605,1.646 C -0.737,1.822 -0.872,1.829 -0.993,1.739 -1.112,1.648 -1.143,1.516 -1.01,1.341 L 0,0 z"
           id="path3775"
           style="fill:#515054;fill-opacity:1;fill-rule:nonzero;stroke:none" />
      </g>
    </g>
  </g>
  <g
     transform="matrix(11.758826,0,0,-11.759172,36.49027,346.86032)"
     id="g3777">
    <path
       d="M 0,0 -2.212,2.935 -1.437,3.519 0.775,0.583 0,0 z"
       id="path3779"
       style="fill:#515054;fill-opacity:1;fill-rule:nonzero;stroke:none" />
  </g>
  <g
     transform="matrix(11.758826,0,0,-11.759172,-4234.9294,2839.2756)"
     id="g3781">
    <g
       clip-path="url(#clipPath3785)"
       id="g3783">
      <g
         transform="translate(364.9211,215.8655)"
         id="g3789">
        <path
           d="M 0,0 C 0.249,0.188 0.326,0.316 0.079,0.643 -0.13,0.921 -0.246,0.93 -0.536,0.712 L 0,0 z M 0.528,-2.255 -1.684,0.68 -0.812,1.337 C -0.185,1.81 0.302,1.843 0.816,1.161 1.328,0.482 1.256,0.088 0.546,-0.446 L 0.413,-0.547 1.275,-1.691 0.528,-2.255 z"
           id="path3791"
           style="fill:#515054;fill-opacity:1;fill-rule:nonzero;stroke:none" />
      </g>
      <g
         transform="translate(367.5048,215.1599)"
         id="g3793">
        <path
           d="M 0,0 -2.212,2.935 -0.534,4.199 -0.078,3.594 -0.982,2.913 -0.606,2.414 0.141,2.977 0.615,2.348 -0.131,1.785 0.3,1.212 1.249,1.928 1.723,1.299 0,0 z"
           id="path3795"
           style="fill:#515054;fill-opacity:1;fill-rule:nonzero;stroke:none" />
      </g>
      <g
         transform="translate(369.6534,218.022)"
         id="g3797">
        <path
           d="m 0,0 c 0.132,-0.175 0.267,-0.183 0.387,-0.092 0.12,0.09 0.151,0.222 0.018,0.398 L 0.187,0.596 -0.007,0.451 -0.42,0.998 0.549,1.727 1.778,0.096 1.381,-0.202 1.153,-0.131 C 1.096,-0.391 0.971,-0.589 0.74,-0.762 -0.029,-1.342 -0.448,-1.094 -1.319,0.063 -2.155,1.171 -2.195,1.781 -1.448,2.344 -1.033,2.656 -0.543,2.782 -0.132,2.515 -0.004,2.432 0.12,2.295 0.299,2.058 L -0.476,1.475 -0.604,1.646 C -0.737,1.822 -0.872,1.829 -0.993,1.739 -1.112,1.648 -1.143,1.516 -1.01,1.341 L 0,0 z"
           id="path3799"
           style="fill:#515054;fill-opacity:1;fill-rule:nonzero;stroke:none" />
      </g>
      <g
         transform="translate(371.8817,218.4579)"
         id="g3801">
        <path
           d="M 0,0 -2.212,2.935 -1.437,3.518 0.775,0.583 0,0 z"
           id="path3803"
           style="fill:#515054;fill-opacity:1;fill-rule:nonzero;stroke:none" />
      </g>
      <g
         transform="translate(373.5506,222.3684)"
         id="g3805">
        <path
           d="M 0,0 C 0.249,0.188 0.326,0.316 0.079,0.643 -0.13,0.921 -0.245,0.93 -0.536,0.712 L 0,0 z M 0.529,-2.255 -1.683,0.68 -0.812,1.337 C -0.185,1.81 0.302,1.843 0.816,1.161 1.328,0.482 1.256,0.088 0.546,-0.446 L 0.413,-0.547 1.275,-1.691 0.529,-2.255 z"
           id="path3807"
           style="fill:#515054;fill-opacity:1;fill-rule:nonzero;stroke:none" />
      </g>
      <g
         transform="translate(376.1337,221.6628)"
         id="g3809">
        <path
           d="M 0,0 -2.211,2.935 -0.534,4.199 -0.078,3.594 -0.981,2.913 -0.605,2.414 0.141,2.977 0.615,2.348 -0.131,1.785 0.3,1.212 1.249,1.928 1.725,1.299 0,0 z"
           id="path3811"
           style="fill:#515054;fill-opacity:1;fill-rule:nonzero;stroke:none" />
      </g>
      <g
         transform="translate(378.2823,224.5249)"
         id="g3813">
        <path
           d="m 0,0 c 0.133,-0.175 0.268,-0.183 0.388,-0.092 0.12,0.09 0.15,0.222 0.019,0.398 L 0.187,0.596 -0.007,0.45 -0.419,0.998 0.549,1.727 1.778,0.096 1.382,-0.202 1.153,-0.131 C 1.096,-0.391 0.971,-0.589 0.74,-0.762 c -0.769,-0.58 -1.188,-0.332 -2.059,0.825 -0.835,1.108 -0.875,1.718 -0.129,2.281 0.416,0.312 0.906,0.438 1.316,0.171 0.128,-0.083 0.253,-0.22 0.431,-0.457 L -0.474,1.475 -0.605,1.646 C -0.736,1.822 -0.872,1.829 -0.991,1.739 -1.112,1.648 -1.143,1.516 -1.01,1.341 L 0,0 z"
           id="path3815"
           style="fill:#515054;fill-opacity:1;fill-rule:nonzero;stroke:none" />
      </g>
      <g
         transform="translate(380.5106,224.9608)"
         id="g3817">
        <path
           d="M 0,0 -2.211,2.935 -1.438,3.518 0.775,0.583 0,0 z"
           id="path3819"
           style="fill:#515054;fill-opacity:1;fill-rule:nonzero;stroke:none" />
      </g>
      <g
         transform="translate(382.1794,228.8709)"
         id="g3821">
        <path
           d="M 0,0 C 0.249,0.187 0.326,0.316 0.08,0.643 -0.13,0.921 -0.246,0.93 -0.535,0.712 L 0,0 z M 0.529,-2.255 -1.684,0.68 -0.812,1.337 C -0.185,1.809 0.303,1.843 0.817,1.16 1.329,0.482 1.256,0.088 0.546,-0.446 L 0.413,-0.547 1.276,-1.691 0.529,-2.255 z"
           id="path3823"
           style="fill:#515054;fill-opacity:1;fill-rule:nonzero;stroke:none" />
      </g>
      <g
         transform="translate(384.7625,228.1646)"
         id="g3825">
        <path
           d="M 0,0 -2.211,2.935 -0.533,4.199 -0.077,3.594 -0.981,2.913 -0.605,2.415 0.142,2.977 0.617,2.348 -0.13,1.785 0.3,1.213 1.25,1.929 1.725,1.299 0,0 z"
           id="path3827"
           style="fill:#515054;fill-opacity:1;fill-rule:nonzero;stroke:none" />
      </g>
      <g
         transform="translate(386.9125,231.0275)"
         id="g3829">
        <path
           d="m 0,0 c 0.132,-0.176 0.267,-0.183 0.387,-0.093 0.119,0.09 0.151,0.223 0.018,0.399 L 0.186,0.596 -0.008,0.45 -0.42,0.998 0.547,1.727 1.776,0.096 1.381,-0.203 1.153,-0.131 C 1.096,-0.391 0.97,-0.589 0.74,-0.762 -0.029,-1.342 -0.448,-1.094 -1.319,0.063 -2.155,1.171 -2.195,1.781 -1.448,2.344 -1.034,2.656 -0.544,2.782 -0.133,2.515 -0.004,2.432 0.12,2.295 0.299,2.058 L -0.476,1.474 -0.605,1.646 C -0.737,1.822 -0.873,1.828 -0.993,1.738 -1.112,1.648 -1.143,1.516 -1.011,1.341 L 0,0 z"
           id="path3831"
           style="fill:#515054;fill-opacity:1;fill-rule:nonzero;stroke:none" />
      </g>
      <g
         transform="translate(389.1408,231.4633)"
         id="g3833">
        <path
           d="M 0,0 -2.212,2.935 -1.438,3.518 0.773,0.583 0,0 z"
           id="path3835"
           style="fill:#515054;fill-opacity:1;fill-rule:nonzero;stroke:none" />
      </g>
    </g>
  </g>
  <g
     transform="matrix(11.758826,0,0,-11.759172,-4234.9294,2839.2756)"
     id="g3837">
    <g
       clip-path="url(#clipPath3841)"
       id="g3839">
      <g
         transform="translate(390.8097,235.3737)"
         id="g3845">
        <path
           d="M 0,0 C 0.248,0.187 0.326,0.316 0.078,0.643 -0.13,0.921 -0.246,0.93 -0.537,0.712 L 0,0 z M 0.527,-2.255 -1.684,0.68 -0.812,1.337 C -0.186,1.809 0.302,1.843 0.816,1.16 1.327,0.482 1.256,0.088 0.546,-0.446 L 0.412,-0.547 1.274,-1.692 0.527,-2.255 z"
           id="path3847"
           style="fill:#515054;fill-opacity:1;fill-rule:nonzero;stroke:none" />
      </g>
      <g
         transform="translate(393.3927,234.6675)"
         id="g3849">
        <path
           d="M 0,0 -2.211,2.935 -0.534,4.199 -0.078,3.594 -0.982,2.913 -0.606,2.415 0.141,2.977 0.615,2.348 -0.132,1.785 0.3,1.213 1.249,1.929 1.723,1.299 0,0 z"
           id="path3851"
           style="fill:#515054;fill-opacity:1;fill-rule:nonzero;stroke:none" />
      </g>
      <g
         transform="translate(395.5413,237.5304)"
         id="g3853">
        <path
           d="m 0,0 c 0.133,-0.176 0.268,-0.183 0.388,-0.093 0.12,0.09 0.15,0.223 0.017,0.399 L 0.187,0.596 -0.007,0.45 -0.42,0.998 0.549,1.727 1.778,0.096 1.381,-0.203 1.153,-0.131 C 1.096,-0.391 0.971,-0.589 0.74,-0.763 -0.029,-1.342 -0.448,-1.094 -1.319,0.063 -2.154,1.171 -2.195,1.781 -1.448,2.344 -1.034,2.656 -0.542,2.782 -0.132,2.515 -0.004,2.432 0.121,2.295 0.299,2.058 L -0.476,1.474 -0.605,1.646 C -0.737,1.822 -0.872,1.828 -0.993,1.738 -1.112,1.648 -1.143,1.516 -1.01,1.341 L 0,0 z"
           id="path3855"
           style="fill:#515054;fill-opacity:1;fill-rule:nonzero;stroke:none" />
      </g>
      <g
         transform="translate(361.9262,204.7374)"
         id="g3857">
        <path
           d="M 0,0 -2.212,2.935 -1.437,3.519 0.774,0.583 0,0 z"
           id="path3859"
           style="fill:#515054;fill-opacity:1;fill-rule:nonzero;stroke:none" />
      </g>
      <g
         transform="translate(363.5951,208.6478)"
         id="g3861">
        <path
           d="M 0,0 C 0.249,0.188 0.326,0.316 0.08,0.643 -0.13,0.921 -0.245,0.93 -0.535,0.712 L 0,0 z M 0.528,-2.255 -1.683,0.68 -0.812,1.337 C -0.185,1.809 0.302,1.843 0.817,1.161 1.328,0.482 1.256,0.088 0.546,-0.446 L 0.413,-0.547 1.275,-1.691 0.528,-2.255 z"
           id="path3863"
           style="fill:#515054;fill-opacity:1;fill-rule:nonzero;stroke:none" />
      </g>
    </g>
  </g>
  <g
     transform="matrix(11.758826,0,0,-11.759172,70.90366,394.04752)"
     id="g3865">
    <path
       d="M 0,0 -2.212,2.934 -0.534,4.199 -0.078,3.594 -0.981,2.913 -0.605,2.414 0.142,2.977 0.616,2.348 -0.131,1.785 0.3,1.213 1.249,1.928 1.723,1.299 0,0 z"
       id="path3867"
       style="fill:#515054;fill-opacity:1;fill-rule:nonzero;stroke:none" />
  </g>
  <g
     transform="matrix(11.758826,0,0,-11.759172,-4234.9294,2839.2756)"
     id="g3869">
    <g
       clip-path="url(#clipPath3873)"
       id="g3871">
      <g
         transform="translate(368.3274,210.8044)"
         id="g3877">
        <path
           d="m 0,0 c 0.133,-0.176 0.268,-0.183 0.387,-0.093 0.121,0.09 0.151,0.223 0.019,0.399 L 0.187,0.596 -0.007,0.45 -0.419,0.998 0.549,1.727 1.778,0.096 1.381,-0.202 1.153,-0.131 c -0.056,-0.26 -0.182,-0.458 -0.412,-0.632 -0.77,-0.579 -1.189,-0.331 -2.06,0.826 -0.835,1.108 -0.875,1.718 -0.129,2.281 0.415,0.312 0.905,0.438 1.316,0.171 C -0.004,2.432 0.121,2.295 0.3,2.058 L -0.475,1.475 -0.605,1.646 C -0.737,1.822 -0.872,1.828 -0.992,1.738 -1.112,1.648 -1.143,1.516 -1.01,1.341 L 0,0 z"
           id="path3879"
           style="fill:#515054;fill-opacity:1;fill-rule:nonzero;stroke:none" />
      </g>
      <g
         transform="translate(370.5557,211.2402)"
         id="g3881">
        <path
           d="M 0,0 -2.212,2.935 -1.437,3.519 0.775,0.583 0,0 z"
           id="path3883"
           style="fill:#515054;fill-opacity:1;fill-rule:nonzero;stroke:none" />
      </g>
      <g
         transform="translate(372.2245,215.1507)"
         id="g3885">
        <path
           d="M 0,0 C 0.249,0.188 0.326,0.316 0.08,0.643 -0.13,0.921 -0.245,0.93 -0.535,0.712 L 0,0 z M 0.529,-2.255 -1.683,0.68 -0.812,1.337 C -0.185,1.809 0.302,1.843 0.817,1.161 1.328,0.482 1.256,0.088 0.546,-0.446 L 0.413,-0.547 1.275,-1.691 0.529,-2.255 z"
           id="path3887"
           style="fill:#515054;fill-opacity:1;fill-rule:nonzero;stroke:none" />
      </g>
      <g
         transform="translate(374.8083,214.4451)"
         id="g3889">
        <path
           d="M 0,0 -2.212,2.934 -0.534,4.199 -0.078,3.594 -0.981,2.913 -0.605,2.414 0.141,2.977 0.616,2.348 -0.131,1.785 0.3,1.213 1.249,1.928 1.723,1.299 0,0 z"
           id="path3891"
           style="fill:#515054;fill-opacity:1;fill-rule:nonzero;stroke:none" />
      </g>
      <g
         transform="translate(376.9562,217.3073)"
         id="g3893">
        <path
           d="m 0,0 c 0.133,-0.176 0.268,-0.183 0.388,-0.093 0.12,0.09 0.15,0.223 0.019,0.399 L 0.187,0.596 -0.007,0.45 -0.419,0.998 0.549,1.727 1.778,0.096 1.382,-0.202 1.153,-0.131 c -0.055,-0.26 -0.182,-0.458 -0.412,-0.632 -0.77,-0.579 -1.189,-0.331 -2.06,0.826 -0.834,1.108 -0.875,1.718 -0.128,2.281 0.415,0.312 0.905,0.438 1.315,0.171 C -0.004,2.432 0.121,2.295 0.3,2.058 L -0.474,1.475 -0.605,1.646 C -0.736,1.822 -0.871,1.828 -0.991,1.738 -1.111,1.648 -1.142,1.516 -1.009,1.341 L 0,0 z"
           id="path3895"
           style="fill:#515054;fill-opacity:1;fill-rule:nonzero;stroke:none" />
      </g>
      <g
         transform="translate(379.1845,217.743)"
         id="g3897">
        <path
           d="M 0,0 -2.211,2.935 -1.436,3.518 0.775,0.583 0,0 z"
           id="path3899"
           style="fill:#515054;fill-opacity:1;fill-rule:nonzero;stroke:none" />
      </g>
      <g
         transform="translate(380.8534,221.6535)"
         id="g3901">
        <path
           d="M 0,0 C 0.25,0.187 0.326,0.316 0.08,0.643 -0.13,0.921 -0.245,0.93 -0.535,0.712 L 0,0 z m 0.529,-2.255 -2.211,2.935 0.87,0.657 C -0.185,1.808 0.303,1.843 0.817,1.16 1.329,0.482 1.257,0.088 0.546,-0.447 l -0.133,-0.1 0.863,-1.144 -0.747,-0.564 z"
           id="path3903"
           style="fill:#515054;fill-opacity:1;fill-rule:nonzero;stroke:none" />
      </g>
      <g
         transform="translate(383.4365,220.9473)"
         id="g3905">
        <path
           d="M 0,0 -2.211,2.934 -0.533,4.199 -0.077,3.594 -0.981,2.913 -0.605,2.415 0.142,2.977 0.616,2.348 -0.13,1.785 0.3,1.213 1.25,1.929 1.725,1.299 0,0 z"
           id="path3907"
           style="fill:#515054;fill-opacity:1;fill-rule:nonzero;stroke:none" />
      </g>
      <g
         transform="translate(385.5862,223.8102)"
         id="g3909">
        <path
           d="m 0,0 c 0.133,-0.177 0.267,-0.183 0.387,-0.093 0.121,0.09 0.151,0.223 0.018,0.399 L 0.186,0.596 -0.007,0.45 -0.42,0.997 0.549,1.727 1.777,0.096 1.381,-0.203 1.153,-0.131 C 1.096,-0.391 0.97,-0.589 0.74,-0.763 -0.029,-1.343 -0.448,-1.094 -1.319,0.062 -2.154,1.171 -2.195,1.78 -1.448,2.343 -1.034,2.656 -0.543,2.782 -0.133,2.515 -0.004,2.432 0.12,2.295 0.299,2.058 L -0.476,1.474 -0.605,1.646 C -0.737,1.822 -0.873,1.828 -0.993,1.738 -1.112,1.648 -1.143,1.516 -1.01,1.34 L 0,0 z"
           id="path3911"
           style="fill:#515054;fill-opacity:1;fill-rule:nonzero;stroke:none" />
      </g>
      <g
         transform="translate(387.8145,224.2459)"
         id="g3913">
        <path
           d="M 0,0 -2.212,2.935 -1.438,3.518 0.773,0.583 0,0 z"
           id="path3915"
           style="fill:#515054;fill-opacity:1;fill-rule:nonzero;stroke:none" />
      </g>
      <g
         transform="translate(389.4836,228.1561)"
         id="g3917">
        <path
           d="M 0,0 C 0.248,0.187 0.326,0.316 0.078,0.643 -0.13,0.921 -0.246,0.93 -0.535,0.712 L 0,0 z M 0.527,-2.254 -1.684,0.68 -0.812,1.337 C -0.185,1.808 0.302,1.843 0.817,1.16 1.327,0.482 1.256,0.088 0.546,-0.447 l -0.134,-0.1 0.862,-1.144 -0.747,-0.563 z"
           id="path3919"
           style="fill:#515054;fill-opacity:1;fill-rule:nonzero;stroke:none" />
      </g>
    </g>
  </g>
  <g
     transform="matrix(11.758826,0,0,-11.759172,375.31379,164.65071)"
     id="g3921">
    <path
       d="M 0,0 -2.211,2.934 -0.534,4.199 -0.078,3.593 -0.981,2.913 -0.605,2.415 0.141,2.977 0.615,2.348 -0.13,1.785 0.3,1.213 1.249,1.928 1.723,1.299 0,0 z"
       id="path3923"
       style="fill:#515054;fill-opacity:1;fill-rule:nonzero;stroke:none" />
  </g>
  <g
     transform="matrix(11.758826,0,0,-11.759172,-4234.9294,2839.2756)"
     id="g3925">
    <g
       clip-path="url(#clipPath3929)"
       id="g3927">
      <g
         transform="translate(394.2152,230.3126)"
         id="g3933">
        <path
           d="m 0,0 c 0.133,-0.177 0.268,-0.183 0.388,-0.093 0.12,0.09 0.15,0.223 0.019,0.399 L 0.187,0.596 -0.007,0.45 -0.419,0.997 0.549,1.727 1.778,0.096 1.381,-0.203 1.153,-0.131 c -0.055,-0.26 -0.182,-0.458 -0.412,-0.632 -0.77,-0.58 -1.189,-0.331 -2.06,0.825 -0.835,1.109 -0.876,1.719 -0.129,2.281 0.416,0.313 0.906,0.439 1.316,0.172 0.128,-0.083 0.253,-0.22 0.431,-0.457 L -0.474,1.474 -0.605,1.646 C -0.736,1.822 -0.872,1.828 -0.991,1.738 -1.111,1.648 -1.143,1.516 -1.01,1.34 L 0,0 z"
           id="path3935"
           style="fill:#515054;fill-opacity:1;fill-rule:nonzero;stroke:none" />
      </g>
      <g
         transform="translate(370.8978,207.933)"
         id="g3937">
        <path
           d="M 0,0 C 0.249,0.187 0.326,0.316 0.08,0.643 -0.13,0.921 -0.245,0.93 -0.535,0.711 L 0,0 z M 0.529,-2.255 -1.683,0.68 -0.811,1.337 C -0.185,1.809 0.303,1.843 0.817,1.16 1.329,0.482 1.256,0.088 0.547,-0.447 L 0.413,-0.548 1.276,-1.692 0.529,-2.255 z"
           id="path3939"
           style="fill:#515054;fill-opacity:1;fill-rule:nonzero;stroke:none" />
      </g>
      <g
         transform="translate(373.4816,207.2267)"
         id="g3941">
        <path
           d="M 0,0 -2.212,2.935 -0.534,4.199 -0.078,3.594 -0.981,2.913 -0.605,2.414 0.141,2.977 0.616,2.348 -0.131,1.785 0.3,1.213 1.25,1.929 1.724,1.299 0,0 z"
           id="path3943"
           style="fill:#515054;fill-opacity:1;fill-rule:nonzero;stroke:none" />
      </g>
    </g>
  </g>
  <g
     transform="matrix(11.758826,0,0,-11.759172,-4234.9294,2839.2756)"
     id="g3945">
    <g
       clip-path="url(#clipPath3949)"
       id="g3947">
      <g
         transform="translate(375.6308,210.0895)"
         id="g3953">
        <path
           d="m 0,0 c 0.132,-0.176 0.267,-0.183 0.387,-0.093 0.12,0.09 0.15,0.223 0.018,0.399 L 0.187,0.595 -0.007,0.45 -0.42,0.997 0.548,1.727 1.777,0.096 1.381,-0.203 1.153,-0.132 C 1.096,-0.391 0.971,-0.589 0.739,-0.763 -0.03,-1.343 -0.448,-1.094 -1.32,0.062 -2.155,1.171 -2.195,1.781 -1.448,2.343 -1.034,2.656 -0.543,2.782 -0.132,2.515 -0.004,2.432 0.12,2.295 0.299,2.058 L -0.476,1.474 -0.605,1.646 C -0.737,1.822 -0.872,1.828 -0.993,1.738 -1.112,1.648 -1.143,1.516 -1.011,1.341 L 0,0 z"
           id="path3955"
           style="fill:#515054;fill-opacity:1;fill-rule:nonzero;stroke:none" />
      </g>
      <g
         transform="translate(377.8584,210.5253)"
         id="g3957">
        <path
           d="M 0,0 -2.211,2.935 -1.438,3.519 0.775,0.583 0,0 z"
           id="path3959"
           style="fill:#515054;fill-opacity:1;fill-rule:nonzero;stroke:none" />
      </g>
      <g
         transform="translate(379.5273,214.4359)"
         id="g3961">
        <path
           d="M 0,0 C 0.248,0.187 0.326,0.316 0.08,0.643 -0.13,0.921 -0.246,0.93 -0.535,0.711 L 0,0 z M 0.529,-2.255 -1.683,0.68 -0.812,1.337 C -0.185,1.809 0.303,1.843 0.817,1.16 1.329,0.482 1.256,0.088 0.546,-0.447 L 0.412,-0.548 1.276,-1.692 0.529,-2.255 z"
           id="path3963"
           style="fill:#515054;fill-opacity:1;fill-rule:nonzero;stroke:none" />
      </g>
      <g
         transform="translate(382.1104,213.7296)"
         id="g3965">
        <path
           d="M 0,0 -2.211,2.935 -0.533,4.199 -0.077,3.594 -0.981,2.913 -0.605,2.414 0.142,2.977 0.617,2.348 -0.13,1.785 0.3,1.212 1.25,1.929 1.725,1.299 0,0 z"
           id="path3967"
           style="fill:#515054;fill-opacity:1;fill-rule:nonzero;stroke:none" />
      </g>
      <g
         transform="translate(384.2603,216.5923)"
         id="g3969">
        <path
           d="m 0,0 c 0.132,-0.176 0.267,-0.183 0.387,-0.093 0.119,0.09 0.151,0.223 0.018,0.399 L 0.186,0.595 -0.008,0.45 -0.42,0.997 0.547,1.727 1.777,0.096 1.381,-0.203 1.153,-0.132 C 1.096,-0.391 0.97,-0.589 0.74,-0.763 -0.029,-1.343 -0.448,-1.094 -1.319,0.062 -2.155,1.171 -2.195,1.781 -1.448,2.343 -1.034,2.656 -0.543,2.782 -0.133,2.515 -0.004,2.432 0.12,2.295 0.299,2.058 L -0.476,1.474 -0.605,1.646 C -0.737,1.822 -0.873,1.828 -0.993,1.738 -1.112,1.648 -1.143,1.516 -1.011,1.341 L 0,0 z"
           id="path3971"
           style="fill:#515054;fill-opacity:1;fill-rule:nonzero;stroke:none" />
      </g>
      <g
         transform="translate(386.4872,217.0275)"
         id="g3973">
        <path
           d="M 0,0 -2.211,2.935 -1.436,3.519 0.775,0.584 0,0 z"
           id="path3975"
           style="fill:#515054;fill-opacity:1;fill-rule:nonzero;stroke:none" />
      </g>
      <g
         transform="translate(388.1574,220.9388)"
         id="g3977">
        <path
           d="M 0,0 C 0.249,0.187 0.326,0.316 0.078,0.643 -0.13,0.921 -0.246,0.93 -0.537,0.711 L 0,0 z M 0.528,-2.255 -1.684,0.68 -0.813,1.337 C -0.186,1.808 0.302,1.843 0.816,1.16 1.327,0.481 1.256,0.088 0.545,-0.448 l -0.133,-0.1 0.862,-1.144 -0.746,-0.563 z"
           id="path3979"
           style="fill:#515054;fill-opacity:1;fill-rule:nonzero;stroke:none" />
      </g>
    </g>
  </g>
  <g
     transform="matrix(11.758826,0,0,-11.759172,359.71926,249.53199)"
     id="g3981">
    <path
       d="M 0,0 -2.212,2.935 -0.534,4.199 -0.078,3.594 -0.982,2.914 -0.606,2.415 0.141,2.978 0.615,2.348 -0.132,1.786 0.299,1.213 1.249,1.929 1.723,1.299 0,0 z"
       id="path3983"
       style="fill:#515054;fill-opacity:1;fill-rule:nonzero;stroke:none" />
  </g>
  <g
     transform="matrix(11.758826,0,0,-11.759172,-4234.9294,2839.2756)"
     id="g3985">
    <g
       clip-path="url(#clipPath3989)"
       id="g3987">
      <g
         transform="translate(392.8891,223.0945)"
         id="g3993">
        <path
           d="m 0,0 c 0.133,-0.176 0.267,-0.183 0.387,-0.092 0.121,0.09 0.151,0.222 0.018,0.398 L 0.186,0.596 -0.007,0.45 -0.42,0.997 0.549,1.727 1.778,0.096 1.381,-0.203 1.153,-0.131 C 1.096,-0.391 0.971,-0.589 0.74,-0.762 c -0.769,-0.581 -1.188,-0.332 -2.059,0.825 -0.835,1.108 -0.876,1.718 -0.129,2.28 0.414,0.313 0.905,0.439 1.316,0.172 0.128,-0.083 0.253,-0.22 0.431,-0.457 L -0.476,1.474 -0.604,1.646 C -0.737,1.822 -0.873,1.829 -0.993,1.739 -1.112,1.648 -1.143,1.517 -1.01,1.341 L 0,0 z"
           id="path3995"
           style="fill:#515054;fill-opacity:1;fill-rule:nonzero;stroke:none" />
      </g>
      <g
         transform="translate(395.1174,223.5303)"
         id="g3997">
        <path
           d="M 0,0 -2.211,2.935 -1.438,3.519 0.775,0.584 0,0 z"
           id="path3999"
           style="fill:#515054;fill-opacity:1;fill-rule:nonzero;stroke:none" />
      </g>
      <g
         transform="translate(378.2012,207.2181)"
         id="g4001">
        <path
           d="M 0,0 C 0.248,0.187 0.326,0.316 0.08,0.643 -0.13,0.921 -0.246,0.93 -0.535,0.711 L 0,0 z M 0.529,-2.255 -1.684,0.68 -0.812,1.337 C -0.185,1.809 0.303,1.843 0.817,1.16 1.329,0.482 1.257,0.088 0.546,-0.447 l -0.133,-0.1 0.863,-1.145 -0.747,-0.563 z"
           id="path4003"
           style="fill:#515054;fill-opacity:1;fill-rule:nonzero;stroke:none" />
      </g>
      <g
         transform="translate(380.7842,206.5118)"
         id="g4005">
        <path
           d="M 0,0 -2.211,2.935 -0.533,4.199 -0.077,3.594 -0.981,2.913 -0.605,2.415 0.142,2.978 0.616,2.348 -0.13,1.785 0.3,1.213 1.25,1.929 1.725,1.299 0,0 z"
           id="path4007"
           style="fill:#515054;fill-opacity:1;fill-rule:nonzero;stroke:none" />
      </g>
    </g>
  </g>
  <g
     transform="matrix(11.758826,0,0,-11.759172,-4234.9294,2839.2756)"
     id="g4009">
    <g
       clip-path="url(#clipPath4013)"
       id="g4011">
      <g
         transform="translate(382.9342,209.3746)"
         id="g4017">
        <path
           d="m 0,0 c 0.132,-0.176 0.267,-0.183 0.387,-0.093 0.121,0.09 0.151,0.223 0.018,0.399 L 0.186,0.595 -0.007,0.45 -0.42,0.997 0.547,1.727 1.777,0.096 1.381,-0.203 1.153,-0.131 C 1.096,-0.391 0.97,-0.589 0.74,-0.763 -0.029,-1.342 -0.448,-1.094 -1.319,0.062 -2.154,1.171 -2.195,1.78 -1.448,2.343 -1.034,2.656 -0.543,2.782 -0.133,2.515 -0.004,2.432 0.12,2.295 0.299,2.058 L -0.476,1.474 -0.605,1.646 C -0.737,1.822 -0.873,1.828 -0.993,1.738 -1.112,1.648 -1.143,1.516 -1.011,1.341 L 0,0 z"
           id="path4019"
           style="fill:#515054;fill-opacity:1;fill-rule:nonzero;stroke:none" />
      </g>
      <g
         transform="translate(385.1611,209.8098)"
         id="g4021">
        <path
           d="M 0,0 -2.211,2.935 -1.436,3.518 0.775,0.584 0,0 z"
           id="path4023"
           style="fill:#515054;fill-opacity:1;fill-rule:nonzero;stroke:none" />
      </g>
      <g
         transform="translate(386.8314,213.7209)"
         id="g4025">
        <path
           d="M 0,0 C 0.249,0.187 0.326,0.316 0.078,0.643 -0.13,0.921 -0.246,0.93 -0.537,0.711 L 0,0 z M 0.528,-2.255 -1.684,0.68 -0.813,1.337 C -0.186,1.808 0.302,1.843 0.816,1.16 1.327,0.481 1.256,0.088 0.546,-0.447 l -0.134,-0.1 0.862,-1.145 -0.746,-0.563 z"
           id="path4027"
           style="fill:#515054;fill-opacity:1;fill-rule:nonzero;stroke:none" />
      </g>
      <g
         transform="translate(389.4145,213.014)"
         id="g4029">
        <path
           d="M 0,0 -2.212,2.935 -0.534,4.2 -0.078,3.594 -0.982,2.914 -0.606,2.416 0.141,2.978 0.615,2.348 -0.132,1.786 0.3,1.214 1.249,1.929 1.723,1.3 0,0 z"
           id="path4031"
           style="fill:#515054;fill-opacity:1;fill-rule:nonzero;stroke:none" />
      </g>
    </g>
  </g>
  <g
     transform="matrix(11.758826,0,0,-11.759172,-4234.9294,2839.2756)"
     id="g4033">
    <g
       clip-path="url(#clipPath4037)"
       id="g4035">
      <g
         transform="translate(391.563,215.8775)"
         id="g4041">
        <path
           d="m 0,0 c 0.133,-0.177 0.268,-0.183 0.388,-0.093 0.12,0.09 0.15,0.222 0.017,0.399 L 0.187,0.595 -0.007,0.449 -0.42,0.997 0.549,1.727 1.778,0.096 1.381,-0.203 1.153,-0.131 C 1.096,-0.391 0.971,-0.589 0.74,-0.763 c -0.769,-0.58 -1.188,-0.331 -2.059,0.825 -0.835,1.109 -0.876,1.719 -0.129,2.281 0.414,0.313 0.905,0.439 1.316,0.172 0.128,-0.083 0.253,-0.22 0.431,-0.457 L -0.476,1.474 -0.605,1.646 C -0.737,1.822 -0.873,1.828 -0.993,1.738 -1.112,1.648 -1.143,1.516 -1.01,1.34 L 0,0 z"
           id="path4043"
           style="fill:#515054;fill-opacity:1;fill-rule:nonzero;stroke:none" />
      </g>
      <g
         transform="translate(393.7913,216.3127)"
         id="g4045">
        <path
           d="M 0,0 -2.212,2.935 -1.438,3.518 0.775,0.584 0,0 z"
           id="path4047"
           style="fill:#515054;fill-opacity:1;fill-rule:nonzero;stroke:none" />
      </g>
      <g
         transform="translate(395.4602,220.2238)"
         id="g4049">
        <path
           d="M 0,0 C 0.249,0.187 0.326,0.316 0.08,0.643 -0.13,0.921 -0.246,0.93 -0.535,0.711 L 0,0 z M 0.529,-2.255 -1.684,0.68 -0.812,1.337 C -0.185,1.808 0.303,1.843 0.817,1.16 1.327,0.481 1.257,0.088 0.546,-0.447 l -0.133,-0.1 0.863,-1.145 -0.747,-0.563 z"
           id="path4051"
           style="fill:#515054;fill-opacity:1;fill-rule:nonzero;stroke:none" />
      </g>
      <g
         transform="translate(386.0049,206.8799)"
         id="g4053">
        <path
           d="M 0,0 C 0.25,0.188 0.326,0.316 0.08,0.642 -0.13,0.921 -0.246,0.93 -0.535,0.712 L 0,0 z m 0.529,-2.255 -2.211,2.935 0.87,0.657 C -0.185,1.809 0.303,1.843 0.817,1.161 1.329,0.482 1.257,0.088 0.546,-0.447 l -0.133,-0.1 0.863,-1.145 -0.747,-0.563 z"
           id="path4055"
           style="fill:#515054;fill-opacity:1;fill-rule:nonzero;stroke:none" />
      </g>
      <g
         transform="translate(388.5893,206.1738)"
         id="g4057">
        <path
           d="m 0,0 -2.212,2.935 1.678,1.264 0.456,-0.605 -0.904,-0.68 0.376,-0.5 L 0.141,2.977 0.615,2.348 -0.132,1.785 0.299,1.213 1.249,1.929 1.723,1.3 0,0 z"
           id="path4059"
           style="fill:#515054;fill-opacity:1;fill-rule:nonzero;stroke:none" />
      </g>
    </g>
  </g>
  <g
     transform="matrix(11.758826,0,0,-11.759172,-4234.9294,2839.2756)"
     id="g4061">
    <g
       clip-path="url(#clipPath4065)"
       id="g4063">
      <g
         transform="translate(390.7379,209.0358)"
         id="g4069">
        <path
           d="m 0,0 c 0.132,-0.175 0.267,-0.183 0.387,-0.092 0.119,0.09 0.151,0.222 0.018,0.398 L 0.186,0.597 -0.008,0.45 -0.42,0.998 0.549,1.727 1.778,0.097 1.381,-0.202 1.153,-0.13 C 1.096,-0.391 0.97,-0.589 0.74,-0.762 c -0.769,-0.58 -1.188,-0.332 -2.059,0.826 -0.836,1.107 -0.876,1.717 -0.129,2.28 0.414,0.312 0.905,0.438 1.315,0.171 C -0.004,2.432 0.12,2.296 0.299,2.058 L -0.476,1.475 -0.605,1.646 C -0.737,1.822 -0.873,1.83 -0.993,1.739 -1.112,1.649 -1.143,1.517 -1.011,1.341 L 0,0 z"
           id="path4071"
           style="fill:#515054;fill-opacity:1;fill-rule:nonzero;stroke:none" />
      </g>
    </g>
  </g>
  <g
     transform="matrix(11.758826,0,0,-11.759172,385.89206,376.06303)"
     id="g4073">
    <path
       d="M 0,0 -2.212,2.935 -1.438,3.519 0.773,0.584 0,0 z"
       id="path4075"
       style="fill:#515054;fill-opacity:1;fill-rule:nonzero;stroke:none" />
  </g>
  <g
     transform="matrix(11.758826,0,0,-11.759172,-4234.9294,2839.2756)"
     id="g4077">
    <g
       clip-path="url(#clipPath4081)"
       id="g4079">
      <g
         transform="translate(394.6351,213.3828)"
         id="g4085">
        <path
           d="M 0,0 C 0.249,0.188 0.326,0.316 0.078,0.642 -0.13,0.921 -0.246,0.93 -0.535,0.712 L 0,0 z M 0.529,-2.255 -1.684,0.68 -0.812,1.337 C -0.185,1.809 0.302,1.843 0.816,1.161 1.327,0.482 1.256,0.088 0.546,-0.447 l -0.134,-0.1 0.864,-1.145 -0.747,-0.563 z"
           id="path4087"
           style="fill:#515054;fill-opacity:1;fill-rule:nonzero;stroke:none" />
      </g>
    </g>
  </g>
  <g
     transform="matrix(11.758826,0,0,-11.759172,-4234.9294,2839.2756)"
     id="g4089">
    <g
       clip-path="url(#clipPath4093)"
       id="g4091">
      <g
         transform="translate(377.1581,237.6847)"
         id="g4097">
        <path
           d="m 0,0 c -8.613,-0.01 -14.733,-4.116 -14.761,-9.415 0.015,-2.845 1.798,-5.338 4.768,-7.047 l -0.552,-7.299 5.467,5.467 c 1.562,-0.34 3.26,-0.534 5.078,-0.536 8.612,0.01 14.733,4.116 14.76,9.415 C 14.733,-4.116 8.612,-0.01 0,0"
           id="path4099"
           style="fill:#ffffff;fill-opacity:1;fill-rule:nonzero;stroke:none" />
      </g>
      <g
         transform="translate(383.9041,226.9393)"
         id="g4101">
        <path
           d="m 0,0 c -0.601,0.215 -1.632,0.729 -2.746,1.331 1.029,0.601 1.974,1.073 2.703,1.417 -0.344,0.944 -0.944,1.931 -0.944,1.931 -0.687,-0.515 -1.632,-1.159 -2.705,-1.802 0,1.374 0.044,2.618 0.128,3.262 0,0 -1.073,-0.258 -2.017,-0.172 0.087,-0.687 0.128,-1.803 0.128,-3.09 -1.115,0.643 -2.103,1.287 -2.617,1.631 0,0 -0.387,-1.073 -1.074,-1.76 0.601,-0.259 1.674,-0.816 2.833,-1.461 -1.202,-0.686 -2.274,-1.244 -2.876,-1.545 0,0 0.73,-0.816 1.159,-1.632 0.515,0.387 1.46,0.989 2.575,1.676 -0.041,-1.202 -0.085,-2.276 -0.171,-3.092 1.03,-0.085 2.232,-0.129 2.232,-0.129 -0.128,0.645 -0.214,1.804 -0.256,3.177 1.072,-0.643 2.059,-1.287 2.704,-1.759 C -0.516,-0.945 0,0 0,0"
           id="path4103"
           style="fill:#000000;fill-opacity:1;fill-rule:nonzero;stroke:none" />
      </g>
      <g
         transform="translate(370.0634,228.0965)"
         id="g4105">
        <path
           d="m 0,0 c -0.115,-0.555 -0.632,-1.014 -1.149,-0.9 -0.517,0.115 -0.709,0.823 -0.478,1.532 0.172,0.536 0.746,0.899 1.224,0.689 C 0.038,1.149 0.115,0.574 0,0 M 3.868,0.173 C 4.193,4.041 1.819,5.744 -0.958,5.553 -3.811,5.362 -5.764,2.815 -5.706,0 c 0.056,-2.604 1.378,-4.653 4.174,-4.749 0.977,-0.038 1.819,0.173 2.509,0.556 -0.517,0.459 -0.881,1.129 -0.881,1.129 -0.499,-0.268 -1.034,-0.403 -1.551,-0.383 -1.609,0.076 -2.567,1.38 -2.643,3.044 C -4.194,1.781 -2.911,3.6 -1.073,3.849 1.436,4.194 2.47,2.623 2.354,0.44 2.259,-1.512 1.551,-1.685 1.474,-1.034 1.36,0.076 1.474,1.915 1.494,2.757 0.823,2.796 0,2.949 0,2.949 0.019,2.796 0.038,2.643 0.056,2.47 -0.268,2.7 -0.671,2.815 -1.092,2.796 -2.279,2.739 -3.197,1.666 -3.352,0.211 -3.466,-0.9 -3.046,-2.47 -1.59,-2.624 c 0.689,-0.076 1.264,0.192 1.705,0.632 0.191,-0.65 0.88,-1.015 1.493,-0.976 1.264,0.077 2.088,1.34 2.26,3.141"
           id="path4107"
           style="fill:#000000;fill-opacity:1;fill-rule:evenodd;stroke:none" />
      </g>
      <g
         transform="translate(388.1906,224.1037)"
         id="g4109">
        <path
           d="M 0,0 C 0.084,0.516 -0.348,1.1 -1.086,1.156 -1.782,1.225 -2.311,0.821 -2.339,0.264 -2.366,-0.333 -1.92,-0.905 -1.183,-0.905 -0.557,-0.905 -0.084,-0.529 0,0 M 0.056,9.217 C -1.016,9.134 -2.297,8.94 -2.297,8.94 c 0.249,-2.075 0.278,-5.263 0.111,-7.255 0,0 1.115,0.251 2.075,0.181 -0.195,2.103 -0.056,5.361 0.167,7.351"
           id="path4111"
           style="fill:#000000;fill-opacity:1;fill-rule:evenodd;stroke:none" />
      </g>
      <path
         d="m 393.485,208.117 -32.655,0 0,32.655 32.655,0 0,-32.655 z m -33.335,-0.681 34.016,0 0,34.016 -34.016,0 0,-34.016 z"
         id="path4113"
         style="fill:#000000;fill-opacity:1;fill-rule:nonzero;stroke:none" />
      <path
         d="m 394.165,207.436 -34.016,0 0,5.443 34.016,0 0,-5.443 z"
         id="path4115"
         style="fill:#000000;fill-opacity:1;fill-rule:nonzero;stroke:none" />
      <g
         transform="translate(364.3152,209.0829)"
         id="g4117">
        <path
           d="M 0,0 0.184,0 C 0.404,0 0.48,0.123 0.48,0.429 0.48,0.756 0.419,0.878 0.174,0.878 L 0,0.878 0,0 z m 0,1.501 0.107,0 c 0.21,0 0.322,0.108 0.322,0.409 0,0.281 -0.077,0.409 -0.281,0.409 L 0,2.319 0,1.501 z m -0.827,1.482 1.062,0 c 0.756,0 1.022,-0.317 1.022,-0.91 0,-0.561 -0.215,-0.735 -0.383,-0.811 l 0,-0.01 C 1.062,1.236 1.359,0.929 1.359,0.353 c 0,-0.71 -0.337,-1.037 -1.001,-1.037 l -1.185,0 0,3.667 z"
           id="path4119"
           style="fill:#ffffff;fill-opacity:1;fill-rule:nonzero;stroke:none" />
      </g>
      <g
         transform="translate(366.7442,209.5733)"
         id="g4121">
        <path
           d="m 0,0 0.429,0 -0.215,1.507 -0.01,0 L 0,0 z m 1.364,-1.175 -0.818,0 -0.071,0.46 -0.521,0 -0.072,-0.46 -0.817,0 0.633,3.668 1.032,0 0.634,-3.668 z"
           id="path4123"
           style="fill:#ffffff;fill-opacity:1;fill-rule:nonzero;stroke:none" />
      </g>
      <g
         transform="translate(369.1628,209.1036)"
         id="g4125">
        <path
           d="m 0,0 c 0.388,0 0.419,0.137 0.419,0.807 l 0,0.664 C 0.419,2.14 0.388,2.278 0,2.278 L 0,0 z m -0.858,2.962 0.868,0 c 0.971,0 1.267,-0.245 1.267,-1.833 0,-1.405 -0.21,-1.834 -1.267,-1.834 l -0.868,0 0,3.667 z"
           id="path4127"
           style="fill:#ffffff;fill-opacity:1;fill-rule:nonzero;stroke:none" />
      </g>
      <g
         transform="translate(371.9887,208.3987)"
         id="g4129">
        <path
           d="m 0,0 0,3.667 0.858,0 0,-2.88 1.103,0 L 1.961,0 0,0 z"
           id="path4131"
           style="fill:#ffffff;fill-opacity:1;fill-rule:nonzero;stroke:none" />
      </g>
      <g
         transform="translate(374.959,209.5733)"
         id="g4133">
        <path
           d="M 0,0 0.428,0 0.215,1.507 0.204,1.507 0,0 z m 1.363,-1.175 -0.817,0 -0.071,0.46 -0.521,0 -0.072,-0.46 -0.817,0 0.633,3.668 1.032,0 0.633,-3.668 z"
           id="path4135"
           style="fill:#ffffff;fill-opacity:1;fill-rule:nonzero;stroke:none" />
      </g>
      <g
         transform="translate(376.5197,208.3987)"
         id="g4137">
        <path
           d="m 0,0 0,3.667 0.823,0 0.556,-1.624 0.01,0 0,1.624 0.736,0 L 2.125,0 1.328,0 0.745,1.9 0.736,1.9 0.736,0 0,0 z"
           id="path4139"
           style="fill:#ffffff;fill-opacity:1;fill-rule:nonzero;stroke:none" />
      </g>
      <g
         transform="translate(379.8881,209.3893)"
         id="g4141">
        <path
           d="m 0,0 c 0,-0.219 0.092,-0.306 0.225,-0.306 0.132,0 0.224,0.087 0.224,0.306 l 0,0.363 -0.214,0 0,0.684 1.072,0 0,-2.038 -0.439,0 -0.123,0.194 C 0.567,-0.97 0.373,-1.052 0.118,-1.052 c -0.853,0 -1.017,0.449 -1.017,1.895 0,1.384 0.296,1.895 1.124,1.895 0.459,0 0.873,-0.194 1.021,-0.654 C 1.292,1.941 1.307,1.757 1.307,1.461 l -0.858,0 0,0.215 C 0.449,1.895 0.357,1.982 0.225,1.982 0.092,1.982 0,1.895 0,1.676 L 0,0 z"
           id="path4143"
           style="fill:#ffffff;fill-opacity:1;fill-rule:nonzero;stroke:none" />
      </g>
      <g
         transform="translate(383.7467,212.066)"
         id="g4145">
        <path
           d="m 0,0 0,-2.768 c 0,-0.614 -0.378,-0.96 -1.062,-0.96 -0.685,0 -1.063,0.346 -1.063,0.96 l 0,2.768 0.858,0 0,-2.666 c 0,-0.184 0.047,-0.286 0.205,-0.286 0.158,0 0.204,0.102 0.204,0.286 L -0.858,0 0,0 z"
           id="path4147"
           style="fill:#ffffff;fill-opacity:1;fill-rule:nonzero;stroke:none" />
      </g>
      <g
         transform="translate(384.8781,209.5733)"
         id="g4149">
        <path
           d="M 0,0 0.429,0 0.215,1.507 0.204,1.507 0,0 z m 1.363,-1.175 -0.817,0 -0.071,0.46 -0.521,0 -0.072,-0.46 -0.817,0 0.633,3.668 1.032,0 0.633,-3.668 z"
           id="path4151"
           style="fill:#ffffff;fill-opacity:1;fill-rule:nonzero;stroke:none" />
      </g>
      <g
         transform="translate(387.256,209.3893)"
         id="g4153">
        <path
           d="m 0,0 c 0,-0.219 0.092,-0.306 0.224,-0.306 0.133,0 0.225,0.087 0.225,0.306 l 0,0.363 -0.214,0 0,0.684 1.072,0 0,-2.038 -0.439,0 -0.123,0.194 C 0.567,-0.97 0.373,-1.052 0.118,-1.052 c -0.854,0 -1.017,0.449 -1.017,1.895 0,1.384 0.296,1.895 1.123,1.895 0.46,0 0.874,-0.194 1.022,-0.654 C 1.292,1.941 1.307,1.757 1.307,1.461 l -0.858,0 0,0.215 C 0.449,1.895 0.357,1.982 0.224,1.982 0.092,1.982 0,1.895 0,1.676 L 0,0 z"
           id="path4155"
           style="fill:#ffffff;fill-opacity:1;fill-rule:nonzero;stroke:none" />
      </g>
      <g
         transform="translate(388.99,208.3987)"
         id="g4157">
        <path
           d="m 0,0 0,3.667 1.859,0 0,-0.756 -1.001,0 0,-0.623 0.827,0 0,-0.786 -0.827,0 0,-0.715 1.052,0 L 1.91,0 0,0 z"
           id="path4159"
           style="fill:#ffffff;fill-opacity:1;fill-rule:nonzero;stroke:none" />
      </g>
      <g
         transform="translate(392.8048,238.1339)"
         id="g4161">
        <path
           d="m 0,0 -0.316,0 0,1.541 -0.01,0 L -0.868,0 l -0.257,0 -0.516,1.541 -0.009,0 0,-1.541 -0.317,0 0,1.957 0.503,0 0.487,-1.455 0.01,0 0.475,1.455 L 0,1.957 0,0 z m -2.192,1.957 0,-0.253 -0.539,0 0,-1.704 -0.316,0 0,1.704 -0.538,0 0,0.253 1.393,0 z"
           id="path4163"
           style="fill:#ffffff;fill-opacity:1;fill-rule:nonzero;stroke:none" />
      </g>
    </g>
  </g>
</svg>
