<?xml version="1.0" standalone="no"?>
<!DOCTYPE svg PUBLIC "-//W3C//DTD SVG 20010904//EN"
 "http://www.w3.org/TR/2001/REC-SVG-20010904/DTD/svg10.dtd">
<svg version="1.0" xmlns="http://www.w3.org/2000/svg"
 width="200.000000pt" height="200.000000pt" viewBox="0 0 200.000000 200.000000"
 preserveAspectRatio="xMidYMid meet">

<g transform="translate(0.000000,200.000000) scale(0.100000,-0.100000)"
fill="#000000" stroke="none">
<path d="M977 1098 c-80 -156 -161 -316 -181 -356 l-36 -72 55 -27 c37 -18 58
-24 65 -17 15 15 350 677 350 691 0 10 -87 63 -104 63 -2 0 -69 -127 -149
-282z"/>
<path d="M297 1132 c-64 -64 -117 -124 -117 -132 0 -9 56 -71 125 -140 l125
-125 42 43 43 42 -83 83 c-45 45 -82 87 -82 92 0 6 36 46 80 90 44 44 80 84
80 90 0 16 -64 75 -81 75 -8 0 -67 -53 -132 -118z"/>
<path d="M1522 1217 c-18 -18 -32 -37 -32 -43 0 -5 36 -45 80 -89 44 -44 80
-84 80 -90 0 -5 -37 -47 -82 -92 l-83 -83 43 -42 42 -43 125 125 c69 69 125
132 125 140 0 20 -231 250 -251 250 -8 0 -29 -15 -47 -33z"/>
<path d="M641 1154 c-16 -12 -21 -26 -21 -60 l0 -44 -38 0 c-44 0 -82 -23 -82
-50 0 -31 28 -50 76 -50 l44 0 0 -44 c0 -48 19 -76 50 -76 27 0 50 38 50 82
l0 38 44 0 c34 0 48 5 60 21 28 40 -5 79 -66 79 -37 0 -38 1 -38 38 0 61 -39
94 -79 66z"/>
<path d="M1302 1144 c-24 -17 -30 -62 -10 -82 37 -37 113 12 88 57 -9 17 -39
41 -52 41 -2 0 -14 -7 -26 -16z"/>
<path d="M1413 1050 c-31 -13 -40 -55 -18 -80 20 -22 65 -26 83 -8 20 20 14
65 -10 82 -25 18 -25 18 -55 6z"/>
<path d="M1196 1034 c-23 -22 -20 -71 3 -84 31 -16 59 -12 75 12 21 30 20 44
-4 68 -24 24 -53 26 -74 4z"/>
<path d="M1293 924 c-15 -24 -15 -29 -2 -53 28 -49 99 -32 99 24 0 55 -67 75
-97 29z"/>
</g>
</svg>
